<ttFont>
    <TTGlyph name="A" xMin="-62" yMin="-128" xMax="821" yMax="835">
      <contour>
        <pt x="821" y="212" on="0"/>
        <pt x="821" y="186" on="0"/>
        <pt x="812" y="177" on="1"/>
        <pt x="670" y="177" on="1"/>
        <pt x="727" y="-13" on="1"/>
        <pt x="729" y="-20" on="0"/>
        <pt x="729" y="-42" on="0"/>
        <pt x="701" y="-74" on="0"/>
        <pt x="686" y="-74" on="1"/>
        <pt x="658" y="-74" on="0"/>
        <pt x="642" y="-60" on="1"/>
        <pt x="571" y="177" on="1"/>
        <pt x="316" y="177" on="1"/>
        <pt x="266" y="41" on="1"/>
        <pt x="240" y="-28" on="0"/>
        <pt x="142" y="-128" on="0"/>
        <pt x="64" y="-128" on="1"/>
        <pt x="5" y="-128" on="0"/>
        <pt x="-62" y="-66" on="0"/>
        <pt x="-62" y="52" on="0"/>
        <pt x="-5" y="147" on="0"/>
        <pt x="42" y="174" on="1"/>
        <pt x="136" y="228" on="0"/>
        <pt x="252" y="228" on="1"/>
        <pt x="398" y="640" on="1"/>
        <pt x="408" y="669" on="0"/>
        <pt x="419" y="683" on="1"/>
        <pt x="388" y="787" on="0"/>
        <pt x="388" y="808" on="0"/>
        <pt x="417" y="835" on="0"/>
        <pt x="432" y="835" on="1"/>
        <pt x="461" y="835" on="0"/>
        <pt x="477" y="821" on="1"/>
        <pt x="654" y="228" on="1"/>
        <pt x="785" y="229" on="1"/>
        <pt x="802" y="229" on="0"/>
      </contour>
      <contour>
        <pt x="64" y="-86" on="1"/>
        <pt x="139" y="-86" on="0"/>
        <pt x="194" y="65" on="1"/>
        <pt x="233" y="176" on="1"/>
        <pt x="123" y="176" on="0"/>
        <pt x="-6" y="72" on="0"/>
        <pt x="-6" y="-13" on="1"/>
        <pt x="-6" y="-48" on="0"/>
        <pt x="33" y="-86" on="0"/>
      </contour>
      <contour>
        <pt x="457" y="606" on="1"/>
        <pt x="335" y="228" on="1"/>
        <pt x="555" y="228" on="1"/>
      </contour>
    </TTGlyph>
    <TTGlyph name="AE" xMin="-62" yMin="-128" xMax="1190" yMax="835">
      <contour>
        <pt x="1171" y="268" on="1"/>
        <pt x="1190" y="268" on="0"/>
        <pt x="1190" y="235" on="1"/>
        <pt x="1190" y="124" on="0"/>
        <pt x="1116" y="38" on="1"/>
        <pt x="1080" y="-4" on="0"/>
        <pt x="962" y="-56" on="0"/>
        <pt x="890" y="-56" on="1"/>
        <pt x="760" y="-56" on="0"/>
        <pt x="585" y="66" on="0"/>
        <pt x="585" y="177" on="1"/>
        <pt x="316" y="177" on="1"/>
        <pt x="266" y="41" on="1"/>
        <pt x="240" y="-28" on="0"/>
        <pt x="142" y="-128" on="0"/>
        <pt x="64" y="-128" on="1"/>
        <pt x="5" y="-128" on="0"/>
        <pt x="-62" y="-66" on="0"/>
        <pt x="-62" y="52" on="0"/>
        <pt x="-5" y="147" on="0"/>
        <pt x="42" y="174" on="1"/>
        <pt x="136" y="228" on="0"/>
        <pt x="252" y="228" on="1"/>
        <pt x="398" y="640" on="1"/>
        <pt x="408" y="669" on="0"/>
        <pt x="419" y="683" on="1"/>
        <pt x="388" y="787" on="0"/>
        <pt x="388" y="808" on="0"/>
        <pt x="417" y="835" on="0"/>
        <pt x="432" y="835" on="1"/>
        <pt x="461" y="835" on="0"/>
        <pt x="477" y="821" on="1"/>
        <pt x="628" y="313" on="1"/>
        <pt x="679" y="374" on="0"/>
        <pt x="764" y="380" on="1"/>
        <pt x="738" y="382" on="0"/>
        <pt x="690" y="412" on="1"/>
        <pt x="663" y="429" on="0"/>
        <pt x="627" y="505" on="0"/>
        <pt x="627" y="557" on="1"/>
        <pt x="627" y="651" on="0"/>
        <pt x="759" y="750" on="0"/>
        <pt x="978" y="750" on="0"/>
        <pt x="1089" y="661" on="0"/>
        <pt x="1089" y="599" on="1"/>
        <pt x="1089" y="574" on="0"/>
        <pt x="1059" y="544" on="0"/>
        <pt x="1044" y="544" on="1"/>
        <pt x="1019" y="544" on="0"/>
        <pt x="1011" y="556" on="1"/>
        <pt x="1017" y="571" on="0"/>
        <pt x="1017" y="593" on="1"/>
        <pt x="1017" y="647" on="0"/>
        <pt x="935" y="701" on="0"/>
        <pt x="803" y="701" on="0"/>
        <pt x="719" y="628" on="0"/>
        <pt x="719" y="557" on="1"/>
        <pt x="719" y="408" on="0"/>
        <pt x="920" y="408" on="1"/>
        <pt x="931" y="408" on="0"/>
        <pt x="950" y="395" on="0"/>
        <pt x="950" y="382" on="1"/>
        <pt x="950" y="356" on="0"/>
        <pt x="920" y="356" on="1"/>
        <pt x="813" y="356" on="0"/>
        <pt x="677" y="268" on="0"/>
        <pt x="677" y="85" on="0"/>
        <pt x="794" y="-6" on="0"/>
        <pt x="999" y="-6" on="0"/>
        <pt x="1154" y="142" on="0"/>
        <pt x="1154" y="261" on="1"/>
        <pt x="1156" y="268" on="0"/>
      </contour>
      <contour>
        <pt x="457" y="606" on="1"/>
        <pt x="335" y="228" on="1"/>
        <pt x="555" y="228" on="1"/>
      </contour>
      <contour>
        <pt x="64" y="-86" on="1"/>
        <pt x="139" y="-86" on="0"/>
        <pt x="194" y="65" on="1"/>
        <pt x="233" y="176" on="1"/>
        <pt x="123" y="176" on="0"/>
        <pt x="-6" y="72" on="0"/>
        <pt x="-6" y="-13" on="1"/>
        <pt x="-6" y="-48" on="0"/>
        <pt x="33" y="-86" on="0"/>
      </contour>
    </TTGlyph>
    <TTGlyph name="Aacute" xMin="-62" yMin="-128" xMax="821" yMax="1134">
      <contour>
        <pt x="821" y="212" on="0"/>
        <pt x="821" y="186" on="0"/>
        <pt x="812" y="177" on="1"/>
        <pt x="670" y="177" on="1"/>
        <pt x="727" y="-13" on="1"/>
        <pt x="729" y="-20" on="0"/>
        <pt x="729" y="-42" on="0"/>
        <pt x="701" y="-74" on="0"/>
        <pt x="686" y="-74" on="1"/>
        <pt x="658" y="-74" on="0"/>
        <pt x="642" y="-60" on="1"/>
        <pt x="571" y="177" on="1"/>
        <pt x="316" y="177" on="1"/>
        <pt x="266" y="41" on="1"/>
        <pt x="240" y="-28" on="0"/>
        <pt x="142" y="-128" on="0"/>
        <pt x="64" y="-128" on="1"/>
        <pt x="5" y="-128" on="0"/>
        <pt x="-62" y="-66" on="0"/>
        <pt x="-62" y="52" on="0"/>
        <pt x="-5" y="147" on="0"/>
        <pt x="42" y="174" on="1"/>
        <pt x="136" y="228" on="0"/>
        <pt x="252" y="228" on="1"/>
        <pt x="398" y="640" on="1"/>
        <pt x="408" y="669" on="0"/>
        <pt x="419" y="683" on="1"/>
        <pt x="388" y="787" on="0"/>
        <pt x="388" y="808" on="0"/>
        <pt x="417" y="835" on="0"/>
        <pt x="432" y="835" on="1"/>
        <pt x="461" y="835" on="0"/>
        <pt x="477" y="821" on="1"/>
        <pt x="654" y="228" on="1"/>
        <pt x="785" y="229" on="1"/>
        <pt x="802" y="229" on="0"/>
      </contour>
      <contour>
        <pt x="64" y="-86" on="1"/>
        <pt x="139" y="-86" on="0"/>
        <pt x="194" y="65" on="1"/>
        <pt x="233" y="176" on="1"/>
        <pt x="123" y="176" on="0"/>
        <pt x="-6" y="72" on="0"/>
        <pt x="-6" y="-13" on="1"/>
        <pt x="-6" y="-48" on="0"/>
        <pt x="33" y="-86" on="0"/>
      </contour>
      <contour>
        <pt x="457" y="606" on="1"/>
        <pt x="335" y="228" on="1"/>
        <pt x="555" y="228" on="1"/>
      </contour>
      <contour>
        <pt x="445" y="869" on="1"/>
        <pt x="431" y="869" on="0"/>
        <pt x="410" y="888" on="0"/>
        <pt x="403" y="907" on="1"/>
        <pt x="512" y="1101" on="1"/>
        <pt x="531" y="1134" on="0"/>
        <pt x="560" y="1134" on="1"/>
        <pt x="574" y="1134" on="0"/>
        <pt x="595" y="1115" on="0"/>
        <pt x="603" y="1096" on="1"/>
        <pt x="492" y="901" on="1"/>
        <pt x="473" y="869" on="0"/>
      </contour>
    </TTGlyph>
    <TTGlyph name="Acircumflex" xMin="-62" yMin="-128" xMax="821" yMax="1094">
      <component glyphName="A" x="0" y="0" flags="0x1004"/>
      <component glyphName="circumflex" x="293" y="346" flags="0x1004"/>
    </TTGlyph>
    <TTGlyph name="Adieresis" xMin="-62" yMin="-128" xMax="821" yMax="964">
      <component glyphName="A" x="0" y="0" flags="0x1004"/>
      <component glyphName="dieresis" x="222" y="330" flags="0x1004"/>
    </TTGlyph>
    <TTGlyph name="Agrave" xMin="-62" yMin="-128" xMax="821" yMax="1138">
      <component glyphName="A" x="0" y="0" flags="0x1004"/>
      <component glyphName="grave" x="295" y="348" flags="0x1004"/>
    </TTGlyph>
    <TTGlyph name="Aring" xMin="-62" yMin="-128" xMax="821" yMax="1080">
      <component glyphName="A" x="0" y="0" flags="0x1004"/>
      <component glyphName="ring" x="251" y="319" flags="0x1004"/>
    </TTGlyph>
    <TTGlyph name="Atilde" xMin="-62" yMin="-128" xMax="821" yMax="995">
      <contour>
        <pt x="821" y="212" on="0"/>
        <pt x="821" y="186" on="0"/>
        <pt x="812" y="177" on="1"/>
        <pt x="670" y="177" on="1"/>
        <pt x="727" y="-13" on="1"/>
        <pt x="729" y="-20" on="0"/>
        <pt x="729" y="-42" on="0"/>
        <pt x="701" y="-74" on="0"/>
        <pt x="686" y="-74" on="1"/>
        <pt x="658" y="-74" on="0"/>
        <pt x="642" y="-60" on="1"/>
        <pt x="571" y="177" on="1"/>
        <pt x="316" y="177" on="1"/>
        <pt x="266" y="41" on="1"/>
        <pt x="240" y="-28" on="0"/>
        <pt x="142" y="-128" on="0"/>
        <pt x="64" y="-128" on="1"/>
        <pt x="5" y="-128" on="0"/>
        <pt x="-62" y="-66" on="0"/>
        <pt x="-62" y="52" on="0"/>
        <pt x="-5" y="147" on="0"/>
        <pt x="42" y="174" on="1"/>
        <pt x="136" y="228" on="0"/>
        <pt x="252" y="228" on="1"/>
        <pt x="398" y="640" on="1"/>
        <pt x="408" y="669" on="0"/>
        <pt x="419" y="683" on="1"/>
        <pt x="388" y="787" on="0"/>
        <pt x="388" y="808" on="0"/>
        <pt x="417" y="835" on="0"/>
        <pt x="432" y="835" on="1"/>
        <pt x="461" y="835" on="0"/>
        <pt x="477" y="821" on="1"/>
        <pt x="654" y="228" on="1"/>
        <pt x="785" y="229" on="1"/>
        <pt x="802" y="229" on="0"/>
      </contour>
      <contour>
        <pt x="64" y="-86" on="1"/>
        <pt x="139" y="-86" on="0"/>
        <pt x="194" y="65" on="1"/>
        <pt x="233" y="176" on="1"/>
        <pt x="123" y="176" on="0"/>
        <pt x="-6" y="72" on="0"/>
        <pt x="-6" y="-13" on="1"/>
        <pt x="-6" y="-48" on="0"/>
        <pt x="33" y="-86" on="0"/>
      </contour>
      <contour>
        <pt x="457" y="606" on="1"/>
        <pt x="335" y="228" on="1"/>
        <pt x="555" y="228" on="1"/>
      </contour>
      <contour>
        <pt x="603" y="917" on="0"/>
        <pt x="547" y="874" on="0"/>
        <pt x="476" y="874" on="0"/>
        <pt x="375" y="933" on="0"/>
        <pt x="351" y="933" on="1"/>
        <pt x="296" y="933" on="0"/>
        <pt x="296" y="862" on="1"/>
        <pt x="281" y="862" on="0"/>
        <pt x="259" y="885" on="0"/>
        <pt x="259" y="905" on="1"/>
        <pt x="259" y="944" on="0"/>
        <pt x="315" y="993" on="0"/>
        <pt x="392" y="993" on="0"/>
        <pt x="489" y="934" on="0"/>
        <pt x="537" y="934" on="0"/>
        <pt x="566" y="966" on="0"/>
        <pt x="566" y="995" on="1"/>
        <pt x="581" y="995" on="0"/>
        <pt x="603" y="970" on="0"/>
        <pt x="603" y="952" on="1"/>
      </contour>
    </TTGlyph>
    <TTGlyph name="B" xMin="-57" yMin="-53" xMax="637" yMax="828">
      <contour>
        <pt x="229" y="746" on="1"/>
        <pt x="259" y="747" on="1"/>
        <pt x="408" y="747" on="0"/>
        <pt x="590" y="645" on="0"/>
        <pt x="590" y="551" on="1"/>
        <pt x="590" y="481" on="0"/>
        <pt x="555" y="439" on="1"/>
        <pt x="525" y="402" on="0"/>
        <pt x="501" y="390" on="1"/>
        <pt x="491" y="384" on="1"/>
        <pt x="508" y="381" on="0"/>
        <pt x="567" y="348" on="0"/>
        <pt x="605" y="309" on="0"/>
        <pt x="637" y="235" on="0"/>
        <pt x="637" y="190" on="1"/>
        <pt x="637" y="71" on="0"/>
        <pt x="437" y="-53" on="0"/>
        <pt x="248" y="-53" on="1"/>
        <pt x="112" y="-53" on="0"/>
        <pt x="-57" y="79" on="0"/>
        <pt x="-57" y="163" on="1"/>
        <pt x="-57" y="177" on="0"/>
        <pt x="-40" y="195" on="0"/>
        <pt x="-17" y="195" on="0"/>
        <pt x="-11" y="189" on="1"/>
        <pt x="-11" y="127" on="0"/>
        <pt x="71" y="35" on="0"/>
        <pt x="139" y="13" on="1"/>
        <pt x="139" y="667" on="1"/>
        <pt x="95" y="647" on="0"/>
        <pt x="41" y="592" on="0"/>
        <pt x="41" y="542" on="0"/>
        <pt x="47" y="524" on="1"/>
        <pt x="41" y="512" on="0"/>
        <pt x="-1" y="512" on="0"/>
        <pt x="-31" y="542" on="0"/>
        <pt x="-31" y="567" on="1"/>
        <pt x="-31" y="614" on="0"/>
        <pt x="63" y="706" on="0"/>
        <pt x="139" y="729" on="1"/>
        <pt x="139" y="767" on="1"/>
        <pt x="139" y="797" on="0"/>
        <pt x="169" y="828" on="0"/>
        <pt x="213" y="828" on="0"/>
        <pt x="229" y="814" on="1"/>
      </contour>
      <contour>
        <pt x="248" y="-3" on="1"/>
        <pt x="397" y="-3" on="0"/>
        <pt x="545" y="91" on="0"/>
        <pt x="545" y="190" on="1"/>
        <pt x="545" y="360" on="0"/>
        <pt x="317" y="360" on="1"/>
        <pt x="307" y="360" on="0"/>
        <pt x="293" y="378" on="0"/>
        <pt x="293" y="393" on="1"/>
        <pt x="293" y="412" on="0"/>
        <pt x="317" y="412" on="1"/>
        <pt x="429" y="412" on="0"/>
        <pt x="467" y="458" on="1"/>
        <pt x="498" y="495" on="0"/>
        <pt x="498" y="551" on="1"/>
        <pt x="498" y="622" on="0"/>
        <pt x="367" y="697" on="0"/>
        <pt x="264" y="698" on="1"/>
        <pt x="245" y="698" on="0"/>
        <pt x="233" y="695" on="1"/>
        <pt x="233" y="-3" on="1"/>
      </contour>
    </TTGlyph>
    <TTGlyph name="C" xMin="68" yMin="-54" xMax="706" yMax="737">
      <contour>
        <pt x="660" y="228" on="1"/>
        <pt x="665" y="234" on="0"/>
        <pt x="690" y="234" on="0"/>
        <pt x="706" y="216" on="0"/>
        <pt x="706" y="166" on="0"/>
        <pt x="673" y="83" on="0"/>
        <pt x="609" y="0" on="0"/>
        <pt x="496" y="-54" on="0"/>
        <pt x="426" y="-54" on="1"/>
        <pt x="264" y="-54" on="0"/>
        <pt x="68" y="155" on="0"/>
        <pt x="68" y="542" on="0"/>
        <pt x="253" y="737" on="0"/>
        <pt x="403" y="737" on="1"/>
        <pt x="500" y="737" on="0"/>
        <pt x="610" y="637" on="0"/>
        <pt x="610" y="576" on="1"/>
        <pt x="610" y="551" on="0"/>
        <pt x="580" y="521" on="0"/>
        <pt x="565" y="521" on="1"/>
        <pt x="537" y="521" on="0"/>
        <pt x="527" y="533" on="1"/>
        <pt x="533" y="548" on="0"/>
        <pt x="533" y="570" on="1"/>
        <pt x="533" y="624" on="0"/>
        <pt x="464" y="688" on="0"/>
        <pt x="398" y="688" on="1"/>
        <pt x="299" y="688" on="0"/>
        <pt x="160" y="499" on="0"/>
        <pt x="160" y="187" on="0"/>
        <pt x="314" y="-4" on="0"/>
        <pt x="530" y="-4" on="0"/>
        <pt x="660" y="127" on="0"/>
      </contour>
    </TTGlyph>
    <TTGlyph name="Ccedilla" xMin="68" yMin="-263" xMax="706" yMax="737">
      <contour>
        <pt x="376" y="-197" on="1"/>
        <pt x="402" y="-199" on="1"/>
        <pt x="454" y="-199" on="0"/>
        <pt x="454" y="-164" on="1"/>
        <pt x="454" y="-147" on="0"/>
        <pt x="424" y="-118" on="0"/>
        <pt x="389" y="-79" on="0"/>
        <pt x="385" y="-52" on="1"/>
        <pt x="239" y="-39" on="0"/>
        <pt x="68" y="168" on="0"/>
        <pt x="68" y="542" on="0"/>
        <pt x="253" y="737" on="0"/>
        <pt x="403" y="737" on="1"/>
        <pt x="500" y="737" on="0"/>
        <pt x="610" y="637" on="0"/>
        <pt x="610" y="576" on="1"/>
        <pt x="610" y="551" on="0"/>
        <pt x="580" y="521" on="0"/>
        <pt x="565" y="521" on="1"/>
        <pt x="537" y="521" on="0"/>
        <pt x="527" y="533" on="1"/>
        <pt x="533" y="548" on="0"/>
        <pt x="533" y="570" on="1"/>
        <pt x="533" y="624" on="0"/>
        <pt x="464" y="688" on="0"/>
        <pt x="398" y="688" on="1"/>
        <pt x="299" y="688" on="0"/>
        <pt x="160" y="499" on="0"/>
        <pt x="160" y="187" on="0"/>
        <pt x="314" y="-4" on="0"/>
        <pt x="530" y="-4" on="0"/>
        <pt x="660" y="127" on="0"/>
        <pt x="660" y="228" on="1"/>
        <pt x="665" y="234" on="0"/>
        <pt x="690" y="234" on="0"/>
        <pt x="706" y="216" on="0"/>
        <pt x="706" y="166" on="0"/>
        <pt x="673" y="83" on="0"/>
        <pt x="609" y="1" on="0"/>
        <pt x="497" y="-54" on="0"/>
        <pt x="427" y="-54" on="1"/>
        <pt x="434" y="-66" on="0"/>
        <pt x="480" y="-92" on="0"/>
        <pt x="515" y="-130" on="0"/>
        <pt x="515" y="-207" on="0"/>
        <pt x="449" y="-263" on="0"/>
        <pt x="408" y="-263" on="1"/>
        <pt x="385" y="-263" on="0"/>
        <pt x="361" y="-241" on="0"/>
        <pt x="361" y="-208" on="0"/>
      </contour>
    </TTGlyph>
    <TTGlyph name="D" xMin="-37" yMin="-43" xMax="641" yMax="828">
      <contour>
        <pt x="-37" y="167" on="0"/>
        <pt x="-20" y="185" on="0"/>
        <pt x="3" y="185" on="0"/>
        <pt x="9" y="179" on="1"/>
        <pt x="9" y="124" on="0"/>
        <pt x="80" y="44" on="0"/>
        <pt x="139" y="24" on="1"/>
        <pt x="139" y="668" on="1"/>
        <pt x="41" y="643" on="0"/>
        <pt x="41" y="586" on="1"/>
        <pt x="41" y="567" on="0"/>
        <pt x="47" y="549" on="1"/>
        <pt x="41" y="537" on="0"/>
        <pt x="-1" y="537" on="0"/>
        <pt x="-31" y="567" on="0"/>
        <pt x="-31" y="592" on="1"/>
        <pt x="-31" y="637" on="0"/>
        <pt x="60" y="705" on="0"/>
        <pt x="139" y="721" on="1"/>
        <pt x="139" y="767" on="1"/>
        <pt x="139" y="797" on="0"/>
        <pt x="169" y="828" on="0"/>
        <pt x="213" y="828" on="0"/>
        <pt x="229" y="814" on="1"/>
        <pt x="229" y="731" on="1"/>
        <pt x="239" y="732" on="0"/>
        <pt x="259" y="732" on="1"/>
        <pt x="425" y="732" on="0"/>
        <pt x="530" y="638" on="1"/>
        <pt x="582" y="590" on="0"/>
        <pt x="641" y="431" on="0"/>
        <pt x="641" y="326" on="1"/>
        <pt x="641" y="144" on="0"/>
        <pt x="426" y="-43" on="0"/>
        <pt x="248" y="-43" on="1"/>
        <pt x="113" y="-43" on="0"/>
        <pt x="-37" y="75" on="0"/>
        <pt x="-37" y="153" on="1"/>
      </contour>
      <contour>
        <pt x="264" y="683" on="1"/>
        <pt x="233" y="682" on="1"/>
        <pt x="233" y="7" on="1"/>
        <pt x="248" y="7" on="1"/>
        <pt x="385" y="7" on="0"/>
        <pt x="549" y="159" on="0"/>
        <pt x="549" y="498" on="0"/>
        <pt x="395" y="683" on="0"/>
      </contour>
    </TTGlyph>
    <TTGlyph name="E" xMin="-39" yMin="-56" xMax="566" yMax="750">
      <contour>
        <pt x="547" y="268" on="1"/>
        <pt x="566" y="268" on="0"/>
        <pt x="566" y="235" on="1"/>
        <pt x="566" y="124" on="0"/>
        <pt x="492" y="38" on="1"/>
        <pt x="456" y="-4" on="0"/>
        <pt x="338" y="-56" on="0"/>
        <pt x="266" y="-56" on="1"/>
        <pt x="136" y="-56" on="0"/>
        <pt x="-39" y="66" on="0"/>
        <pt x="-39" y="176" on="1"/>
        <pt x="-39" y="225" on="0"/>
        <pt x="-9" y="301" on="0"/>
        <pt x="32" y="343" on="0"/>
        <pt x="58" y="357" on="1"/>
        <pt x="102" y="380" on="0"/>
        <pt x="141" y="380" on="1"/>
        <pt x="87" y="388" on="0"/>
        <pt x="48" y="428" on="1"/>
        <pt x="30" y="445" on="0"/>
        <pt x="3" y="513" on="0"/>
        <pt x="3" y="557" on="1"/>
        <pt x="3" y="651" on="0"/>
        <pt x="135" y="750" on="0"/>
        <pt x="354" y="750" on="0"/>
        <pt x="465" y="661" on="0"/>
        <pt x="465" y="599" on="1"/>
        <pt x="465" y="574" on="0"/>
        <pt x="435" y="544" on="0"/>
        <pt x="420" y="544" on="1"/>
        <pt x="395" y="544" on="0"/>
        <pt x="387" y="556" on="1"/>
        <pt x="393" y="571" on="0"/>
        <pt x="393" y="593" on="1"/>
        <pt x="393" y="647" on="0"/>
        <pt x="311" y="701" on="0"/>
        <pt x="179" y="701" on="0"/>
        <pt x="95" y="628" on="0"/>
        <pt x="95" y="557" on="1"/>
        <pt x="95" y="408" on="0"/>
        <pt x="296" y="408" on="1"/>
        <pt x="307" y="408" on="0"/>
        <pt x="326" y="395" on="0"/>
        <pt x="326" y="382" on="1"/>
        <pt x="326" y="356" on="0"/>
        <pt x="296" y="356" on="1"/>
        <pt x="189" y="356" on="0"/>
        <pt x="53" y="268" on="0"/>
        <pt x="53" y="85" on="0"/>
        <pt x="170" y="-6" on="0"/>
        <pt x="375" y="-6" on="0"/>
        <pt x="530" y="142" on="0"/>
        <pt x="530" y="261" on="1"/>
        <pt x="532" y="268" on="0"/>
      </contour>
    </TTGlyph>
    <TTGlyph name="Eacute" xMin="-39" yMin="-56" xMax="566" yMax="1060">
      <contour>
        <pt x="547" y="268" on="1"/>
        <pt x="566" y="268" on="0"/>
        <pt x="566" y="235" on="1"/>
        <pt x="566" y="124" on="0"/>
        <pt x="492" y="38" on="1"/>
        <pt x="456" y="-4" on="0"/>
        <pt x="338" y="-56" on="0"/>
        <pt x="266" y="-56" on="1"/>
        <pt x="136" y="-56" on="0"/>
        <pt x="-39" y="66" on="0"/>
        <pt x="-39" y="176" on="1"/>
        <pt x="-39" y="225" on="0"/>
        <pt x="-9" y="301" on="0"/>
        <pt x="32" y="343" on="0"/>
        <pt x="58" y="357" on="1"/>
        <pt x="102" y="380" on="0"/>
        <pt x="141" y="380" on="1"/>
        <pt x="87" y="388" on="0"/>
        <pt x="48" y="428" on="1"/>
        <pt x="30" y="445" on="0"/>
        <pt x="3" y="513" on="0"/>
        <pt x="3" y="557" on="1"/>
        <pt x="3" y="651" on="0"/>
        <pt x="135" y="750" on="0"/>
        <pt x="354" y="750" on="0"/>
        <pt x="465" y="661" on="0"/>
        <pt x="465" y="599" on="1"/>
        <pt x="465" y="574" on="0"/>
        <pt x="435" y="544" on="0"/>
        <pt x="420" y="544" on="1"/>
        <pt x="395" y="544" on="0"/>
        <pt x="387" y="556" on="1"/>
        <pt x="393" y="571" on="0"/>
        <pt x="393" y="593" on="1"/>
        <pt x="393" y="647" on="0"/>
        <pt x="311" y="701" on="0"/>
        <pt x="179" y="701" on="0"/>
        <pt x="95" y="628" on="0"/>
        <pt x="95" y="557" on="1"/>
        <pt x="95" y="408" on="0"/>
        <pt x="296" y="408" on="1"/>
        <pt x="307" y="408" on="0"/>
        <pt x="326" y="395" on="0"/>
        <pt x="326" y="382" on="1"/>
        <pt x="326" y="356" on="0"/>
        <pt x="296" y="356" on="1"/>
        <pt x="189" y="356" on="0"/>
        <pt x="53" y="268" on="0"/>
        <pt x="53" y="85" on="0"/>
        <pt x="170" y="-6" on="0"/>
        <pt x="375" y="-6" on="0"/>
        <pt x="530" y="142" on="0"/>
        <pt x="530" y="261" on="1"/>
        <pt x="532" y="268" on="0"/>
      </contour>
      <contour>
        <pt x="266" y="795" on="1"/>
        <pt x="252" y="795" on="0"/>
        <pt x="231" y="814" on="0"/>
        <pt x="224" y="833" on="1"/>
        <pt x="333" y="1027" on="1"/>
        <pt x="352" y="1060" on="0"/>
        <pt x="381" y="1060" on="1"/>
        <pt x="395" y="1060" on="0"/>
        <pt x="416" y="1041" on="0"/>
        <pt x="424" y="1022" on="1"/>
        <pt x="313" y="827" on="1"/>
        <pt x="294" y="795" on="0"/>
      </contour>
    </TTGlyph>
    <TTGlyph name="Ecircumflex" xMin="-39" yMin="-56" xMax="566" yMax="1026">
      <component glyphName="E" x="0" y="0" flags="0x1004"/>
      <component glyphName="circumflex" x="123" y="278" flags="0x1004"/>
    </TTGlyph>
    <TTGlyph name="Edieresis" xMin="-39" yMin="-56" xMax="566" yMax="896">
      <contour>
        <pt x="547" y="268" on="1"/>
        <pt x="566" y="268" on="0"/>
        <pt x="566" y="235" on="1"/>
        <pt x="566" y="124" on="0"/>
        <pt x="492" y="38" on="1"/>
        <pt x="456" y="-4" on="0"/>
        <pt x="338" y="-56" on="0"/>
        <pt x="266" y="-56" on="1"/>
        <pt x="136" y="-56" on="0"/>
        <pt x="-39" y="66" on="0"/>
        <pt x="-39" y="176" on="1"/>
        <pt x="-39" y="225" on="0"/>
        <pt x="-9" y="301" on="0"/>
        <pt x="32" y="343" on="0"/>
        <pt x="58" y="357" on="1"/>
        <pt x="102" y="380" on="0"/>
        <pt x="141" y="380" on="1"/>
        <pt x="87" y="388" on="0"/>
        <pt x="48" y="428" on="1"/>
        <pt x="30" y="445" on="0"/>
        <pt x="3" y="513" on="0"/>
        <pt x="3" y="557" on="1"/>
        <pt x="3" y="651" on="0"/>
        <pt x="135" y="750" on="0"/>
        <pt x="354" y="750" on="0"/>
        <pt x="465" y="661" on="0"/>
        <pt x="465" y="599" on="1"/>
        <pt x="465" y="574" on="0"/>
        <pt x="435" y="544" on="0"/>
        <pt x="420" y="544" on="1"/>
        <pt x="395" y="544" on="0"/>
        <pt x="387" y="556" on="1"/>
        <pt x="393" y="571" on="0"/>
        <pt x="393" y="593" on="1"/>
        <pt x="393" y="647" on="0"/>
        <pt x="311" y="701" on="0"/>
        <pt x="179" y="701" on="0"/>
        <pt x="95" y="628" on="0"/>
        <pt x="95" y="557" on="1"/>
        <pt x="95" y="408" on="0"/>
        <pt x="296" y="408" on="1"/>
        <pt x="307" y="408" on="0"/>
        <pt x="326" y="395" on="0"/>
        <pt x="326" y="382" on="1"/>
        <pt x="326" y="356" on="0"/>
        <pt x="296" y="356" on="1"/>
        <pt x="189" y="356" on="0"/>
        <pt x="53" y="268" on="0"/>
        <pt x="53" y="85" on="0"/>
        <pt x="170" y="-6" on="0"/>
        <pt x="375" y="-6" on="0"/>
        <pt x="530" y="142" on="0"/>
        <pt x="530" y="261" on="1"/>
        <pt x="532" y="268" on="0"/>
      </contour>
      <contour>
        <pt x="142" y="828" on="0"/>
        <pt x="142" y="868" on="0"/>
        <pt x="169" y="896" on="0"/>
        <pt x="209" y="896" on="0"/>
        <pt x="237" y="868" on="0"/>
        <pt x="237" y="828" on="0"/>
        <pt x="209" y="801" on="0"/>
        <pt x="170" y="801" on="0"/>
      </contour>
      <contour>
        <pt x="291" y="828" on="0"/>
        <pt x="291" y="868" on="0"/>
        <pt x="318" y="896" on="0"/>
        <pt x="358" y="896" on="0"/>
        <pt x="386" y="868" on="0"/>
        <pt x="386" y="828" on="0"/>
        <pt x="358" y="801" on="0"/>
        <pt x="318" y="801" on="0"/>
      </contour>
    </TTGlyph>
    <TTGlyph name="Egrave" xMin="-39" yMin="-56" xMax="566" yMax="1064">
      <component glyphName="E" x="0" y="0" flags="0x1004"/>
      <component glyphName="grave" x="88" y="274" flags="0x1004"/>
    </TTGlyph>
    <TTGlyph name="Eth" xMin="-37" yMin="-23" xMax="641" yMax="828">
      <contour>
        <pt x="-37" y="187" on="0"/>
        <pt x="-20" y="205" on="0"/>
        <pt x="3" y="205" on="0"/>
        <pt x="9" y="199" on="1"/>
        <pt x="9" y="144" on="0"/>
        <pt x="80" y="64" on="0"/>
        <pt x="139" y="44" on="1"/>
        <pt x="139" y="643" on="1"/>
        <pt x="41" y="618" on="0"/>
        <pt x="41" y="561" on="1"/>
        <pt x="41" y="542" on="0"/>
        <pt x="47" y="524" on="1"/>
        <pt x="41" y="512" on="0"/>
        <pt x="-1" y="512" on="0"/>
        <pt x="-31" y="542" on="0"/>
        <pt x="-31" y="567" on="1"/>
        <pt x="-31" y="612" on="0"/>
        <pt x="60" y="680" on="0"/>
        <pt x="139" y="696" on="1"/>
        <pt x="139" y="767" on="1"/>
        <pt x="139" y="797" on="0"/>
        <pt x="169" y="828" on="0"/>
        <pt x="213" y="828" on="0"/>
        <pt x="229" y="814" on="1"/>
        <pt x="229" y="706" on="1"/>
        <pt x="239" y="707" on="0"/>
        <pt x="259" y="707" on="1"/>
        <pt x="424" y="707" on="0"/>
        <pt x="530" y="621" on="1"/>
        <pt x="582" y="578" on="0"/>
        <pt x="641" y="435" on="0"/>
        <pt x="641" y="341" on="1"/>
        <pt x="641" y="161" on="0"/>
        <pt x="426" y="-23" on="0"/>
        <pt x="248" y="-23" on="1"/>
        <pt x="113" y="-23" on="0"/>
        <pt x="-37" y="95" on="0"/>
        <pt x="-37" y="173" on="1"/>
      </contour>
      <contour>
        <pt x="419" y="380" on="0"/>
        <pt x="438" y="363" on="0"/>
        <pt x="438" y="335" on="0"/>
        <pt x="429" y="328" on="1"/>
        <pt x="231" y="328" on="1"/>
        <pt x="233" y="27" on="1"/>
        <pt x="549" y="27" on="0"/>
        <pt x="549" y="341" on="1"/>
        <pt x="549" y="495" on="0"/>
        <pt x="395" y="658" on="0"/>
        <pt x="264" y="658" on="1"/>
        <pt x="230" y="657" on="1"/>
        <pt x="231" y="379" on="1"/>
        <pt x="402" y="380" on="1"/>
      </contour>
    </TTGlyph>
    <TTGlyph name="Euro" xMin="-82" yMin="-13" xMax="542" yMax="703">
      <contour>
        <pt x="-74" y="223" on="1"/>
        <pt x="-74" y="251" on="0"/>
        <pt x="-38" y="251" on="1"/>
        <pt x="7" y="251" on="1"/>
        <pt x="-2" y="299" on="0"/>
        <pt x="-2" y="380" on="0"/>
        <pt x="1" y="407" on="1"/>
        <pt x="-73" y="407" on="1"/>
        <pt x="-82" y="413" on="0"/>
        <pt x="-82" y="429" on="1"/>
        <pt x="-82" y="457" on="0"/>
        <pt x="-46" y="457" on="1"/>
        <pt x="10" y="457" on="1"/>
        <pt x="37" y="568" on="0"/>
        <pt x="195" y="703" on="0"/>
        <pt x="306" y="703" on="1"/>
        <pt x="392" y="703" on="0"/>
        <pt x="454" y="666" on="1"/>
        <pt x="507" y="633" on="0"/>
        <pt x="526" y="608" on="1"/>
        <pt x="535" y="597" on="1"/>
        <pt x="542" y="590" on="0"/>
        <pt x="542" y="571" on="0"/>
        <pt x="522" y="554" on="0"/>
        <pt x="502" y="554" on="0"/>
        <pt x="491" y="567" on="0"/>
        <pt x="479" y="579" on="0"/>
        <pt x="440" y="610" on="0"/>
        <pt x="420" y="622" on="1"/>
        <pt x="367" y="653" on="0"/>
        <pt x="230" y="653" on="0"/>
        <pt x="122" y="546" on="0"/>
        <pt x="101" y="456" on="1"/>
        <pt x="287" y="456" on="1"/>
        <pt x="296" y="450" on="0"/>
        <pt x="296" y="434" on="1"/>
        <pt x="296" y="405" on="0"/>
        <pt x="260" y="405" on="1"/>
        <pt x="93" y="405" on="1"/>
        <pt x="90" y="380" on="0"/>
        <pt x="90" y="294" on="0"/>
        <pt x="98" y="250" on="1"/>
        <pt x="287" y="250" on="1"/>
        <pt x="296" y="244" on="0"/>
        <pt x="296" y="228" on="1"/>
        <pt x="296" y="199" on="0"/>
        <pt x="260" y="199" on="1"/>
        <pt x="110" y="199" on="1"/>
        <pt x="133" y="118" on="0"/>
        <pt x="233" y="27" on="0"/>
        <pt x="306" y="27" on="1"/>
        <pt x="355" y="27" on="0"/>
        <pt x="444" y="67" on="0"/>
        <pt x="464" y="87" on="1"/>
        <pt x="483" y="107" on="1"/>
        <pt x="500" y="124" on="0"/>
        <pt x="519" y="109" on="1"/>
        <pt x="528" y="100" on="0"/>
        <pt x="528" y="84" on="0"/>
        <pt x="516" y="71" on="0"/>
        <pt x="506" y="60" on="0"/>
        <pt x="468" y="29" on="0"/>
        <pt x="446" y="18" on="1"/>
        <pt x="386" y="-13" on="0"/>
        <pt x="306" y="-13" on="1"/>
        <pt x="203" y="-13" on="0"/>
        <pt x="53" y="100" on="0"/>
        <pt x="20" y="200" on="1"/>
        <pt x="-65" y="200" on="1"/>
        <pt x="-74" y="207" on="0"/>
      </contour>
    </TTGlyph>
    <TTGlyph name="F" xMin="129" yMin="-128" xMax="703" yMax="700">
      <contour>
        <pt x="163" y="361" on="1"/>
        <pt x="163" y="374" on="0"/>
        <pt x="172" y="383" on="1"/>
        <pt x="246" y="383" on="1"/>
        <pt x="246" y="648" on="1"/>
        <pt x="165" y="648" on="1"/>
        <pt x="129" y="648" on="0"/>
        <pt x="129" y="677" on="1"/>
        <pt x="129" y="690" on="0"/>
        <pt x="138" y="699" on="1"/>
        <pt x="667" y="700" on="1"/>
        <pt x="684" y="700" on="0"/>
        <pt x="703" y="683" on="0"/>
        <pt x="703" y="657" on="0"/>
        <pt x="694" y="648" on="1"/>
        <pt x="336" y="648" on="1"/>
        <pt x="336" y="384" on="1"/>
        <pt x="557" y="384" on="1"/>
        <pt x="574" y="384" on="0"/>
        <pt x="593" y="367" on="0"/>
        <pt x="593" y="341" on="0"/>
        <pt x="584" y="332" on="1"/>
        <pt x="336" y="332" on="1"/>
        <pt x="336" y="121" on="1"/>
        <pt x="336" y="-8" on="0"/>
        <pt x="282" y="-128" on="0"/>
        <pt x="210" y="-128" on="1"/>
        <pt x="172" y="-128" on="0"/>
        <pt x="130" y="-64" on="0"/>
        <pt x="130" y="-5" on="1"/>
        <pt x="130" y="106" on="0"/>
        <pt x="246" y="217" on="1"/>
        <pt x="246" y="332" on="1"/>
        <pt x="199" y="332" on="1"/>
        <pt x="163" y="332" on="0"/>
      </contour>
      <contour>
        <pt x="209" y="-89" on="1"/>
        <pt x="230" y="-89" on="0"/>
        <pt x="245" y="-6" on="0"/>
        <pt x="246" y="113" on="1"/>
        <pt x="246" y="171" on="1"/>
        <pt x="173" y="82" on="0"/>
        <pt x="173" y="-89" on="0"/>
      </contour>
    </TTGlyph>
    <TTGlyph name="G" xMin="-35" yMin="-396" xMax="535" yMax="708">
      <contour>
        <pt x="445" y="232" on="0"/>
        <pt x="475" y="263" on="0"/>
        <pt x="519" y="263" on="0"/>
        <pt x="535" y="249" on="1"/>
        <pt x="535" y="-147" on="1"/>
        <pt x="535" y="-272" on="0"/>
        <pt x="459" y="-396" on="0"/>
        <pt x="376" y="-396" on="1"/>
        <pt x="326" y="-396" on="0"/>
        <pt x="270" y="-332" on="0"/>
        <pt x="270" y="-273" on="1"/>
        <pt x="270" y="-178" on="0"/>
        <pt x="373" y="-60" on="0"/>
        <pt x="445" y="-46" on="1"/>
        <pt x="445" y="-18" on="1"/>
        <pt x="381" y="-43" on="0"/>
        <pt x="298" y="-43" on="1"/>
        <pt x="147" y="-43" on="0"/>
        <pt x="-35" y="144" on="0"/>
        <pt x="-35" y="513" on="0"/>
        <pt x="150" y="708" on="0"/>
        <pt x="300" y="708" on="1"/>
        <pt x="408" y="708" on="0"/>
        <pt x="532" y="608" on="0"/>
        <pt x="532" y="547" on="1"/>
        <pt x="532" y="522" on="0"/>
        <pt x="502" y="492" on="0"/>
        <pt x="487" y="492" on="1"/>
        <pt x="459" y="492" on="0"/>
        <pt x="449" y="504" on="1"/>
        <pt x="455" y="519" on="0"/>
        <pt x="455" y="541" on="1"/>
        <pt x="455" y="595" on="0"/>
        <pt x="372" y="659" on="0"/>
        <pt x="295" y="659" on="1"/>
        <pt x="196" y="659" on="0"/>
        <pt x="57" y="470" on="0"/>
        <pt x="57" y="176" on="0"/>
        <pt x="197" y="7" on="0"/>
        <pt x="298" y="7" on="1"/>
        <pt x="380" y="7" on="0"/>
        <pt x="445" y="37" on="1"/>
        <pt x="445" y="202" on="1"/>
      </contour>
      <contour>
        <pt x="316" y="-314" on="0"/>
        <pt x="349" y="-354" on="0"/>
        <pt x="411" y="-354" on="0"/>
        <pt x="445" y="-265" on="0"/>
        <pt x="445" y="-147" on="1"/>
        <pt x="445" y="-98" on="1"/>
        <pt x="388" y="-111" on="0"/>
        <pt x="316" y="-204" on="0"/>
        <pt x="316" y="-276" on="1"/>
      </contour>
    </TTGlyph>
    <TTGlyph name="H" xMin="58" yMin="-128" xMax="831" yMax="789">
      <contour>
        <pt x="616" y="758" on="0"/>
        <pt x="646" y="789" on="0"/>
        <pt x="690" y="789" on="0"/>
        <pt x="706" y="775" on="1"/>
        <pt x="706" y="229" on="1"/>
        <pt x="795" y="229" on="1"/>
        <pt x="812" y="229" on="0"/>
        <pt x="831" y="212" on="0"/>
        <pt x="831" y="186" on="0"/>
        <pt x="822" y="177" on="1"/>
        <pt x="706" y="177" on="1"/>
        <pt x="706" y="-13" on="1"/>
        <pt x="706" y="-43" on="0"/>
        <pt x="676" y="-74" on="0"/>
        <pt x="632" y="-74" on="0"/>
        <pt x="616" y="-60" on="1"/>
        <pt x="616" y="177" on="1"/>
        <pt x="323" y="177" on="1"/>
        <pt x="323" y="121" on="1"/>
        <pt x="323" y="-4" on="0"/>
        <pt x="247" y="-128" on="0"/>
        <pt x="164" y="-128" on="1"/>
        <pt x="114" y="-128" on="0"/>
        <pt x="58" y="-64" on="0"/>
        <pt x="58" y="-5" on="1"/>
        <pt x="58" y="89" on="0"/>
        <pt x="161" y="207" on="0"/>
        <pt x="233" y="221" on="1"/>
        <pt x="233" y="640" on="1"/>
        <pt x="233" y="670" on="0"/>
        <pt x="263" y="701" on="0"/>
        <pt x="307" y="701" on="0"/>
        <pt x="323" y="687" on="1"/>
        <pt x="323" y="228" on="1"/>
        <pt x="616" y="228" on="1"/>
        <pt x="616" y="728" on="1"/>
      </contour>
      <contour>
        <pt x="104" y="-46" on="0"/>
        <pt x="137" y="-86" on="0"/>
        <pt x="198" y="-86" on="0"/>
        <pt x="232" y="0" on="0"/>
        <pt x="233" y="113" on="1"/>
        <pt x="233" y="169" on="1"/>
        <pt x="176" y="156" on="0"/>
        <pt x="104" y="64" on="0"/>
        <pt x="104" y="-8" on="1"/>
      </contour>
    </TTGlyph>
    <TTGlyph name="I" xMin="53" yMin="0" xMax="367" yMax="700">
      <contour>
        <pt x="367" y="35" on="0"/>
        <pt x="367" y="9" on="0"/>
        <pt x="358" y="0" on="1"/>
        <pt x="89" y="0" on="1"/>
        <pt x="53" y="0" on="0"/>
        <pt x="53" y="29" on="1"/>
        <pt x="53" y="42" on="0"/>
        <pt x="62" y="51" on="1"/>
        <pt x="170" y="52" on="1"/>
        <pt x="170" y="648" on="1"/>
        <pt x="89" y="648" on="1"/>
        <pt x="53" y="648" on="0"/>
        <pt x="53" y="677" on="1"/>
        <pt x="53" y="689" on="0"/>
        <pt x="62" y="700" on="1"/>
        <pt x="331" y="700" on="1"/>
        <pt x="348" y="700" on="0"/>
        <pt x="367" y="683" on="0"/>
        <pt x="367" y="657" on="0"/>
        <pt x="358" y="648" on="1"/>
        <pt x="260" y="648" on="1"/>
        <pt x="260" y="52" on="1"/>
        <pt x="331" y="52" on="1"/>
        <pt x="348" y="52" on="0"/>
      </contour>
    </TTGlyph>
    <TTGlyph name="Iacute" xMin="53" yMin="0" xMax="372" yMax="1052">
      <contour>
        <pt x="367" y="35" on="0"/>
        <pt x="367" y="9" on="0"/>
        <pt x="358" y="0" on="1"/>
        <pt x="89" y="0" on="1"/>
        <pt x="53" y="0" on="0"/>
        <pt x="53" y="29" on="1"/>
        <pt x="53" y="42" on="0"/>
        <pt x="62" y="51" on="1"/>
        <pt x="170" y="52" on="1"/>
        <pt x="170" y="648" on="1"/>
        <pt x="89" y="648" on="1"/>
        <pt x="53" y="648" on="0"/>
        <pt x="53" y="677" on="1"/>
        <pt x="53" y="689" on="0"/>
        <pt x="62" y="700" on="1"/>
        <pt x="331" y="700" on="1"/>
        <pt x="348" y="700" on="0"/>
        <pt x="367" y="683" on="0"/>
        <pt x="367" y="657" on="0"/>
        <pt x="358" y="648" on="1"/>
        <pt x="260" y="648" on="1"/>
        <pt x="260" y="52" on="1"/>
        <pt x="331" y="52" on="1"/>
        <pt x="348" y="52" on="0"/>
      </contour>
      <contour>
        <pt x="214" y="787" on="1"/>
        <pt x="200" y="787" on="0"/>
        <pt x="179" y="806" on="0"/>
        <pt x="172" y="825" on="1"/>
        <pt x="281" y="1019" on="1"/>
        <pt x="300" y="1052" on="0"/>
        <pt x="329" y="1052" on="1"/>
        <pt x="343" y="1052" on="0"/>
        <pt x="364" y="1033" on="0"/>
        <pt x="372" y="1014" on="1"/>
        <pt x="261" y="819" on="1"/>
        <pt x="242" y="787" on="0"/>
      </contour>
    </TTGlyph>
    <TTGlyph name="Icircumflex" xMin="53" yMin="0" xMax="381" yMax="1046">
      <component glyphName="I" x="0" y="0" flags="0x1004"/>
      <component glyphName="circumflex" x="77" y="298" flags="0x1004"/>
    </TTGlyph>
    <TTGlyph name="Idieresis" xMin="53" yMin="0" xMax="367" yMax="896">
      <contour>
        <pt x="367" y="35" on="0"/>
        <pt x="367" y="9" on="0"/>
        <pt x="358" y="0" on="1"/>
        <pt x="89" y="0" on="1"/>
        <pt x="53" y="0" on="0"/>
        <pt x="53" y="29" on="1"/>
        <pt x="53" y="42" on="0"/>
        <pt x="62" y="51" on="1"/>
        <pt x="170" y="52" on="1"/>
        <pt x="170" y="648" on="1"/>
        <pt x="89" y="648" on="1"/>
        <pt x="53" y="648" on="0"/>
        <pt x="53" y="677" on="1"/>
        <pt x="53" y="689" on="0"/>
        <pt x="62" y="700" on="1"/>
        <pt x="331" y="700" on="1"/>
        <pt x="348" y="700" on="0"/>
        <pt x="367" y="683" on="0"/>
        <pt x="367" y="657" on="0"/>
        <pt x="358" y="648" on="1"/>
        <pt x="260" y="648" on="1"/>
        <pt x="260" y="52" on="1"/>
        <pt x="331" y="52" on="1"/>
        <pt x="348" y="52" on="0"/>
      </contour>
      <contour>
        <pt x="105" y="828" on="0"/>
        <pt x="105" y="868" on="0"/>
        <pt x="132" y="896" on="0"/>
        <pt x="172" y="896" on="0"/>
        <pt x="200" y="868" on="0"/>
        <pt x="200" y="828" on="0"/>
        <pt x="172" y="801" on="0"/>
        <pt x="132" y="801" on="0"/>
      </contour>
      <contour>
        <pt x="254" y="828" on="0"/>
        <pt x="254" y="868" on="0"/>
        <pt x="281" y="896" on="0"/>
        <pt x="321" y="896" on="0"/>
        <pt x="349" y="868" on="0"/>
        <pt x="349" y="828" on="0"/>
        <pt x="321" y="801" on="0"/>
        <pt x="282" y="801" on="0"/>
      </contour>
    </TTGlyph>
    <TTGlyph name="Igrave" xMin="53" yMin="0" xMax="367" yMax="1052">
      <component glyphName="I" x="0" y="0" flags="0x1004"/>
      <component glyphName="grave" x="70" y="262" flags="0x1004"/>
    </TTGlyph>
    <TTGlyph name="J" xMin="-20" yMin="-128" xMax="365" yMax="701">
      <contour>
        <pt x="365" y="684" on="0"/>
        <pt x="365" y="658" on="0"/>
        <pt x="356" y="649" on="1"/>
        <pt x="258" y="649" on="1"/>
        <pt x="258" y="118" on="1"/>
        <pt x="258" y="-1" on="0"/>
        <pt x="174" y="-128" on="0"/>
        <pt x="99" y="-128" on="1"/>
        <pt x="42" y="-128" on="0"/>
        <pt x="-20" y="-50" on="0"/>
        <pt x="-20" y="89" on="0"/>
        <pt x="19" y="206" on="0"/>
        <pt x="52" y="249" on="1"/>
        <pt x="107" y="321" on="0"/>
        <pt x="168" y="367" on="1"/>
        <pt x="168" y="649" on="1"/>
        <pt x="87" y="649" on="1"/>
        <pt x="51" y="649" on="0"/>
        <pt x="51" y="678" on="1"/>
        <pt x="51" y="691" on="0"/>
        <pt x="60" y="700" on="1"/>
        <pt x="329" y="701" on="1"/>
        <pt x="346" y="701" on="0"/>
      </contour>
      <contour>
        <pt x="98" y="-89" on="1"/>
        <pt x="168" y="-89" on="0"/>
        <pt x="168" y="121" on="1"/>
        <pt x="168" y="323" on="1"/>
        <pt x="23" y="189" on="0"/>
        <pt x="23" y="21" on="1"/>
        <pt x="23" y="-34" on="0"/>
        <pt x="67" y="-89" on="0"/>
      </contour>
    </TTGlyph>
    <TTGlyph name="K" xMin="-89" yMin="-198" xMax="915" yMax="752">
      <contour>
        <pt x="859" y="-157" on="1"/>
        <pt x="884" y="-157" on="0"/>
        <pt x="900" y="-147" on="1"/>
        <pt x="915" y="-148" on="0"/>
        <pt x="915" y="-164" on="1"/>
        <pt x="915" y="-198" on="0"/>
        <pt x="775" y="-198" on="0"/>
        <pt x="665" y="-146" on="0"/>
        <pt x="597" y="-62" on="0"/>
        <pt x="542" y="39" on="0"/>
        <pt x="494" y="139" on="0"/>
        <pt x="441" y="223" on="0"/>
        <pt x="359" y="275" on="0"/>
        <pt x="306" y="275" on="1"/>
        <pt x="278" y="275" on="0"/>
        <pt x="278" y="303" on="1"/>
        <pt x="278" y="312" on="0"/>
        <pt x="294" y="327" on="0"/>
        <pt x="302" y="327" on="1"/>
        <pt x="365" y="327" on="0"/>
        <pt x="467" y="428" on="0"/>
        <pt x="519" y="576" on="0"/>
        <pt x="519" y="654" on="1"/>
        <pt x="513" y="695" on="1"/>
        <pt x="523" y="710" on="0"/>
        <pt x="573" y="710" on="0"/>
        <pt x="611" y="674" on="0"/>
        <pt x="611" y="634" on="1"/>
        <pt x="611" y="509" on="0"/>
        <pt x="473" y="316" on="0"/>
        <pt x="397" y="296" on="1"/>
        <pt x="448" y="291" on="0"/>
        <pt x="527" y="236" on="0"/>
        <pt x="578" y="155" on="0"/>
        <pt x="623" y="60" on="0"/>
        <pt x="668" y="-33" on="0"/>
        <pt x="722" y="-110" on="0"/>
        <pt x="805" y="-157" on="0"/>
      </contour>
      <contour>
        <pt x="137" y="721" on="0"/>
        <pt x="167" y="752" on="0"/>
        <pt x="209" y="752" on="0"/>
        <pt x="229" y="738" on="1"/>
        <pt x="229" y="171" on="1"/>
        <pt x="229" y="66" on="0"/>
        <pt x="150" y="-58" on="0"/>
        <pt x="-9" y="-58" on="0"/>
        <pt x="-89" y="15" on="0"/>
        <pt x="-89" y="75" on="1"/>
        <pt x="-89" y="152" on="0"/>
        <pt x="-39" y="152" on="1"/>
        <pt x="-27" y="152" on="0"/>
        <pt x="-9" y="140" on="0"/>
        <pt x="-3" y="129" on="1"/>
        <pt x="-11" y="108" on="0"/>
        <pt x="-11" y="26" on="0"/>
        <pt x="32" y="-17" on="0"/>
        <pt x="65" y="-17" on="1"/>
        <pt x="137" y="-17" on="0"/>
        <pt x="137" y="111" on="1"/>
        <pt x="137" y="691" on="1"/>
      </contour>
    </TTGlyph>
    <TTGlyph name="L" xMin="-181" yMin="-49" xMax="546" yMax="805">
      <contour>
        <pt x="-98" y="556" on="0"/>
        <pt x="-105" y="566" on="0"/>
        <pt x="-105" y="583" on="0"/>
        <pt x="-99" y="587" on="1"/>
        <pt x="2" y="587" on="0"/>
        <pt x="12" y="588" on="1"/>
        <pt x="17" y="697" on="0"/>
        <pt x="93" y="805" on="0"/>
        <pt x="170" y="805" on="1"/>
        <pt x="219" y="805" on="0"/>
        <pt x="276" y="747" on="0"/>
        <pt x="276" y="702" on="1"/>
        <pt x="276" y="638" on="0"/>
        <pt x="190" y="568" on="0"/>
        <pt x="101" y="555" on="1"/>
        <pt x="101" y="242" on="1"/>
        <pt x="101" y="174" on="0"/>
        <pt x="86" y="120" on="1"/>
        <pt x="90" y="116" on="0"/>
        <pt x="117" y="93" on="0"/>
        <pt x="127" y="84" on="0"/>
        <pt x="153" y="62" on="0"/>
        <pt x="166" y="53" on="0"/>
        <pt x="192" y="36" on="0"/>
        <pt x="210" y="28" on="0"/>
        <pt x="237" y="17" on="0"/>
        <pt x="249" y="14" on="1"/>
        <pt x="280" y="8" on="0"/>
        <pt x="306" y="8" on="1"/>
        <pt x="405" y="8" on="0"/>
        <pt x="506" y="101" on="0"/>
        <pt x="506" y="189" on="1"/>
        <pt x="507" y="195" on="0"/>
        <pt x="526" y="195" on="0"/>
        <pt x="531" y="192" on="1"/>
        <pt x="546" y="181" on="0"/>
        <pt x="546" y="143" on="1"/>
        <pt x="546" y="60" on="0"/>
        <pt x="404" y="-49" on="0"/>
        <pt x="305" y="-49" on="1"/>
        <pt x="230" y="-49" on="0"/>
        <pt x="118" y="11" on="0"/>
        <pt x="64" y="63" on="1"/>
        <pt x="19" y="-23" on="0"/>
        <pt x="-66" y="-23" on="1"/>
        <pt x="-122" y="-23" on="0"/>
        <pt x="-181" y="36" on="0"/>
        <pt x="-181" y="132" on="0"/>
        <pt x="-119" y="194" on="0"/>
        <pt x="-27" y="194" on="0"/>
        <pt x="9" y="176" on="1"/>
        <pt x="11" y="218" on="0"/>
        <pt x="11" y="246" on="1"/>
        <pt x="11" y="547" on="1"/>
        <pt x="-9" y="546" on="0"/>
        <pt x="-73" y="546" on="0"/>
      </contour>
      <contour>
        <pt x="230" y="705" on="1"/>
        <pt x="230" y="729" on="0"/>
        <pt x="195" y="763" on="0"/>
        <pt x="138" y="763" on="0"/>
        <pt x="104" y="690" on="0"/>
        <pt x="101" y="597" on="1"/>
        <pt x="230" y="621" on="0"/>
      </contour>
      <contour>
        <pt x="-136" y="85" on="1"/>
        <pt x="-136" y="19" on="0"/>
        <pt x="-66" y="19" on="1"/>
        <pt x="-10" y="19" on="0"/>
        <pt x="4" y="120" on="1"/>
        <pt x="-36" y="153" on="0"/>
        <pt x="-100" y="153" on="0"/>
        <pt x="-136" y="117" on="0"/>
      </contour>
    </TTGlyph>
    <TTGlyph name="Lslash" xMin="-181" yMin="-49" xMax="546" yMax="805">
      <contour>
        <pt x="-99" y="587" on="1"/>
        <pt x="-99" y="587" on="0"/>
        <pt x="-34" y="586" on="1"/>
        <pt x="-6" y="586" on="0"/>
        <pt x="12" y="588" on="1"/>
        <pt x="17" y="697" on="0"/>
        <pt x="93" y="805" on="0"/>
        <pt x="170" y="805" on="1"/>
        <pt x="219" y="805" on="0"/>
        <pt x="276" y="747" on="0"/>
        <pt x="276" y="702" on="1"/>
        <pt x="276" y="638" on="0"/>
        <pt x="190" y="568" on="0"/>
        <pt x="101" y="555" on="1"/>
        <pt x="101" y="443" on="1"/>
        <pt x="220" y="512" on="1"/>
        <pt x="222" y="513" on="0"/>
        <pt x="224" y="513" on="1"/>
        <pt x="248" y="492" on="1"/>
        <pt x="254" y="482" on="0"/>
        <pt x="254" y="466" on="0"/>
        <pt x="243" y="447" on="0"/>
        <pt x="215" y="430" on="1"/>
        <pt x="101" y="364" on="1"/>
        <pt x="101" y="242" on="1"/>
        <pt x="101" y="174" on="0"/>
        <pt x="86" y="120" on="1"/>
        <pt x="90" y="116" on="0"/>
        <pt x="117" y="93" on="0"/>
        <pt x="127" y="84" on="0"/>
        <pt x="153" y="62" on="0"/>
        <pt x="166" y="53" on="0"/>
        <pt x="192" y="36" on="0"/>
        <pt x="210" y="28" on="0"/>
        <pt x="237" y="17" on="0"/>
        <pt x="249" y="14" on="1"/>
        <pt x="280" y="8" on="0"/>
        <pt x="306" y="8" on="1"/>
        <pt x="405" y="8" on="0"/>
        <pt x="506" y="101" on="0"/>
        <pt x="506" y="189" on="1"/>
        <pt x="507" y="195" on="0"/>
        <pt x="526" y="195" on="0"/>
        <pt x="531" y="192" on="1"/>
        <pt x="546" y="181" on="0"/>
        <pt x="546" y="143" on="1"/>
        <pt x="546" y="60" on="0"/>
        <pt x="404" y="-49" on="0"/>
        <pt x="305" y="-49" on="1"/>
        <pt x="230" y="-49" on="0"/>
        <pt x="118" y="11" on="0"/>
        <pt x="64" y="63" on="1"/>
        <pt x="19" y="-23" on="0"/>
        <pt x="-66" y="-23" on="1"/>
        <pt x="-122" y="-23" on="0"/>
        <pt x="-181" y="36" on="0"/>
        <pt x="-181" y="132" on="0"/>
        <pt x="-119" y="194" on="0"/>
        <pt x="-27" y="194" on="0"/>
        <pt x="9" y="176" on="1"/>
        <pt x="11" y="218" on="0"/>
        <pt x="11" y="246" on="1"/>
        <pt x="11" y="311" on="1"/>
        <pt x="-117" y="237" on="1"/>
        <pt x="-121" y="233" on="0"/>
        <pt x="-125" y="233" on="1"/>
        <pt x="-134" y="233" on="0"/>
        <pt x="-149" y="260" on="0"/>
        <pt x="-149" y="271" on="1"/>
        <pt x="-149" y="297" on="0"/>
        <pt x="-112" y="319" on="1"/>
        <pt x="11" y="390" on="1"/>
        <pt x="11" y="547" on="1"/>
        <pt x="-9" y="546" on="0"/>
        <pt x="-73" y="546" on="0"/>
        <pt x="-86" y="551" on="1"/>
        <pt x="-105" y="559" on="0"/>
        <pt x="-105" y="583" on="0"/>
      </contour>
      <contour>
        <pt x="230" y="705" on="1"/>
        <pt x="230" y="729" on="0"/>
        <pt x="195" y="763" on="0"/>
        <pt x="138" y="763" on="0"/>
        <pt x="104" y="690" on="0"/>
        <pt x="101" y="597" on="1"/>
        <pt x="230" y="621" on="0"/>
      </contour>
      <contour>
        <pt x="-136" y="85" on="1"/>
        <pt x="-136" y="19" on="0"/>
        <pt x="-66" y="19" on="1"/>
        <pt x="-10" y="19" on="0"/>
        <pt x="4" y="120" on="1"/>
        <pt x="-36" y="153" on="0"/>
        <pt x="-100" y="153" on="0"/>
        <pt x="-136" y="117" on="0"/>
      </contour>
    </TTGlyph>
    <TTGlyph name="M" xMin="35" yMin="-51" xMax="1368" yMax="722">
      <contour>
        <pt x="107" y="525" on="1"/>
        <pt x="107" y="507" on="0"/>
        <pt x="115" y="489" on="1"/>
        <pt x="106" y="477" on="0"/>
        <pt x="64" y="477" on="0"/>
        <pt x="35" y="507" on="0"/>
        <pt x="35" y="541" on="1"/>
        <pt x="35" y="620" on="0"/>
        <pt x="131" y="719" on="0"/>
        <pt x="211" y="719" on="1"/>
        <pt x="343" y="719" on="0"/>
        <pt x="368" y="575" on="1"/>
        <pt x="390" y="642" on="0"/>
        <pt x="490" y="722" on="0"/>
        <pt x="557" y="722" on="1"/>
        <pt x="705" y="721" on="0"/>
        <pt x="748" y="560" on="1"/>
        <pt x="768" y="633" on="0"/>
        <pt x="871" y="722" on="0"/>
        <pt x="942" y="722" on="1"/>
        <pt x="1046" y="721" on="0"/>
        <pt x="1149" y="566" on="0"/>
        <pt x="1149" y="436" on="1"/>
        <pt x="1149" y="153" on="1"/>
        <pt x="1149" y="95" on="0"/>
        <pt x="1196" y="25" on="0"/>
        <pt x="1234" y="25" on="1"/>
        <pt x="1328" y="25" on="0"/>
        <pt x="1328" y="213" on="1"/>
        <pt x="1329" y="219" on="0"/>
        <pt x="1348" y="219" on="0"/>
        <pt x="1353" y="216" on="1"/>
        <pt x="1368" y="205" on="0"/>
        <pt x="1368" y="167" on="1"/>
        <pt x="1368" y="83" on="0"/>
        <pt x="1288" y="-21" on="0"/>
        <pt x="1222" y="-21" on="1"/>
        <pt x="1126" y="-21" on="0"/>
        <pt x="1090" y="46" on="1"/>
        <pt x="1058" y="107" on="0"/>
        <pt x="1058" y="213" on="1"/>
        <pt x="1058" y="436" on="1"/>
        <pt x="1058" y="672" on="0"/>
        <pt x="942" y="672" on="1"/>
        <pt x="856" y="672" on="0"/>
        <pt x="763" y="520" on="0"/>
        <pt x="763" y="394" on="1"/>
        <pt x="763" y="46" on="1"/>
        <pt x="763" y="16" on="0"/>
        <pt x="733" y="-15" on="0"/>
        <pt x="689" y="-15" on="0"/>
        <pt x="673" y="-1" on="1"/>
        <pt x="673" y="436" on="1"/>
        <pt x="673" y="672" on="0"/>
        <pt x="557" y="672" on="1"/>
        <pt x="465" y="672" on="0"/>
        <pt x="377" y="495" on="0"/>
        <pt x="377" y="346" on="1"/>
        <pt x="377" y="218" on="1"/>
        <pt x="377" y="94" on="0"/>
        <pt x="298" y="-51" on="0"/>
        <pt x="139" y="-51" on="0"/>
        <pt x="59" y="22" on="0"/>
        <pt x="59" y="82" on="1"/>
        <pt x="59" y="159" on="0"/>
        <pt x="109" y="159" on="1"/>
        <pt x="121" y="159" on="0"/>
        <pt x="139" y="148" on="0"/>
        <pt x="145" y="136" on="1"/>
        <pt x="137" y="115" on="0"/>
        <pt x="137" y="32" on="0"/>
        <pt x="180" y="-10" on="0"/>
        <pt x="213" y="-10" on="1"/>
        <pt x="284" y="-10" on="0"/>
        <pt x="284" y="158" on="1"/>
        <pt x="284" y="545" on="1"/>
        <pt x="284" y="603" on="0"/>
        <pt x="237" y="673" on="0"/>
        <pt x="156" y="673" on="0"/>
        <pt x="107" y="608" on="0"/>
      </contour>
    </TTGlyph>
    <TTGlyph name="N" xMin="35" yMin="-51" xMax="984" yMax="722">
      <contour>
        <pt x="107" y="525" on="1"/>
        <pt x="107" y="507" on="0"/>
        <pt x="115" y="489" on="1"/>
        <pt x="106" y="477" on="0"/>
        <pt x="64" y="477" on="0"/>
        <pt x="35" y="507" on="0"/>
        <pt x="35" y="541" on="1"/>
        <pt x="35" y="620" on="0"/>
        <pt x="131" y="719" on="0"/>
        <pt x="211" y="719" on="1"/>
        <pt x="343" y="719" on="0"/>
        <pt x="368" y="575" on="1"/>
        <pt x="390" y="642" on="0"/>
        <pt x="490" y="722" on="0"/>
        <pt x="557" y="722" on="1"/>
        <pt x="661" y="721" on="0"/>
        <pt x="765" y="566" on="0"/>
        <pt x="765" y="436" on="1"/>
        <pt x="765" y="153" on="1"/>
        <pt x="765" y="95" on="0"/>
        <pt x="812" y="25" on="0"/>
        <pt x="850" y="25" on="1"/>
        <pt x="944" y="25" on="0"/>
        <pt x="944" y="213" on="1"/>
        <pt x="945" y="219" on="0"/>
        <pt x="964" y="219" on="0"/>
        <pt x="969" y="216" on="1"/>
        <pt x="984" y="205" on="0"/>
        <pt x="984" y="167" on="1"/>
        <pt x="984" y="83" on="0"/>
        <pt x="904" y="-21" on="0"/>
        <pt x="838" y="-21" on="1"/>
        <pt x="746" y="-21" on="0"/>
        <pt x="673" y="102" on="0"/>
        <pt x="673" y="213" on="1"/>
        <pt x="673" y="436" on="1"/>
        <pt x="673" y="672" on="0"/>
        <pt x="557" y="672" on="1"/>
        <pt x="512" y="672" on="0"/>
        <pt x="445" y="627" on="0"/>
        <pt x="407" y="561" on="0"/>
        <pt x="396" y="515" on="1"/>
        <pt x="377" y="441" on="0"/>
        <pt x="377" y="346" on="1"/>
        <pt x="377" y="218" on="1"/>
        <pt x="377" y="94" on="0"/>
        <pt x="298" y="-51" on="0"/>
        <pt x="139" y="-51" on="0"/>
        <pt x="59" y="22" on="0"/>
        <pt x="59" y="82" on="1"/>
        <pt x="59" y="159" on="0"/>
        <pt x="109" y="159" on="1"/>
        <pt x="121" y="159" on="0"/>
        <pt x="139" y="148" on="0"/>
        <pt x="145" y="136" on="1"/>
        <pt x="137" y="115" on="0"/>
        <pt x="137" y="32" on="0"/>
        <pt x="180" y="-10" on="0"/>
        <pt x="213" y="-10" on="1"/>
        <pt x="284" y="-10" on="0"/>
        <pt x="284" y="158" on="1"/>
        <pt x="284" y="545" on="1"/>
        <pt x="284" y="603" on="0"/>
        <pt x="237" y="673" on="0"/>
        <pt x="156" y="673" on="0"/>
        <pt x="107" y="608" on="0"/>
      </contour>
    </TTGlyph>
    <TTGlyph name="Ntilde" xMin="35" yMin="-51" xMax="984" yMax="919">
      <component glyphName="N" x="0" y="0" flags="0x1004"/>
      <component glyphName="tilde" x="275" y="287" flags="0x1004"/>
    </TTGlyph>
    <TTGlyph name="O" xMin="29" yMin="-48" xMax="728" yMax="754">
      <contour>
        <pt x="369" y="657" on="0"/>
        <pt x="391" y="636" on="0"/>
        <pt x="391" y="612" on="0"/>
        <pt x="385" y="610" on="1"/>
        <pt x="285" y="610" on="0"/>
        <pt x="175" y="460" on="0"/>
        <pt x="175" y="183" on="0"/>
        <pt x="295" y="-8" on="0"/>
        <pt x="509" y="-8" on="0"/>
        <pt x="636" y="194" on="0"/>
        <pt x="636" y="501" on="0"/>
        <pt x="487" y="704" on="0"/>
        <pt x="247" y="704" on="0"/>
        <pt x="78" y="567" on="0"/>
        <pt x="74" y="472" on="1"/>
        <pt x="70" y="464" on="0"/>
        <pt x="55" y="464" on="1"/>
        <pt x="29" y="466" on="0"/>
        <pt x="29" y="530" on="0"/>
        <pt x="55" y="597" on="0"/>
        <pt x="113" y="665" on="0"/>
        <pt x="191" y="720" on="0"/>
        <pt x="307" y="754" on="0"/>
        <pt x="374" y="754" on="1"/>
        <pt x="535" y="754" on="0"/>
        <pt x="728" y="523" on="0"/>
        <pt x="728" y="169" on="0"/>
        <pt x="551" y="-48" on="0"/>
        <pt x="254" y="-48" on="0"/>
        <pt x="83" y="158" on="0"/>
        <pt x="83" y="333" on="1"/>
        <pt x="83" y="415" on="0"/>
        <pt x="136" y="545" on="0"/>
        <pt x="178" y="582" on="1"/>
        <pt x="263" y="657" on="0"/>
        <pt x="351" y="657" on="1"/>
      </contour>
    </TTGlyph>
    <TTGlyph name="OE" xMin="150" yMin="-56" xMax="1267" yMax="754">
      <contour>
        <pt x="195" y="472" on="1"/>
        <pt x="191" y="464" on="0"/>
        <pt x="176" y="464" on="1"/>
        <pt x="150" y="466" on="0"/>
        <pt x="150" y="530" on="0"/>
        <pt x="176" y="597" on="0"/>
        <pt x="232" y="665" on="0"/>
        <pt x="310" y="720" on="0"/>
        <pt x="424" y="754" on="0"/>
        <pt x="490" y="754" on="1"/>
        <pt x="633" y="754" on="0"/>
        <pt x="727" y="652" on="1"/>
        <pt x="784" y="750" on="0"/>
        <pt x="949" y="750" on="1"/>
        <pt x="1055" y="750" on="0"/>
        <pt x="1166" y="661" on="0"/>
        <pt x="1166" y="599" on="1"/>
        <pt x="1166" y="574" on="0"/>
        <pt x="1136" y="544" on="0"/>
        <pt x="1122" y="544" on="1"/>
        <pt x="1096" y="544" on="0"/>
        <pt x="1088" y="556" on="1"/>
        <pt x="1094" y="571" on="0"/>
        <pt x="1094" y="593" on="1"/>
        <pt x="1094" y="647" on="0"/>
        <pt x="1012" y="701" on="0"/>
        <pt x="880" y="701" on="0"/>
        <pt x="796" y="628" on="0"/>
        <pt x="796" y="557" on="1"/>
        <pt x="796" y="408" on="0"/>
        <pt x="997" y="408" on="1"/>
        <pt x="1008" y="408" on="0"/>
        <pt x="1027" y="395" on="0"/>
        <pt x="1027" y="382" on="1"/>
        <pt x="1027" y="356" on="0"/>
        <pt x="997" y="356" on="1"/>
        <pt x="890" y="356" on="0"/>
        <pt x="754" y="268" on="0"/>
        <pt x="754" y="85" on="0"/>
        <pt x="871" y="-6" on="0"/>
        <pt x="1076" y="-6" on="0"/>
        <pt x="1231" y="142" on="0"/>
        <pt x="1231" y="261" on="1"/>
        <pt x="1233" y="268" on="0"/>
        <pt x="1248" y="268" on="1"/>
        <pt x="1267" y="268" on="0"/>
        <pt x="1267" y="235" on="1"/>
        <pt x="1267" y="124" on="0"/>
        <pt x="1193" y="38" on="1"/>
        <pt x="1157" y="-4" on="0"/>
        <pt x="1039" y="-56" on="0"/>
        <pt x="967" y="-56" on="1"/>
        <pt x="804" y="-56" on="0"/>
        <pt x="720" y="30" on="1"/>
        <pt x="637" y="-48" on="0"/>
        <pt x="516" y="-48" on="1"/>
        <pt x="372" y="-47" on="0"/>
        <pt x="204" y="159" on="0"/>
        <pt x="204" y="333" on="1"/>
        <pt x="204" y="415" on="0"/>
        <pt x="256" y="545" on="0"/>
        <pt x="297" y="582" on="1"/>
        <pt x="380" y="657" on="0"/>
        <pt x="467" y="657" on="1"/>
        <pt x="485" y="657" on="0"/>
        <pt x="507" y="636" on="0"/>
        <pt x="507" y="612" on="0"/>
        <pt x="501" y="610" on="1"/>
        <pt x="403" y="610" on="0"/>
        <pt x="296" y="460" on="0"/>
        <pt x="296" y="183" on="0"/>
        <pt x="413" y="-7" on="0"/>
        <pt x="617" y="-8" on="0"/>
        <pt x="679" y="90" on="1"/>
        <pt x="662" y="129" on="0"/>
        <pt x="662" y="225" on="0"/>
        <pt x="692" y="301" on="0"/>
        <pt x="733" y="343" on="0"/>
        <pt x="760" y="357" on="1"/>
        <pt x="803" y="380" on="0"/>
        <pt x="842" y="380" on="1"/>
        <pt x="757" y="392" on="0"/>
        <pt x="721" y="470" on="1"/>
        <pt x="707" y="501" on="0"/>
        <pt x="704" y="541" on="1"/>
        <pt x="671" y="616" on="0"/>
        <pt x="558" y="704" on="0"/>
        <pt x="488" y="704" on="1"/>
        <pt x="364" y="704" on="0"/>
        <pt x="195" y="567" on="0"/>
      </contour>
    </TTGlyph>
    <TTGlyph name="Oacute" xMin="29" yMin="-48" xMax="728" yMax="1061">
      <contour>
        <pt x="369" y="657" on="0"/>
        <pt x="391" y="636" on="0"/>
        <pt x="391" y="612" on="0"/>
        <pt x="385" y="610" on="1"/>
        <pt x="285" y="610" on="0"/>
        <pt x="175" y="460" on="0"/>
        <pt x="175" y="183" on="0"/>
        <pt x="295" y="-8" on="0"/>
        <pt x="509" y="-8" on="0"/>
        <pt x="636" y="194" on="0"/>
        <pt x="636" y="501" on="0"/>
        <pt x="487" y="704" on="0"/>
        <pt x="247" y="704" on="0"/>
        <pt x="78" y="567" on="0"/>
        <pt x="74" y="472" on="1"/>
        <pt x="70" y="464" on="0"/>
        <pt x="55" y="464" on="1"/>
        <pt x="29" y="466" on="0"/>
        <pt x="29" y="530" on="0"/>
        <pt x="55" y="597" on="0"/>
        <pt x="113" y="665" on="0"/>
        <pt x="191" y="720" on="0"/>
        <pt x="307" y="754" on="0"/>
        <pt x="374" y="754" on="1"/>
        <pt x="535" y="754" on="0"/>
        <pt x="728" y="523" on="0"/>
        <pt x="728" y="169" on="0"/>
        <pt x="551" y="-48" on="0"/>
        <pt x="254" y="-48" on="0"/>
        <pt x="83" y="158" on="0"/>
        <pt x="83" y="333" on="1"/>
        <pt x="83" y="415" on="0"/>
        <pt x="136" y="545" on="0"/>
        <pt x="178" y="582" on="1"/>
        <pt x="263" y="657" on="0"/>
        <pt x="351" y="657" on="1"/>
      </contour>
      <contour>
        <pt x="345" y="796" on="1"/>
        <pt x="331" y="796" on="0"/>
        <pt x="310" y="815" on="0"/>
        <pt x="303" y="834" on="1"/>
        <pt x="412" y="1028" on="1"/>
        <pt x="431" y="1061" on="0"/>
        <pt x="460" y="1061" on="1"/>
        <pt x="474" y="1061" on="0"/>
        <pt x="495" y="1042" on="0"/>
        <pt x="503" y="1023" on="1"/>
        <pt x="392" y="828" on="1"/>
        <pt x="373" y="796" on="0"/>
      </contour>
    </TTGlyph>
    <TTGlyph name="Ocircumflex" xMin="29" yMin="-48" xMax="728" yMax="1096">
      <component glyphName="O" x="0" y="0" flags="0x1004"/>
      <component glyphName="circumflex" x="207" y="348" flags="0x1004"/>
    </TTGlyph>
    <TTGlyph name="Odieresis" xMin="29" yMin="-48" xMax="728" yMax="916">
      <component glyphName="O" x="0" y="0" flags="0x1004"/>
      <component glyphName="dieresis" x="179" y="282" flags="0x1004"/>
    </TTGlyph>
    <TTGlyph name="Ograve" xMin="29" yMin="-48" xMax="728" yMax="1064">
      <component glyphName="O" x="0" y="0" flags="0x1004"/>
      <component glyphName="grave" x="241" y="274" flags="0x1004"/>
    </TTGlyph>
    <TTGlyph name="Oslash" xMin="-65" yMin="-48" xMax="634" yMax="754">
      <contour>
        <pt x="275" y="657" on="0"/>
        <pt x="297" y="636" on="0"/>
        <pt x="297" y="612" on="0"/>
        <pt x="291" y="610" on="1"/>
        <pt x="191" y="610" on="0"/>
        <pt x="81" y="460" on="0"/>
        <pt x="81" y="333" on="1"/>
        <pt x="81" y="164" on="0"/>
        <pt x="154" y="68" on="1"/>
        <pt x="429" y="644" on="1"/>
        <pt x="363" y="704" on="0"/>
        <pt x="278" y="704" on="1"/>
        <pt x="153" y="704" on="0"/>
        <pt x="-16" y="567" on="0"/>
        <pt x="-20" y="472" on="1"/>
        <pt x="-24" y="464" on="0"/>
        <pt x="-39" y="464" on="1"/>
        <pt x="-65" y="466" on="0"/>
        <pt x="-65" y="530" on="0"/>
        <pt x="-39" y="597" on="0"/>
        <pt x="19" y="665" on="0"/>
        <pt x="97" y="720" on="0"/>
        <pt x="213" y="754" on="0"/>
        <pt x="280" y="754" on="1"/>
        <pt x="441" y="754" on="0"/>
        <pt x="634" y="523" on="0"/>
        <pt x="634" y="169" on="0"/>
        <pt x="457" y="-48" on="0"/>
        <pt x="160" y="-48" on="0"/>
        <pt x="-11" y="158" on="0"/>
        <pt x="-11" y="333" on="1"/>
        <pt x="-11" y="415" on="0"/>
        <pt x="42" y="545" on="0"/>
        <pt x="84" y="582" on="1"/>
        <pt x="169" y="657" on="0"/>
        <pt x="257" y="657" on="1"/>
      </contour>
      <contour>
        <pt x="415" y="-8" on="0"/>
        <pt x="542" y="194" on="0"/>
        <pt x="542" y="504" on="0"/>
        <pt x="464" y="606" on="1"/>
        <pt x="189" y="33" on="1"/>
        <pt x="241" y="-8" on="0"/>
        <pt x="306" y="-8" on="1"/>
      </contour>
    </TTGlyph>
    <TTGlyph name="Otilde" xMin="29" yMin="-48" xMax="728" yMax="932">
      <contour>
        <pt x="369" y="657" on="0"/>
        <pt x="391" y="636" on="0"/>
        <pt x="391" y="612" on="0"/>
        <pt x="385" y="610" on="1"/>
        <pt x="285" y="610" on="0"/>
        <pt x="175" y="460" on="0"/>
        <pt x="175" y="183" on="0"/>
        <pt x="295" y="-8" on="0"/>
        <pt x="509" y="-8" on="0"/>
        <pt x="636" y="194" on="0"/>
        <pt x="636" y="501" on="0"/>
        <pt x="487" y="704" on="0"/>
        <pt x="247" y="704" on="0"/>
        <pt x="78" y="567" on="0"/>
        <pt x="74" y="472" on="1"/>
        <pt x="70" y="464" on="0"/>
        <pt x="55" y="464" on="1"/>
        <pt x="29" y="466" on="0"/>
        <pt x="29" y="530" on="0"/>
        <pt x="55" y="597" on="0"/>
        <pt x="113" y="665" on="0"/>
        <pt x="191" y="720" on="0"/>
        <pt x="307" y="754" on="0"/>
        <pt x="374" y="754" on="1"/>
        <pt x="535" y="754" on="0"/>
        <pt x="728" y="523" on="0"/>
        <pt x="728" y="169" on="0"/>
        <pt x="551" y="-48" on="0"/>
        <pt x="254" y="-48" on="0"/>
        <pt x="83" y="158" on="0"/>
        <pt x="83" y="333" on="1"/>
        <pt x="83" y="415" on="0"/>
        <pt x="136" y="545" on="0"/>
        <pt x="178" y="582" on="1"/>
        <pt x="263" y="657" on="0"/>
        <pt x="351" y="657" on="1"/>
      </contour>
      <contour>
        <pt x="550" y="854" on="0"/>
        <pt x="494" y="811" on="0"/>
        <pt x="423" y="811" on="0"/>
        <pt x="322" y="870" on="0"/>
        <pt x="298" y="870" on="1"/>
        <pt x="243" y="870" on="0"/>
        <pt x="243" y="799" on="1"/>
        <pt x="228" y="799" on="0"/>
        <pt x="206" y="822" on="0"/>
        <pt x="206" y="842" on="1"/>
        <pt x="206" y="881" on="0"/>
        <pt x="262" y="930" on="0"/>
        <pt x="339" y="930" on="0"/>
        <pt x="436" y="871" on="0"/>
        <pt x="484" y="871" on="0"/>
        <pt x="513" y="903" on="0"/>
        <pt x="513" y="932" on="1"/>
        <pt x="528" y="932" on="0"/>
        <pt x="550" y="907" on="0"/>
        <pt x="550" y="889" on="1"/>
      </contour>
    </TTGlyph>
    <TTGlyph name="P" xMin="-9" yMin="-128" xMax="642" yMax="808">
      <contour>
        <pt x="251" y="726" on="1"/>
        <pt x="281" y="727" on="1"/>
        <pt x="452" y="726" on="0"/>
        <pt x="642" y="598" on="0"/>
        <pt x="642" y="362" on="0"/>
        <pt x="490" y="229" on="0"/>
        <pt x="365" y="229" on="1"/>
        <pt x="308" y="229" on="0"/>
        <pt x="255" y="250" on="1"/>
        <pt x="255" y="102" on="1"/>
        <pt x="255" y="-15" on="0"/>
        <pt x="197" y="-128" on="0"/>
        <pt x="127" y="-128" on="1"/>
        <pt x="89" y="-128" on="0"/>
        <pt x="47" y="-64" on="0"/>
        <pt x="47" y="-5" on="1"/>
        <pt x="47" y="104" on="0"/>
        <pt x="161" y="215" on="1"/>
        <pt x="161" y="647" on="1"/>
        <pt x="117" y="627" on="0"/>
        <pt x="63" y="572" on="0"/>
        <pt x="63" y="522" on="0"/>
        <pt x="69" y="504" on="1"/>
        <pt x="63" y="492" on="0"/>
        <pt x="21" y="492" on="0"/>
        <pt x="-9" y="522" on="0"/>
        <pt x="-9" y="547" on="1"/>
        <pt x="-9" y="594" on="0"/>
        <pt x="85" y="686" on="0"/>
        <pt x="161" y="709" on="1"/>
        <pt x="161" y="747" on="1"/>
        <pt x="161" y="777" on="0"/>
        <pt x="191" y="808" on="0"/>
        <pt x="235" y="808" on="0"/>
        <pt x="251" y="794" on="1"/>
      </contour>
      <contour>
        <pt x="452" y="281" on="0"/>
        <pt x="546" y="382" on="0"/>
        <pt x="546" y="571" on="0"/>
        <pt x="409" y="678" on="0"/>
        <pt x="282" y="678" on="1"/>
        <pt x="266" y="678" on="0"/>
        <pt x="254" y="675" on="1"/>
        <pt x="254" y="303" on="1"/>
        <pt x="305" y="281" on="0"/>
        <pt x="357" y="281" on="1"/>
      </contour>
      <contour>
        <pt x="126" y="-89" on="1"/>
        <pt x="147" y="-89" on="0"/>
        <pt x="161" y="9" on="0"/>
        <pt x="161" y="168" on="1"/>
        <pt x="90" y="81" on="0"/>
        <pt x="90" y="-89" on="0"/>
      </contour>
    </TTGlyph>
    <TTGlyph name="Q" xMin="-6" yMin="-118" xMax="821" yMax="742">
      <contour>
        <pt x="309" y="742" on="0"/>
        <pt x="331" y="721" on="0"/>
        <pt x="331" y="697" on="0"/>
        <pt x="325" y="695" on="1"/>
        <pt x="253" y="695" on="0"/>
        <pt x="142" y="591" on="0"/>
        <pt x="87" y="435" on="0"/>
        <pt x="87" y="348" on="1"/>
        <pt x="87" y="203" on="0"/>
        <pt x="195" y="15" on="0"/>
        <pt x="290" y="8" on="1"/>
        <pt x="227" y="82" on="0"/>
        <pt x="157" y="282" on="0"/>
        <pt x="157" y="380" on="1"/>
        <pt x="157" y="511" on="0"/>
        <pt x="282" y="668" on="0"/>
        <pt x="485" y="668" on="0"/>
        <pt x="624" y="492" on="0"/>
        <pt x="624" y="215" on="0"/>
        <pt x="506" y="15" on="0"/>
        <pt x="403" y="-19" on="1"/>
        <pt x="480" y="-68" on="0"/>
        <pt x="664" y="-68" on="0"/>
        <pt x="775" y="76" on="0"/>
        <pt x="775" y="194" on="1"/>
        <pt x="780" y="200" on="0"/>
        <pt x="805" y="200" on="0"/>
        <pt x="821" y="182" on="0"/>
        <pt x="821" y="130" on="0"/>
        <pt x="806" y="54" on="0"/>
        <pt x="768" y="-23" on="0"/>
        <pt x="711" y="-81" on="0"/>
        <pt x="621" y="-118" on="0"/>
        <pt x="565" y="-118" on="1"/>
        <pt x="434" y="-118" on="0"/>
        <pt x="330" y="-32" on="1"/>
        <pt x="317" y="-33" on="0"/>
        <pt x="304" y="-33" on="1"/>
        <pt x="169" y="-33" on="0"/>
        <pt x="-6" y="166" on="0"/>
        <pt x="-6" y="348" on="1"/>
        <pt x="-6" y="436" on="0"/>
        <pt x="50" y="589" on="0"/>
        <pt x="138" y="686" on="0"/>
        <pt x="242" y="742" on="0"/>
        <pt x="291" y="742" on="1"/>
      </contour>
      <contour>
        <pt x="441" y="43" on="0"/>
        <pt x="532" y="230" on="0"/>
        <pt x="532" y="481" on="0"/>
        <pt x="456" y="617" on="0"/>
        <pt x="311" y="617" on="0"/>
        <pt x="216" y="489" on="0"/>
        <pt x="216" y="287" on="0"/>
        <pt x="294" y="83" on="0"/>
        <pt x="362" y="15" on="1"/>
      </contour>
    </TTGlyph>
    <TTGlyph name="R" xMin="-89" yMin="-198" xMax="911" yMax="747">
      <contour>
        <pt x="21" y="536" on="1"/>
        <pt x="21" y="517" on="0"/>
        <pt x="27" y="499" on="1"/>
        <pt x="21" y="487" on="0"/>
        <pt x="-21" y="487" on="0"/>
        <pt x="-51" y="517" on="0"/>
        <pt x="-51" y="542" on="1"/>
        <pt x="-51" y="599" on="0"/>
        <pt x="46" y="696" on="0"/>
        <pt x="187" y="747" on="0"/>
        <pt x="259" y="747" on="1"/>
        <pt x="595" y="747" on="0"/>
        <pt x="595" y="506" on="1"/>
        <pt x="595" y="443" on="0"/>
        <pt x="519" y="344" on="0"/>
        <pt x="418" y="298" on="0"/>
        <pt x="370" y="298" on="1"/>
        <pt x="426" y="298" on="0"/>
        <pt x="513" y="248" on="0"/>
        <pt x="568" y="168" on="0"/>
        <pt x="615" y="71" on="0"/>
        <pt x="661" y="-27" on="0"/>
        <pt x="715" y="-107" on="0"/>
        <pt x="800" y="-157" on="0"/>
        <pt x="855" y="-157" on="1"/>
        <pt x="880" y="-157" on="0"/>
        <pt x="896" y="-147" on="1"/>
        <pt x="911" y="-148" on="0"/>
        <pt x="911" y="-164" on="1"/>
        <pt x="911" y="-198" on="0"/>
        <pt x="771" y="-198" on="0"/>
        <pt x="661" y="-146" on="0"/>
        <pt x="593" y="-62" on="0"/>
        <pt x="538" y="39" on="0"/>
        <pt x="490" y="139" on="0"/>
        <pt x="437" y="223" on="0"/>
        <pt x="355" y="275" on="0"/>
        <pt x="302" y="275" on="1"/>
        <pt x="276" y="275" on="0"/>
        <pt x="276" y="303" on="1"/>
        <pt x="276" y="315" on="0"/>
        <pt x="292" y="327" on="0"/>
        <pt x="302" y="327" on="1"/>
        <pt x="395" y="327" on="0"/>
        <pt x="503" y="436" on="0"/>
        <pt x="503" y="506" on="1"/>
        <pt x="503" y="604" on="0"/>
        <pt x="371" y="698" on="0"/>
        <pt x="174" y="698" on="0"/>
        <pt x="21" y="605" on="0"/>
      </contour>
      <contour>
        <pt x="137" y="595" on="0"/>
        <pt x="167" y="626" on="0"/>
        <pt x="209" y="626" on="0"/>
        <pt x="229" y="612" on="1"/>
        <pt x="229" y="171" on="1"/>
        <pt x="229" y="66" on="0"/>
        <pt x="150" y="-58" on="0"/>
        <pt x="-9" y="-58" on="0"/>
        <pt x="-89" y="15" on="0"/>
        <pt x="-89" y="75" on="1"/>
        <pt x="-89" y="152" on="0"/>
        <pt x="-39" y="152" on="1"/>
        <pt x="-27" y="152" on="0"/>
        <pt x="-9" y="140" on="0"/>
        <pt x="-3" y="129" on="1"/>
        <pt x="-11" y="108" on="0"/>
        <pt x="-11" y="26" on="0"/>
        <pt x="32" y="-17" on="0"/>
        <pt x="65" y="-17" on="1"/>
        <pt x="137" y="-17" on="0"/>
        <pt x="137" y="111" on="1"/>
        <pt x="137" y="565" on="1"/>
      </contour>
    </TTGlyph>
    <TTGlyph name="S" xMin="2" yMin="-46" xMax="552" yMax="740">
      <contour>
        <pt x="460" y="153" on="1"/>
        <pt x="460" y="201" on="0"/>
        <pt x="415" y="269" on="0"/>
        <pt x="344" y="307" on="0"/>
        <pt x="258" y="337" on="0"/>
        <pt x="172" y="368" on="0"/>
        <pt x="101" y="411" on="0"/>
        <pt x="56" y="487" on="0"/>
        <pt x="56" y="541" on="1"/>
        <pt x="56" y="634" on="0"/>
        <pt x="193" y="740" on="0"/>
        <pt x="408" y="740" on="0"/>
        <pt x="536" y="642" on="0"/>
        <pt x="536" y="584" on="1"/>
        <pt x="536" y="544" on="0"/>
        <pt x="505" y="505" on="0"/>
        <pt x="484" y="505" on="1"/>
        <pt x="445" y="505" on="0"/>
        <pt x="434" y="520" on="1"/>
        <pt x="431" y="525" on="1"/>
        <pt x="441" y="538" on="0"/>
        <pt x="441" y="575" on="1"/>
        <pt x="441" y="632" on="0"/>
        <pt x="345" y="697" on="0"/>
        <pt x="218" y="697" on="0"/>
        <pt x="144" y="629" on="0"/>
        <pt x="144" y="531" on="0"/>
        <pt x="189" y="466" on="0"/>
        <pt x="261" y="430" on="0"/>
        <pt x="348" y="402" on="0"/>
        <pt x="435" y="369" on="0"/>
        <pt x="507" y="322" on="0"/>
        <pt x="552" y="236" on="0"/>
        <pt x="552" y="175" on="1"/>
        <pt x="552" y="68" on="0"/>
        <pt x="400" y="-46" on="0"/>
        <pt x="171" y="-46" on="0"/>
        <pt x="2" y="71" on="0"/>
        <pt x="2" y="159" on="1"/>
        <pt x="2" y="200" on="0"/>
        <pt x="34" y="247" on="0"/>
        <pt x="56" y="247" on="1"/>
        <pt x="95" y="247" on="0"/>
        <pt x="106" y="234" on="1"/>
        <pt x="109" y="229" on="1"/>
        <pt x="100" y="204" on="0"/>
        <pt x="100" y="168" on="1"/>
        <pt x="100" y="100" on="0"/>
        <pt x="211" y="-2" on="0"/>
        <pt x="301" y="-2" on="1"/>
        <pt x="366" y="-2" on="0"/>
        <pt x="460" y="89" on="0"/>
      </contour>
    </TTGlyph>
    <TTGlyph name="Scaron" xMin="2" yMin="-46" xMax="552" yMax="1037">
      <contour>
        <pt x="460" y="153" on="1"/>
        <pt x="460" y="201" on="0"/>
        <pt x="415" y="269" on="0"/>
        <pt x="344" y="307" on="0"/>
        <pt x="258" y="337" on="0"/>
        <pt x="172" y="368" on="0"/>
        <pt x="101" y="411" on="0"/>
        <pt x="56" y="487" on="0"/>
        <pt x="56" y="541" on="1"/>
        <pt x="56" y="634" on="0"/>
        <pt x="193" y="740" on="0"/>
        <pt x="408" y="740" on="0"/>
        <pt x="536" y="642" on="0"/>
        <pt x="536" y="584" on="1"/>
        <pt x="536" y="544" on="0"/>
        <pt x="505" y="505" on="0"/>
        <pt x="484" y="505" on="1"/>
        <pt x="445" y="505" on="0"/>
        <pt x="434" y="520" on="1"/>
        <pt x="431" y="525" on="1"/>
        <pt x="441" y="538" on="0"/>
        <pt x="441" y="575" on="1"/>
        <pt x="441" y="632" on="0"/>
        <pt x="345" y="697" on="0"/>
        <pt x="218" y="697" on="0"/>
        <pt x="144" y="629" on="0"/>
        <pt x="144" y="531" on="0"/>
        <pt x="189" y="466" on="0"/>
        <pt x="261" y="430" on="0"/>
        <pt x="348" y="402" on="0"/>
        <pt x="435" y="369" on="0"/>
        <pt x="507" y="322" on="0"/>
        <pt x="552" y="236" on="0"/>
        <pt x="552" y="175" on="1"/>
        <pt x="552" y="68" on="0"/>
        <pt x="400" y="-46" on="0"/>
        <pt x="171" y="-46" on="0"/>
        <pt x="2" y="71" on="0"/>
        <pt x="2" y="159" on="1"/>
        <pt x="2" y="200" on="0"/>
        <pt x="34" y="247" on="0"/>
        <pt x="56" y="247" on="1"/>
        <pt x="95" y="247" on="0"/>
        <pt x="106" y="234" on="1"/>
        <pt x="109" y="229" on="1"/>
        <pt x="100" y="204" on="0"/>
        <pt x="100" y="168" on="1"/>
        <pt x="100" y="100" on="0"/>
        <pt x="211" y="-2" on="0"/>
        <pt x="301" y="-2" on="1"/>
        <pt x="366" y="-2" on="0"/>
        <pt x="460" y="89" on="0"/>
      </contour>
      <contour>
        <pt x="296" y="802" on="1"/>
        <pt x="284" y="802" on="0"/>
        <pt x="260" y="818" on="0"/>
        <pt x="248" y="835" on="1"/>
        <pt x="134" y="999" on="1"/>
        <pt x="138" y="1014" on="0"/>
        <pt x="162" y="1037" on="0"/>
        <pt x="176" y="1037" on="1"/>
        <pt x="201" y="1037" on="0"/>
        <pt x="223" y="1005" on="1"/>
        <pt x="296" y="900" on="1"/>
        <pt x="370" y="1005" on="1"/>
        <pt x="392" y="1037" on="0"/>
        <pt x="417" y="1037" on="1"/>
        <pt x="431" y="1037" on="0"/>
        <pt x="452" y="1018" on="0"/>
        <pt x="459" y="999" on="1"/>
        <pt x="345" y="835" on="1"/>
        <pt x="322" y="802" on="0"/>
      </contour>
    </TTGlyph>
    <TTGlyph name="T" xMin="-98" yMin="-58" xMax="840" yMax="895">
      <contour>
        <pt x="719" y="880" on="1"/>
        <pt x="719" y="895" on="0"/>
        <pt x="778" y="895" on="0"/>
        <pt x="840" y="830" on="0"/>
        <pt x="840" y="788" on="1"/>
        <pt x="840" y="634" on="0"/>
        <pt x="611" y="634" on="1"/>
        <pt x="519" y="634" on="0"/>
        <pt x="441" y="650" on="1"/>
        <pt x="441" y="171" on="1"/>
        <pt x="441" y="66" on="0"/>
        <pt x="362" y="-58" on="0"/>
        <pt x="203" y="-58" on="0"/>
        <pt x="123" y="15" on="0"/>
        <pt x="123" y="75" on="1"/>
        <pt x="123" y="152" on="0"/>
        <pt x="173" y="152" on="1"/>
        <pt x="185" y="152" on="0"/>
        <pt x="203" y="140" on="0"/>
        <pt x="209" y="129" on="1"/>
        <pt x="201" y="108" on="0"/>
        <pt x="201" y="26" on="0"/>
        <pt x="244" y="-17" on="0"/>
        <pt x="277" y="-17" on="1"/>
        <pt x="346" y="-17" on="0"/>
        <pt x="349" y="111" on="1"/>
        <pt x="349" y="672" on="1"/>
        <pt x="283" y="691" on="0"/>
        <pt x="221" y="719" on="1"/>
        <pt x="156" y="641" on="0"/>
        <pt x="24" y="641" on="1"/>
        <pt x="-30" y="641" on="0"/>
        <pt x="-98" y="688" on="0"/>
        <pt x="-98" y="736" on="1"/>
        <pt x="-98" y="832" on="0"/>
        <pt x="22" y="832" on="1"/>
        <pt x="108" y="832" on="0"/>
        <pt x="273" y="768" on="1"/>
        <pt x="334" y="745" on="0"/>
        <pt x="519" y="705" on="0"/>
        <pt x="711" y="705" on="0"/>
        <pt x="781" y="747" on="0"/>
        <pt x="781" y="788" on="1"/>
        <pt x="781" y="813" on="0"/>
        <pt x="754" y="850" on="0"/>
        <pt x="740" y="856" on="1"/>
        <pt x="727" y="862" on="1"/>
        <pt x="719" y="868" on="0"/>
      </contour>
      <contour>
        <pt x="23" y="687" on="1"/>
        <pt x="130" y="687" on="0"/>
        <pt x="172" y="740" on="1"/>
        <pt x="65" y="787" on="0"/>
        <pt x="-10" y="787" on="0"/>
        <pt x="-43" y="760" on="0"/>
        <pt x="-43" y="739" on="1"/>
        <pt x="-43" y="687" on="0"/>
      </contour>
    </TTGlyph>
    <TTGlyph name="Thorn" xMin="100" yMin="-17" xMax="497" yMax="819">
      <contour>
        <pt x="100" y="788" on="0"/>
        <pt x="137" y="819" on="0"/>
        <pt x="185" y="819" on="0"/>
        <pt x="191" y="805" on="1"/>
        <pt x="191" y="624" on="1"/>
        <pt x="193" y="625" on="0"/>
        <pt x="218" y="645" on="0"/>
        <pt x="228" y="652" on="1"/>
        <pt x="258" y="670" on="0"/>
        <pt x="300" y="670" on="1"/>
        <pt x="382" y="670" on="0"/>
        <pt x="497" y="532" on="0"/>
        <pt x="497" y="304" on="0"/>
        <pt x="382" y="164" on="0"/>
        <pt x="300" y="164" on="1"/>
        <pt x="246" y="164" on="0"/>
        <pt x="202" y="200" on="1"/>
        <pt x="193" y="208" on="0"/>
        <pt x="191" y="209" on="1"/>
        <pt x="192" y="44" on="1"/>
        <pt x="192" y="-17" on="0"/>
        <pt x="147" y="-17" on="1"/>
        <pt x="123" y="-17" on="0"/>
        <pt x="101" y="-3" on="1"/>
        <pt x="100" y="758" on="1"/>
      </contour>
      <contour>
        <pt x="292" y="226" on="1"/>
        <pt x="340" y="226" on="0"/>
        <pt x="401" y="324" on="0"/>
        <pt x="401" y="508" on="0"/>
        <pt x="341" y="608" on="0"/>
        <pt x="292" y="608" on="1"/>
        <pt x="254" y="608" on="0"/>
        <pt x="225" y="585" on="1"/>
        <pt x="215" y="577" on="0"/>
        <pt x="193" y="555" on="0"/>
        <pt x="191" y="554" on="1"/>
        <pt x="191" y="280" on="1"/>
        <pt x="216" y="255" on="0"/>
        <pt x="226" y="248" on="1"/>
        <pt x="255" y="226" on="0"/>
      </contour>
    </TTGlyph>
    <TTGlyph name="U" xMin="-148" yMin="-39" xMax="798" yMax="734">
      <contour>
        <pt x="486" y="683" on="0"/>
        <pt x="516" y="714" on="0"/>
        <pt x="559" y="714" on="0"/>
        <pt x="579" y="700" on="1"/>
        <pt x="579" y="157" on="1"/>
        <pt x="579" y="99" on="0"/>
        <pt x="626" y="29" on="0"/>
        <pt x="664" y="29" on="1"/>
        <pt x="758" y="29" on="0"/>
        <pt x="758" y="217" on="1"/>
        <pt x="759" y="223" on="0"/>
        <pt x="778" y="223" on="0"/>
        <pt x="783" y="220" on="1"/>
        <pt x="798" y="209" on="0"/>
        <pt x="798" y="171" on="1"/>
        <pt x="798" y="87" on="0"/>
        <pt x="718" y="-17" on="0"/>
        <pt x="652" y="-17" on="1"/>
        <pt x="525" y="-17" on="0"/>
        <pt x="497" y="115" on="1"/>
        <pt x="476" y="45" on="0"/>
        <pt x="375" y="-39" on="0"/>
        <pt x="306" y="-39" on="1"/>
        <pt x="203" y="-38" on="0"/>
        <pt x="101" y="114" on="0"/>
        <pt x="101" y="243" on="1"/>
        <pt x="101" y="560" on="1"/>
        <pt x="101" y="618" on="0"/>
        <pt x="54" y="688" on="0"/>
        <pt x="-27" y="688" on="0"/>
        <pt x="-76" y="623" on="0"/>
        <pt x="-76" y="540" on="1"/>
        <pt x="-76" y="522" on="0"/>
        <pt x="-68" y="504" on="1"/>
        <pt x="-77" y="492" on="0"/>
        <pt x="-119" y="492" on="0"/>
        <pt x="-148" y="522" on="0"/>
        <pt x="-148" y="556" on="1"/>
        <pt x="-148" y="635" on="0"/>
        <pt x="-52" y="734" on="0"/>
        <pt x="28" y="734" on="1"/>
        <pt x="123" y="734" on="0"/>
        <pt x="158" y="667" on="1"/>
        <pt x="190" y="608" on="0"/>
        <pt x="190" y="500" on="1"/>
        <pt x="190" y="247" on="1"/>
        <pt x="190" y="11" on="0"/>
        <pt x="306" y="11" on="1"/>
        <pt x="389" y="11" on="0"/>
        <pt x="486" y="169" on="0"/>
        <pt x="486" y="292" on="1"/>
        <pt x="486" y="653" on="1"/>
      </contour>
    </TTGlyph>
    <TTGlyph name="Uacute" xMin="-148" yMin="-39" xMax="798" yMax="1052">
      <contour>
        <pt x="486" y="683" on="0"/>
        <pt x="516" y="714" on="0"/>
        <pt x="559" y="714" on="0"/>
        <pt x="579" y="700" on="1"/>
        <pt x="579" y="157" on="1"/>
        <pt x="579" y="99" on="0"/>
        <pt x="626" y="29" on="0"/>
        <pt x="664" y="29" on="1"/>
        <pt x="758" y="29" on="0"/>
        <pt x="758" y="217" on="1"/>
        <pt x="759" y="223" on="0"/>
        <pt x="778" y="223" on="0"/>
        <pt x="783" y="220" on="1"/>
        <pt x="798" y="209" on="0"/>
        <pt x="798" y="171" on="1"/>
        <pt x="798" y="87" on="0"/>
        <pt x="718" y="-17" on="0"/>
        <pt x="652" y="-17" on="1"/>
        <pt x="525" y="-17" on="0"/>
        <pt x="497" y="115" on="1"/>
        <pt x="476" y="45" on="0"/>
        <pt x="375" y="-39" on="0"/>
        <pt x="306" y="-39" on="1"/>
        <pt x="203" y="-38" on="0"/>
        <pt x="101" y="114" on="0"/>
        <pt x="101" y="243" on="1"/>
        <pt x="101" y="560" on="1"/>
        <pt x="101" y="618" on="0"/>
        <pt x="54" y="688" on="0"/>
        <pt x="-27" y="688" on="0"/>
        <pt x="-76" y="623" on="0"/>
        <pt x="-76" y="540" on="1"/>
        <pt x="-76" y="522" on="0"/>
        <pt x="-68" y="504" on="1"/>
        <pt x="-77" y="492" on="0"/>
        <pt x="-119" y="492" on="0"/>
        <pt x="-148" y="522" on="0"/>
        <pt x="-148" y="556" on="1"/>
        <pt x="-148" y="635" on="0"/>
        <pt x="-52" y="734" on="0"/>
        <pt x="28" y="734" on="1"/>
        <pt x="123" y="734" on="0"/>
        <pt x="158" y="667" on="1"/>
        <pt x="190" y="608" on="0"/>
        <pt x="190" y="500" on="1"/>
        <pt x="190" y="247" on="1"/>
        <pt x="190" y="11" on="0"/>
        <pt x="306" y="11" on="1"/>
        <pt x="389" y="11" on="0"/>
        <pt x="486" y="169" on="0"/>
        <pt x="486" y="292" on="1"/>
        <pt x="486" y="653" on="1"/>
      </contour>
      <contour>
        <pt x="318" y="787" on="1"/>
        <pt x="304" y="787" on="0"/>
        <pt x="283" y="806" on="0"/>
        <pt x="276" y="825" on="1"/>
        <pt x="385" y="1019" on="1"/>
        <pt x="404" y="1052" on="0"/>
        <pt x="433" y="1052" on="1"/>
        <pt x="447" y="1052" on="0"/>
        <pt x="468" y="1033" on="0"/>
        <pt x="476" y="1014" on="1"/>
        <pt x="365" y="819" on="1"/>
        <pt x="346" y="787" on="0"/>
      </contour>
    </TTGlyph>
    <TTGlyph name="Ucircumflex" xMin="-148" yMin="-39" xMax="798" yMax="1010">
      <component glyphName="U" x="0" y="0" flags="0x1004"/>
      <component glyphName="circumflex" x="235" y="262" flags="0x1004"/>
    </TTGlyph>
    <TTGlyph name="Udieresis" xMin="-148" yMin="-39" xMax="798" yMax="896">
      <contour>
        <pt x="486" y="683" on="0"/>
        <pt x="516" y="714" on="0"/>
        <pt x="559" y="714" on="0"/>
        <pt x="579" y="700" on="1"/>
        <pt x="579" y="157" on="1"/>
        <pt x="579" y="99" on="0"/>
        <pt x="626" y="29" on="0"/>
        <pt x="664" y="29" on="1"/>
        <pt x="758" y="29" on="0"/>
        <pt x="758" y="217" on="1"/>
        <pt x="759" y="223" on="0"/>
        <pt x="778" y="223" on="0"/>
        <pt x="783" y="220" on="1"/>
        <pt x="798" y="209" on="0"/>
        <pt x="798" y="171" on="1"/>
        <pt x="798" y="87" on="0"/>
        <pt x="718" y="-17" on="0"/>
        <pt x="652" y="-17" on="1"/>
        <pt x="525" y="-17" on="0"/>
        <pt x="497" y="115" on="1"/>
        <pt x="476" y="45" on="0"/>
        <pt x="375" y="-39" on="0"/>
        <pt x="306" y="-39" on="1"/>
        <pt x="203" y="-38" on="0"/>
        <pt x="101" y="114" on="0"/>
        <pt x="101" y="243" on="1"/>
        <pt x="101" y="560" on="1"/>
        <pt x="101" y="618" on="0"/>
        <pt x="54" y="688" on="0"/>
        <pt x="-27" y="688" on="0"/>
        <pt x="-76" y="623" on="0"/>
        <pt x="-76" y="540" on="1"/>
        <pt x="-76" y="522" on="0"/>
        <pt x="-68" y="504" on="1"/>
        <pt x="-77" y="492" on="0"/>
        <pt x="-119" y="492" on="0"/>
        <pt x="-148" y="522" on="0"/>
        <pt x="-148" y="556" on="1"/>
        <pt x="-148" y="635" on="0"/>
        <pt x="-52" y="734" on="0"/>
        <pt x="28" y="734" on="1"/>
        <pt x="123" y="734" on="0"/>
        <pt x="158" y="667" on="1"/>
        <pt x="190" y="608" on="0"/>
        <pt x="190" y="500" on="1"/>
        <pt x="190" y="247" on="1"/>
        <pt x="190" y="11" on="0"/>
        <pt x="306" y="11" on="1"/>
        <pt x="389" y="11" on="0"/>
        <pt x="486" y="169" on="0"/>
        <pt x="486" y="292" on="1"/>
        <pt x="486" y="653" on="1"/>
      </contour>
      <contour>
        <pt x="177" y="828" on="0"/>
        <pt x="177" y="868" on="0"/>
        <pt x="204" y="896" on="0"/>
        <pt x="244" y="896" on="0"/>
        <pt x="272" y="868" on="0"/>
        <pt x="272" y="828" on="0"/>
        <pt x="244" y="801" on="0"/>
        <pt x="204" y="801" on="0"/>
      </contour>
      <contour>
        <pt x="326" y="828" on="0"/>
        <pt x="326" y="868" on="0"/>
        <pt x="353" y="896" on="0"/>
        <pt x="393" y="896" on="0"/>
        <pt x="421" y="868" on="0"/>
        <pt x="421" y="828" on="0"/>
        <pt x="393" y="801" on="0"/>
        <pt x="354" y="801" on="0"/>
      </contour>
    </TTGlyph>
    <TTGlyph name="Ugrave" xMin="-148" yMin="-39" xMax="798" yMax="1052">
      <component glyphName="U" x="0" y="0" flags="0x1004"/>
      <component glyphName="grave" x="171" y="262" flags="0x1004"/>
    </TTGlyph>
    <TTGlyph name="V" xMin="27" yMin="-48" xMax="826" yMax="729">
      <contour>
        <pt x="820" y="510" on="1"/>
        <pt x="826" y="509" on="0"/>
        <pt x="826" y="490" on="0"/>
        <pt x="822" y="485" on="1"/>
        <pt x="812" y="470" on="0"/>
        <pt x="774" y="470" on="1"/>
        <pt x="744" y="470" on="1"/>
        <pt x="736" y="203" on="0"/>
        <pt x="583" y="-48" on="0"/>
        <pt x="469" y="-48" on="1"/>
        <pt x="247" y="-48" on="0"/>
        <pt x="247" y="260" on="1"/>
        <pt x="247" y="438" on="1"/>
        <pt x="246" y="566" on="0"/>
        <pt x="202" y="666" on="0"/>
        <pt x="161" y="666" on="1"/>
        <pt x="67" y="666" on="0"/>
        <pt x="67" y="478" on="1"/>
        <pt x="65" y="472" on="0"/>
        <pt x="47" y="472" on="0"/>
        <pt x="42" y="476" on="1"/>
        <pt x="27" y="486" on="0"/>
        <pt x="27" y="524" on="1"/>
        <pt x="27" y="616" on="0"/>
        <pt x="105" y="712" on="0"/>
        <pt x="173" y="712" on="1"/>
        <pt x="269" y="712" on="0"/>
        <pt x="337" y="590" on="0"/>
        <pt x="337" y="438" on="1"/>
        <pt x="337" y="255" on="1"/>
        <pt x="337" y="112" on="0"/>
        <pt x="399" y="-8" on="0"/>
        <pt x="543" y="-8" on="0"/>
        <pt x="655" y="243" on="0"/>
        <pt x="655" y="477" on="1"/>
        <pt x="480" y="503" on="0"/>
        <pt x="480" y="626" on="1"/>
        <pt x="480" y="671" on="0"/>
        <pt x="537" y="729" on="0"/>
        <pt x="586" y="729" on="1"/>
        <pt x="662" y="729" on="0"/>
        <pt x="737" y="622" on="0"/>
        <pt x="745" y="512" on="1"/>
        <pt x="791" y="510" on="0"/>
      </contour>
      <contour>
        <pt x="526" y="629" on="1"/>
        <pt x="526" y="545" on="0"/>
        <pt x="654" y="521" on="1"/>
        <pt x="651" y="615" on="0"/>
        <pt x="618" y="687" on="0"/>
        <pt x="561" y="687" on="0"/>
        <pt x="526" y="653" on="0"/>
      </contour>
    </TTGlyph>
    <TTGlyph name="W" xMin="-72" yMin="-43" xMax="1156" yMax="729">
      <contour>
        <pt x="647" y="690" on="1"/>
        <pt x="639" y="363" on="1"/>
        <pt x="639" y="202" on="0"/>
        <pt x="670" y="108" on="1"/>
        <pt x="705" y="-3" on="0"/>
        <pt x="809" y="-3" on="1"/>
        <pt x="881" y="-3" on="0"/>
        <pt x="984" y="243" on="0"/>
        <pt x="985" y="477" on="1"/>
        <pt x="810" y="503" on="0"/>
        <pt x="810" y="626" on="1"/>
        <pt x="810" y="671" on="0"/>
        <pt x="867" y="729" on="0"/>
        <pt x="916" y="729" on="1"/>
        <pt x="993" y="729" on="0"/>
        <pt x="1070" y="620" on="0"/>
        <pt x="1075" y="512" on="1"/>
        <pt x="1121" y="510" on="0"/>
        <pt x="1150" y="510" on="1"/>
        <pt x="1156" y="509" on="0"/>
        <pt x="1156" y="490" on="0"/>
        <pt x="1152" y="485" on="1"/>
        <pt x="1142" y="470" on="0"/>
        <pt x="1104" y="470" on="1"/>
        <pt x="1074" y="470" on="1"/>
        <pt x="1065" y="80" on="0"/>
        <pt x="909" y="-16" on="1"/>
        <pt x="864" y="-43" on="0"/>
        <pt x="809" y="-43" on="1"/>
        <pt x="651" y="-43" on="0"/>
        <pt x="587" y="135" on="1"/>
        <pt x="565" y="70" on="0"/>
        <pt x="489" y="-13" on="0"/>
        <pt x="413" y="-43" on="0"/>
        <pt x="371" y="-43" on="1"/>
        <pt x="148" y="-43" on="0"/>
        <pt x="148" y="265" on="1"/>
        <pt x="148" y="438" on="1"/>
        <pt x="147" y="566" on="0"/>
        <pt x="103" y="666" on="0"/>
        <pt x="62" y="666" on="1"/>
        <pt x="-32" y="666" on="0"/>
        <pt x="-32" y="478" on="1"/>
        <pt x="-34" y="472" on="0"/>
        <pt x="-52" y="472" on="0"/>
        <pt x="-57" y="476" on="1"/>
        <pt x="-72" y="486" on="0"/>
        <pt x="-72" y="524" on="1"/>
        <pt x="-72" y="616" on="0"/>
        <pt x="6" y="712" on="0"/>
        <pt x="74" y="712" on="1"/>
        <pt x="170" y="712" on="0"/>
        <pt x="238" y="590" on="0"/>
        <pt x="238" y="438" on="1"/>
        <pt x="238" y="260" on="1"/>
        <pt x="238" y="117" on="0"/>
        <pt x="301" y="-3" on="0"/>
        <pt x="435" y="-3" on="0"/>
        <pt x="472" y="52" on="1"/>
        <pt x="545" y="161" on="0"/>
        <pt x="545" y="653" on="1"/>
        <pt x="545" y="682" on="0"/>
        <pt x="580" y="714" on="0"/>
        <pt x="623" y="714" on="0"/>
      </contour>
      <contour>
        <pt x="856" y="629" on="1"/>
        <pt x="856" y="545" on="0"/>
        <pt x="984" y="521" on="1"/>
        <pt x="981" y="615" on="0"/>
        <pt x="948" y="687" on="0"/>
        <pt x="891" y="687" on="0"/>
        <pt x="856" y="653" on="0"/>
      </contour>
    </TTGlyph>
    <TTGlyph name="X" xMin="-71" yMin="-17" xMax="798" yMax="746">
      <contour>
        <pt x="1" y="572" on="1"/>
        <pt x="1" y="554" on="0"/>
        <pt x="9" y="536" on="1"/>
        <pt x="0" y="524" on="0"/>
        <pt x="-42" y="524" on="0"/>
        <pt x="-71" y="554" on="0"/>
        <pt x="-71" y="588" on="1"/>
        <pt x="-71" y="658" on="0"/>
        <pt x="20" y="746" on="0"/>
        <pt x="165" y="746" on="0"/>
        <pt x="280" y="646" on="0"/>
        <pt x="308" y="576" on="1"/>
        <pt x="371" y="419" on="1"/>
        <pt x="458" y="592" on="0"/>
        <pt x="528" y="653" on="1"/>
        <pt x="595" y="711" on="0"/>
        <pt x="672" y="711" on="1"/>
        <pt x="701" y="711" on="0"/>
        <pt x="701" y="680" on="1"/>
        <pt x="701" y="664" on="0"/>
        <pt x="671" y="647" on="0"/>
        <pt x="623" y="647" on="0"/>
        <pt x="562" y="611" on="0"/>
        <pt x="518" y="565" on="0"/>
        <pt x="490" y="518" on="1"/>
        <pt x="449" y="451" on="0"/>
        <pt x="400" y="349" on="1"/>
        <pt x="460" y="201" on="1"/>
        <pt x="486" y="136" on="0"/>
        <pt x="584" y="29" on="0"/>
        <pt x="696" y="29" on="0"/>
        <pt x="758" y="115" on="0"/>
        <pt x="758" y="217" on="1"/>
        <pt x="759" y="223" on="0"/>
        <pt x="778" y="223" on="0"/>
        <pt x="783" y="220" on="1"/>
        <pt x="798" y="209" on="0"/>
        <pt x="798" y="171" on="1"/>
        <pt x="798" y="87" on="0"/>
        <pt x="705" y="-17" on="0"/>
        <pt x="630" y="-17" on="1"/>
        <pt x="540" y="-17" on="0"/>
        <pt x="405" y="101" on="0"/>
        <pt x="366" y="198" on="1"/>
        <pt x="347" y="245" on="1"/>
        <pt x="283" y="122" on="0"/>
        <pt x="153" y="-15" on="0"/>
        <pt x="68" y="-15" on="1"/>
        <pt x="41" y="-15" on="0"/>
        <pt x="41" y="6" on="1"/>
        <pt x="41" y="31" on="0"/>
        <pt x="64" y="31" on="1"/>
        <pt x="145" y="31" on="0"/>
        <pt x="208" y="118" on="1"/>
        <pt x="264" y="194" on="0"/>
        <pt x="321" y="314" on="1"/>
        <pt x="228" y="554" on="1"/>
        <pt x="195" y="638" on="0"/>
        <pt x="125" y="700" on="0"/>
        <pt x="45" y="700" on="0"/>
        <pt x="1" y="644" on="0"/>
      </contour>
    </TTGlyph>
    <TTGlyph name="Y" xMin="70" yMin="-404" xMax="591" yMax="714">
      <contour>
        <pt x="70" y="683" on="0"/>
        <pt x="100" y="714" on="0"/>
        <pt x="144" y="714" on="0"/>
        <pt x="160" y="700" on="1"/>
        <pt x="160" y="348" on="1"/>
        <pt x="160" y="27" on="0"/>
        <pt x="316" y="27" on="1"/>
        <pt x="412" y="27" on="0"/>
        <pt x="502" y="211" on="0"/>
        <pt x="502" y="368" on="1"/>
        <pt x="502" y="653" on="1"/>
        <pt x="502" y="683" on="0"/>
        <pt x="532" y="714" on="0"/>
        <pt x="559" y="714" on="0"/>
        <pt x="573" y="711" on="0"/>
        <pt x="578" y="709" on="1"/>
        <pt x="588" y="704" on="0"/>
        <pt x="591" y="700" on="1"/>
        <pt x="591" y="-155" on="1"/>
        <pt x="591" y="-404" on="0"/>
        <pt x="412" y="-404" on="1"/>
        <pt x="340" y="-404" on="0"/>
        <pt x="253" y="-317" on="0"/>
        <pt x="253" y="-242" on="1"/>
        <pt x="253" y="-200" on="0"/>
        <pt x="290" y="-123" on="0"/>
        <pt x="343" y="-69" on="0"/>
        <pt x="380" y="-44" on="1"/>
        <pt x="430" y="-9" on="0"/>
        <pt x="501" y="20" on="1"/>
        <pt x="501" y="64" on="1"/>
        <pt x="432" y="-13" on="0"/>
        <pt x="191" y="-12" on="0"/>
        <pt x="70" y="177" on="0"/>
        <pt x="70" y="348" on="1"/>
        <pt x="70" y="653" on="1"/>
      </contour>
      <contour>
        <pt x="364" y="-365" on="0"/>
        <pt x="458" y="-365" on="0"/>
        <pt x="501" y="-275" on="0"/>
        <pt x="501" y="-155" on="1"/>
        <pt x="501" y="-20" on="1"/>
        <pt x="432" y="-51" on="0"/>
        <pt x="372" y="-100" on="1"/>
        <pt x="338" y="-129" on="0"/>
        <pt x="296" y="-204" on="0"/>
        <pt x="296" y="-301" on="0"/>
      </contour>
    </TTGlyph>
    <TTGlyph name="Yacute" xMin="70" yMin="-404" xMax="591" yMax="1052">
      <component glyphName="Y" x="0" y="0" flags="0x1004"/>
      <component glyphName="acute" x="239" y="262" flags="0x1004"/>
    </TTGlyph>
    <TTGlyph name="Ydieresis" xMin="70" yMin="-404" xMax="591" yMax="900">
      <component glyphName="Y" x="0" y="0" flags="0x1004"/>
      <component glyphName="dieresis" x="99" y="266" flags="0x1004"/>
    </TTGlyph>
    <TTGlyph name="Z" xMin="22" yMin="-52" xMax="810" yMax="751">
      <contour>
        <pt x="131" y="593" on="1"/>
        <pt x="131" y="578" on="0"/>
        <pt x="137" y="564" on="1"/>
        <pt x="127" y="548" on="0"/>
        <pt x="77" y="548" on="0"/>
        <pt x="45" y="586" on="0"/>
        <pt x="45" y="622" on="1"/>
        <pt x="45" y="678" on="0"/>
        <pt x="135" y="751" on="0"/>
        <pt x="280" y="751" on="0"/>
        <pt x="412" y="698" on="0"/>
        <pt x="531" y="639" on="0"/>
        <pt x="571" y="634" on="1"/>
        <pt x="646" y="711" on="0"/>
        <pt x="736" y="711" on="1"/>
        <pt x="742" y="702" on="0"/>
        <pt x="742" y="690" on="1"/>
        <pt x="742" y="658" on="0"/>
        <pt x="661" y="600" on="0"/>
        <pt x="604" y="589" on="1"/>
        <pt x="551" y="533" on="0"/>
        <pt x="374" y="183" on="0"/>
        <pt x="322" y="117" on="1"/>
        <pt x="440" y="55" on="0"/>
        <pt x="552" y="19" on="0"/>
        <pt x="607" y="19" on="1"/>
        <pt x="691" y="19" on="0"/>
        <pt x="761" y="78" on="0"/>
        <pt x="761" y="132" on="1"/>
        <pt x="761" y="160" on="0"/>
        <pt x="734" y="202" on="0"/>
        <pt x="720" y="209" on="1"/>
        <pt x="707" y="216" on="1"/>
        <pt x="699" y="222" on="0"/>
        <pt x="699" y="239" on="1"/>
        <pt x="699" y="264" on="0"/>
        <pt x="763" y="264" on="0"/>
        <pt x="810" y="195" on="0"/>
        <pt x="810" y="132" on="1"/>
        <pt x="810" y="39" on="0"/>
        <pt x="688" y="-52" on="0"/>
        <pt x="606" y="-52" on="1"/>
        <pt x="505" y="-52" on="0"/>
        <pt x="419" y="-10" on="1"/>
        <pt x="350" y="24" on="0"/>
        <pt x="279" y="70" on="1"/>
        <pt x="209" y="5" on="0"/>
        <pt x="129" y="5" on="1"/>
        <pt x="82" y="5" on="0"/>
        <pt x="22" y="48" on="0"/>
        <pt x="22" y="134" on="0"/>
        <pt x="82" y="181" on="0"/>
        <pt x="196" y="181" on="0"/>
        <pt x="276" y="141" on="1"/>
        <pt x="321" y="198" on="0"/>
        <pt x="480" y="519" on="0"/>
        <pt x="528" y="584" on="1"/>
        <pt x="494" y="589" on="0"/>
        <pt x="287" y="685" on="0"/>
        <pt x="186" y="685" on="0"/>
        <pt x="131" y="633" on="0"/>
      </contour>
      <contour>
        <pt x="77" y="93" on="1"/>
        <pt x="77" y="51" on="0"/>
        <pt x="185" y="51" on="0"/>
        <pt x="237" y="98" on="1"/>
        <pt x="173" y="136" on="0"/>
        <pt x="110" y="136" on="0"/>
        <pt x="77" y="112" on="0"/>
      </contour>
    </TTGlyph>
    <TTGlyph name="Zcaron" xMin="22" yMin="-52" xMax="810" yMax="1037">
      <component glyphName="Z" x="0" y="0" flags="0x1004"/>
      <component glyphName="caron" x="275" y="262" flags="0x1004"/>
    </TTGlyph>
    <TTGlyph name="a" xMin="0" yMin="-3" xMax="575" yMax="452">
      <contour>
        <pt x="297" y="423" on="1"/>
        <pt x="310" y="452" on="0"/>
        <pt x="367" y="452" on="0"/>
        <pt x="381" y="438" on="1"/>
        <pt x="381" y="151" on="1"/>
        <pt x="381" y="94" on="0"/>
        <pt x="417" y="36" on="0"/>
        <pt x="448" y="36" on="1"/>
        <pt x="542" y="36" on="0"/>
        <pt x="542" y="231" on="1"/>
        <pt x="543" y="237" on="0"/>
        <pt x="557" y="237" on="1"/>
        <pt x="575" y="237" on="0"/>
        <pt x="575" y="184" on="1"/>
        <pt x="575" y="99" on="0"/>
        <pt x="502" y="-3" on="0"/>
        <pt x="436" y="-3" on="1"/>
        <pt x="335" y="-3" on="0"/>
        <pt x="302" y="86" on="1"/>
        <pt x="283" y="45" on="0"/>
        <pt x="217" y="-3" on="0"/>
        <pt x="175" y="-3" on="1"/>
        <pt x="0" y="-3" on="0"/>
        <pt x="0" y="226" on="1"/>
        <pt x="0" y="342" on="0"/>
        <pt x="109" y="452" on="0"/>
        <pt x="199" y="452" on="1"/>
        <pt x="268" y="452" on="0"/>
      </contour>
      <contour>
        <pt x="123" y="59" on="0"/>
        <pt x="159" y="36" on="0"/>
        <pt x="219" y="36" on="0"/>
        <pt x="290" y="111" on="0"/>
        <pt x="290" y="171" on="1"/>
        <pt x="290" y="308" on="1"/>
        <pt x="290" y="355" on="0"/>
        <pt x="241" y="413" on="0"/>
        <pt x="180" y="413" on="0"/>
        <pt x="144" y="401" on="0"/>
        <pt x="128" y="382" on="1"/>
        <pt x="95" y="346" on="0"/>
        <pt x="95" y="226" on="1"/>
        <pt x="95" y="147" on="0"/>
      </contour>
    </TTGlyph>
    <TTGlyph name="aacute" xMin="0" yMin="-3" xMax="575" yMax="790">
      <contour>
        <pt x="297" y="423" on="1"/>
        <pt x="310" y="452" on="0"/>
        <pt x="367" y="452" on="0"/>
        <pt x="381" y="438" on="1"/>
        <pt x="381" y="151" on="1"/>
        <pt x="381" y="94" on="0"/>
        <pt x="417" y="36" on="0"/>
        <pt x="448" y="36" on="1"/>
        <pt x="542" y="36" on="0"/>
        <pt x="542" y="231" on="1"/>
        <pt x="543" y="237" on="0"/>
        <pt x="557" y="237" on="1"/>
        <pt x="575" y="237" on="0"/>
        <pt x="575" y="184" on="1"/>
        <pt x="575" y="99" on="0"/>
        <pt x="502" y="-3" on="0"/>
        <pt x="436" y="-3" on="1"/>
        <pt x="335" y="-3" on="0"/>
        <pt x="302" y="86" on="1"/>
        <pt x="283" y="45" on="0"/>
        <pt x="217" y="-3" on="0"/>
        <pt x="175" y="-3" on="1"/>
        <pt x="0" y="-3" on="0"/>
        <pt x="0" y="226" on="1"/>
        <pt x="0" y="342" on="0"/>
        <pt x="109" y="452" on="0"/>
        <pt x="199" y="452" on="1"/>
        <pt x="268" y="452" on="0"/>
      </contour>
      <contour>
        <pt x="123" y="59" on="0"/>
        <pt x="159" y="36" on="0"/>
        <pt x="219" y="36" on="0"/>
        <pt x="290" y="111" on="0"/>
        <pt x="290" y="171" on="1"/>
        <pt x="290" y="308" on="1"/>
        <pt x="290" y="355" on="0"/>
        <pt x="241" y="413" on="0"/>
        <pt x="180" y="413" on="0"/>
        <pt x="144" y="401" on="0"/>
        <pt x="128" y="382" on="1"/>
        <pt x="95" y="346" on="0"/>
        <pt x="95" y="226" on="1"/>
        <pt x="95" y="147" on="0"/>
      </contour>
      <contour>
        <pt x="205" y="525" on="1"/>
        <pt x="191" y="525" on="0"/>
        <pt x="170" y="544" on="0"/>
        <pt x="163" y="563" on="1"/>
        <pt x="272" y="757" on="1"/>
        <pt x="291" y="790" on="0"/>
        <pt x="320" y="790" on="1"/>
        <pt x="334" y="790" on="0"/>
        <pt x="355" y="771" on="0"/>
        <pt x="363" y="752" on="1"/>
        <pt x="252" y="557" on="1"/>
        <pt x="233" y="525" on="0"/>
      </contour>
    </TTGlyph>
    <TTGlyph name="acircumflex" xMin="0" yMin="-3" xMax="575" yMax="776">
      <component glyphName="a" x="0" y="0" flags="0x1004"/>
      <component glyphName="circumflex" x="70" y="28" flags="0x1004"/>
    </TTGlyph>
    <TTGlyph name="acute" xMin="-4" yMin="525" xMax="196" yMax="790">
      <contour>
        <pt x="38" y="525" on="1"/>
        <pt x="24" y="525" on="0"/>
        <pt x="3" y="544" on="0"/>
        <pt x="-4" y="563" on="1"/>
        <pt x="105" y="757" on="1"/>
        <pt x="124" y="790" on="0"/>
        <pt x="153" y="790" on="1"/>
        <pt x="167" y="790" on="0"/>
        <pt x="188" y="771" on="0"/>
        <pt x="196" y="752" on="1"/>
        <pt x="85" y="557" on="1"/>
        <pt x="66" y="525" on="0"/>
      </contour>
    </TTGlyph>
    <TTGlyph name="adieresis" xMin="0" yMin="-3" xMax="575" yMax="634">
      <component glyphName="a" x="0" y="0" flags="0x1004"/>
      <component glyphName="dieresis" x="27" y="0" flags="0x1004"/>
    </TTGlyph>
    <TTGlyph name="ae" xMin="256" yMin="-3" xMax="985" yMax="452">
      <contour>
        <pt x="553" y="423" on="1"/>
        <pt x="566" y="452" on="0"/>
        <pt x="623" y="452" on="0"/>
        <pt x="637" y="438" on="1"/>
        <pt x="637" y="422" on="1"/>
        <pt x="682" y="452" on="0"/>
        <pt x="807" y="452" on="0"/>
        <pt x="865" y="385" on="0"/>
        <pt x="865" y="339" on="1"/>
        <pt x="865" y="264" on="0"/>
        <pt x="740" y="165" on="0"/>
        <pt x="643" y="165" on="1"/>
        <pt x="652" y="101" on="0"/>
        <pt x="727" y="36" on="0"/>
        <pt x="850" y="36" on="0"/>
        <pt x="949" y="129" on="0"/>
        <pt x="949" y="219" on="1"/>
        <pt x="950" y="225" on="0"/>
        <pt x="964" y="225" on="1"/>
        <pt x="985" y="225" on="0"/>
        <pt x="985" y="193" on="1"/>
        <pt x="985" y="119" on="0"/>
        <pt x="882" y="-3" on="0"/>
        <pt x="784" y="-3" on="1"/>
        <pt x="626" y="-3" on="0"/>
        <pt x="570" y="102" on="1"/>
        <pt x="549" y="60" on="0"/>
        <pt x="528" y="40" on="1"/>
        <pt x="481" y="-3" on="0"/>
        <pt x="431" y="-3" on="1"/>
        <pt x="256" y="-3" on="0"/>
        <pt x="256" y="226" on="1"/>
        <pt x="256" y="342" on="0"/>
        <pt x="365" y="452" on="0"/>
        <pt x="455" y="452" on="1"/>
        <pt x="524" y="452" on="0"/>
      </contour>
      <contour>
        <pt x="379" y="59" on="0"/>
        <pt x="415" y="36" on="0"/>
        <pt x="475" y="36" on="0"/>
        <pt x="546" y="111" on="0"/>
        <pt x="546" y="171" on="1"/>
        <pt x="546" y="308" on="1"/>
        <pt x="546" y="347" on="0"/>
        <pt x="503" y="413" on="0"/>
        <pt x="436" y="413" on="0"/>
        <pt x="400" y="401" on="0"/>
        <pt x="384" y="382" on="1"/>
        <pt x="351" y="346" on="0"/>
        <pt x="351" y="226" on="1"/>
        <pt x="351" y="147" on="0"/>
      </contour>
      <contour>
        <pt x="640" y="211" on="1"/>
        <pt x="640" y="202" on="1"/>
        <pt x="702" y="210" on="0"/>
        <pt x="793" y="272" on="0"/>
        <pt x="793" y="333" on="1"/>
        <pt x="793" y="372" on="0"/>
        <pt x="759" y="413" on="0"/>
        <pt x="728" y="413" on="1"/>
        <pt x="681" y="413" on="0"/>
        <pt x="640" y="321" on="0"/>
      </contour>
    </TTGlyph>
    <TTGlyph name="agrave" xMin="0" yMin="-3" xMax="575" yMax="790">
      <component glyphName="a" x="0" y="0" flags="0x1004"/>
      <component glyphName="grave" x="55" y="0" flags="0x1004"/>
    </TTGlyph>
    <TTGlyph name="ampersand" xMin="1" yMin="-53" xMax="703" yMax="725">
      <contour>
        <pt x="514" y="96" on="1"/>
        <pt x="570" y="68" on="0"/>
        <pt x="645" y="68" on="0"/>
        <pt x="671" y="75" on="1"/>
        <pt x="683" y="72" on="0"/>
        <pt x="703" y="51" on="0"/>
        <pt x="703" y="16" on="0"/>
        <pt x="659" y="-18" on="0"/>
        <pt x="550" y="-18" on="0"/>
        <pt x="472" y="25" on="1"/>
        <pt x="399" y="-53" on="0"/>
        <pt x="152" y="-53" on="0"/>
        <pt x="1" y="57" on="0"/>
        <pt x="1" y="146" on="1"/>
        <pt x="1" y="234" on="0"/>
        <pt x="51" y="284" on="1"/>
        <pt x="94" y="325" on="0"/>
        <pt x="161" y="358" on="1"/>
        <pt x="104" y="466" on="0"/>
        <pt x="104" y="555" on="1"/>
        <pt x="104" y="620" on="0"/>
        <pt x="140" y="668" on="1"/>
        <pt x="182" y="725" on="0"/>
        <pt x="277" y="725" on="1"/>
        <pt x="418" y="725" on="0"/>
        <pt x="420" y="567" on="1"/>
        <pt x="420" y="477" on="0"/>
        <pt x="373" y="426" on="1"/>
        <pt x="332" y="381" on="0"/>
        <pt x="268" y="342" on="1"/>
        <pt x="336" y="223" on="0"/>
        <pt x="443" y="141" on="1"/>
        <pt x="448" y="170" on="0"/>
        <pt x="448" y="249" on="0"/>
        <pt x="439" y="274" on="1"/>
        <pt x="451" y="280" on="0"/>
        <pt x="486" y="280" on="0"/>
        <pt x="510" y="266" on="0"/>
        <pt x="530" y="221" on="0"/>
        <pt x="530" y="139" on="0"/>
      </contour>
      <contour>
        <pt x="142" y="266" on="0"/>
        <pt x="85" y="191" on="0"/>
        <pt x="85" y="79" on="0"/>
        <pt x="178" y="-9" on="0"/>
        <pt x="263" y="-9" on="1"/>
        <pt x="374" y="-9" on="0"/>
        <pt x="416" y="61" on="1"/>
        <pt x="286" y="154" on="0"/>
        <pt x="195" y="299" on="1"/>
      </contour>
      <contour>
        <pt x="352" y="620" on="0"/>
        <pt x="316" y="682" on="0"/>
        <pt x="238" y="682" on="0"/>
        <pt x="199" y="611" on="0"/>
        <pt x="199" y="483" on="0"/>
        <pt x="239" y="397" on="1"/>
        <pt x="293" y="427" on="0"/>
        <pt x="352" y="507" on="0"/>
      </contour>
    </TTGlyph>
    <TTGlyph name="aring" xMin="0" yMin="-3" xMax="575" yMax="761">
      <contour>
        <pt x="297" y="423" on="1"/>
        <pt x="310" y="452" on="0"/>
        <pt x="367" y="452" on="0"/>
        <pt x="381" y="438" on="1"/>
        <pt x="381" y="151" on="1"/>
        <pt x="381" y="94" on="0"/>
        <pt x="417" y="36" on="0"/>
        <pt x="448" y="36" on="1"/>
        <pt x="542" y="36" on="0"/>
        <pt x="542" y="231" on="1"/>
        <pt x="543" y="237" on="0"/>
        <pt x="557" y="237" on="1"/>
        <pt x="575" y="237" on="0"/>
        <pt x="575" y="184" on="1"/>
        <pt x="575" y="99" on="0"/>
        <pt x="502" y="-3" on="0"/>
        <pt x="436" y="-3" on="1"/>
        <pt x="335" y="-3" on="0"/>
        <pt x="302" y="86" on="1"/>
        <pt x="283" y="45" on="0"/>
        <pt x="217" y="-3" on="0"/>
        <pt x="175" y="-3" on="1"/>
        <pt x="0" y="-3" on="0"/>
        <pt x="0" y="226" on="1"/>
        <pt x="0" y="342" on="0"/>
        <pt x="109" y="452" on="0"/>
        <pt x="199" y="452" on="1"/>
        <pt x="268" y="452" on="0"/>
      </contour>
      <contour>
        <pt x="123" y="59" on="0"/>
        <pt x="159" y="36" on="0"/>
        <pt x="219" y="36" on="0"/>
        <pt x="290" y="111" on="0"/>
        <pt x="290" y="171" on="1"/>
        <pt x="290" y="308" on="1"/>
        <pt x="290" y="355" on="0"/>
        <pt x="241" y="413" on="0"/>
        <pt x="180" y="413" on="0"/>
        <pt x="144" y="401" on="0"/>
        <pt x="128" y="382" on="1"/>
        <pt x="95" y="346" on="0"/>
        <pt x="95" y="226" on="1"/>
        <pt x="95" y="147" on="0"/>
      </contour>
      <contour>
        <pt x="130" y="611" on="0"/>
        <pt x="130" y="699" on="0"/>
        <pt x="192" y="761" on="0"/>
        <pt x="280" y="761" on="0"/>
        <pt x="342" y="698" on="0"/>
        <pt x="342" y="611" on="0"/>
        <pt x="280" y="549" on="0"/>
        <pt x="192" y="549" on="0"/>
      </contour>
      <contour>
        <pt x="212" y="713" on="0"/>
        <pt x="178" y="680" on="0"/>
        <pt x="178" y="631" on="0"/>
        <pt x="212" y="597" on="0"/>
        <pt x="261" y="597" on="0"/>
        <pt x="294" y="631" on="0"/>
        <pt x="294" y="680" on="0"/>
        <pt x="261" y="713" on="0"/>
      </contour>
    </TTGlyph>
    <TTGlyph name="asciicircum" xMin="-2" yMin="358" xMax="466" yMax="695">
      <contour>
        <pt x="40" y="358" on="1"/>
        <pt x="26" y="358" on="0"/>
        <pt x="5" y="377" on="0"/>
        <pt x="-2" y="396" on="1"/>
        <pt x="184" y="662" on="1"/>
        <pt x="207" y="695" on="0"/>
        <pt x="257" y="695" on="0"/>
        <pt x="280" y="662" on="1"/>
        <pt x="466" y="396" on="1"/>
        <pt x="462" y="381" on="0"/>
        <pt x="438" y="358" on="0"/>
        <pt x="424" y="358" on="1"/>
        <pt x="399" y="358" on="0"/>
        <pt x="377" y="390" on="1"/>
        <pt x="232" y="596" on="1"/>
        <pt x="87" y="390" on="1"/>
        <pt x="65" y="358" on="0"/>
      </contour>
    </TTGlyph>
    <TTGlyph name="asciitilde" xMin="10" yMin="153" xMax="504" yMax="300">
      <contour>
        <pt x="504" y="207" on="0"/>
        <pt x="430" y="155" on="0"/>
        <pt x="318" y="155" on="0"/>
        <pt x="176" y="234" on="0"/>
        <pt x="98" y="234" on="0"/>
        <pt x="57" y="187" on="0"/>
        <pt x="57" y="153" on="1"/>
        <pt x="10" y="153" on="0"/>
        <pt x="10" y="202" on="1"/>
        <pt x="10" y="243" on="0"/>
        <pt x="86" y="300" on="0"/>
        <pt x="191" y="300" on="0"/>
        <pt x="273" y="260" on="0"/>
        <pt x="342" y="221" on="0"/>
        <pt x="411" y="221" on="0"/>
        <pt x="457" y="269" on="0"/>
        <pt x="457" y="300" on="1"/>
        <pt x="478" y="300" on="0"/>
        <pt x="504" y="275" on="0"/>
        <pt x="504" y="255" on="1"/>
      </contour>
    </TTGlyph>
    <TTGlyph name="asterisk" xMin="4" yMin="468" xMax="440" yMax="884">
      <contour>
        <pt x="153" y="516" on="1"/>
        <pt x="136" y="491" on="0"/>
        <pt x="93" y="491" on="0"/>
        <pt x="70" y="516" on="0"/>
        <pt x="68" y="528" on="1"/>
        <pt x="66" y="541" on="1"/>
        <pt x="176" y="652" on="1"/>
        <pt x="53" y="660" on="1"/>
        <pt x="27" y="661" on="0"/>
        <pt x="4" y="694" on="0"/>
        <pt x="4" y="725" on="0"/>
        <pt x="17" y="743" on="0"/>
        <pt x="30" y="748" on="1"/>
        <pt x="182" y="705" on="1"/>
        <pt x="126" y="815" on="1"/>
        <pt x="120" y="828" on="0"/>
        <pt x="120" y="852" on="0"/>
        <pt x="126" y="862" on="1"/>
        <pt x="139" y="884" on="0"/>
        <pt x="154" y="884" on="1"/>
        <pt x="180" y="884" on="0"/>
        <pt x="190" y="872" on="1"/>
        <pt x="233" y="721" on="1"/>
        <pt x="297" y="823" on="1"/>
        <pt x="315" y="851" on="0"/>
        <pt x="348" y="851" on="1"/>
        <pt x="363" y="851" on="0"/>
        <pt x="383" y="828" on="0"/>
        <pt x="388" y="806" on="1"/>
        <pt x="274" y="691" on="1"/>
        <pt x="379" y="686" on="1"/>
        <pt x="440" y="683" on="0"/>
        <pt x="440" y="639" on="1"/>
        <pt x="440" y="627" on="0"/>
        <pt x="430" y="606" on="0"/>
        <pt x="419" y="598" on="1"/>
        <pt x="266" y="637" on="1"/>
        <pt x="319" y="542" on="1"/>
        <pt x="327" y="528" on="0"/>
        <pt x="327" y="503" on="0"/>
        <pt x="322" y="492" on="1"/>
        <pt x="311" y="468" on="0"/>
        <pt x="286" y="468" on="1"/>
        <pt x="261" y="472" on="1"/>
        <pt x="216" y="620" on="1"/>
      </contour>
    </TTGlyph>
    <TTGlyph name="at" xMin="57" yMin="-85" xMax="681" yMax="539">
      <contour>
        <pt x="413" y="362" on="1"/>
        <pt x="428" y="383" on="0"/>
        <pt x="479" y="383" on="0"/>
        <pt x="493" y="369" on="1"/>
        <pt x="493" y="202" on="1"/>
        <pt x="493" y="89" on="0"/>
        <pt x="560" y="89" on="1"/>
        <pt x="597" y="89" on="0"/>
        <pt x="642" y="174" on="0"/>
        <pt x="642" y="283" on="0"/>
        <pt x="610" y="377" on="0"/>
        <pt x="549" y="455" on="0"/>
        <pt x="444" y="502" on="0"/>
        <pt x="378" y="502" on="1"/>
        <pt x="240" y="502" on="0"/>
        <pt x="96" y="335" on="0"/>
        <pt x="96" y="91" on="0"/>
        <pt x="273" y="-56" on="0"/>
        <pt x="451" y="-56" on="1"/>
        <pt x="457" y="-58" on="0"/>
        <pt x="457" y="-85" on="0"/>
        <pt x="404" y="-85" on="1"/>
        <pt x="249" y="-85" on="0"/>
        <pt x="57" y="77" on="0"/>
        <pt x="57" y="215" on="1"/>
        <pt x="57" y="406" on="0"/>
        <pt x="197" y="493" on="1"/>
        <pt x="271" y="539" on="0"/>
        <pt x="378" y="539" on="1"/>
        <pt x="454" y="539" on="0"/>
        <pt x="573" y="487" on="0"/>
        <pt x="608" y="444" on="1"/>
        <pt x="681" y="355" on="0"/>
        <pt x="681" y="234" on="1"/>
        <pt x="681" y="159" on="0"/>
        <pt x="611" y="48" on="0"/>
        <pt x="548" y="48" on="1"/>
        <pt x="457" y="48" on="0"/>
        <pt x="421" y="121" on="1"/>
        <pt x="394" y="65" on="0"/>
        <pt x="321" y="65" on="1"/>
        <pt x="188" y="65" on="0"/>
        <pt x="188" y="384" on="0"/>
        <pt x="338" y="384" on="1"/>
        <pt x="387" y="384" on="0"/>
      </contour>
      <contour>
        <pt x="275" y="160" on="0"/>
        <pt x="299" y="104" on="0"/>
        <pt x="354" y="104" on="0"/>
        <pt x="396" y="145" on="0"/>
        <pt x="401" y="197" on="1"/>
        <pt x="401" y="278" on="1"/>
        <pt x="398" y="318" on="0"/>
        <pt x="367" y="345" on="0"/>
        <pt x="344" y="345" on="1"/>
        <pt x="275" y="345" on="0"/>
        <pt x="275" y="226" on="1"/>
      </contour>
    </TTGlyph>
    <TTGlyph name="atilde" xMin="0" yMin="-3" xMax="575" yMax="632">
      <contour>
        <pt x="297" y="423" on="1"/>
        <pt x="310" y="452" on="0"/>
        <pt x="367" y="452" on="0"/>
        <pt x="381" y="438" on="1"/>
        <pt x="381" y="151" on="1"/>
        <pt x="381" y="94" on="0"/>
        <pt x="417" y="36" on="0"/>
        <pt x="448" y="36" on="1"/>
        <pt x="542" y="36" on="0"/>
        <pt x="542" y="231" on="1"/>
        <pt x="543" y="237" on="0"/>
        <pt x="557" y="237" on="1"/>
        <pt x="575" y="237" on="0"/>
        <pt x="575" y="184" on="1"/>
        <pt x="575" y="99" on="0"/>
        <pt x="502" y="-3" on="0"/>
        <pt x="436" y="-3" on="1"/>
        <pt x="335" y="-3" on="0"/>
        <pt x="302" y="86" on="1"/>
        <pt x="283" y="45" on="0"/>
        <pt x="217" y="-3" on="0"/>
        <pt x="175" y="-3" on="1"/>
        <pt x="0" y="-3" on="0"/>
        <pt x="0" y="226" on="1"/>
        <pt x="0" y="342" on="0"/>
        <pt x="109" y="452" on="0"/>
        <pt x="199" y="452" on="1"/>
        <pt x="268" y="452" on="0"/>
      </contour>
      <contour>
        <pt x="123" y="59" on="0"/>
        <pt x="159" y="36" on="0"/>
        <pt x="219" y="36" on="0"/>
        <pt x="290" y="111" on="0"/>
        <pt x="290" y="171" on="1"/>
        <pt x="290" y="308" on="1"/>
        <pt x="290" y="355" on="0"/>
        <pt x="241" y="413" on="0"/>
        <pt x="180" y="413" on="0"/>
        <pt x="144" y="401" on="0"/>
        <pt x="128" y="382" on="1"/>
        <pt x="95" y="346" on="0"/>
        <pt x="95" y="226" on="1"/>
        <pt x="95" y="147" on="0"/>
      </contour>
      <contour>
        <pt x="444" y="554" on="0"/>
        <pt x="388" y="511" on="0"/>
        <pt x="317" y="511" on="0"/>
        <pt x="216" y="570" on="0"/>
        <pt x="192" y="570" on="1"/>
        <pt x="137" y="570" on="0"/>
        <pt x="137" y="499" on="1"/>
        <pt x="122" y="499" on="0"/>
        <pt x="100" y="522" on="0"/>
        <pt x="100" y="542" on="1"/>
        <pt x="100" y="581" on="0"/>
        <pt x="156" y="630" on="0"/>
        <pt x="233" y="630" on="0"/>
        <pt x="330" y="571" on="0"/>
        <pt x="378" y="571" on="0"/>
        <pt x="407" y="603" on="0"/>
        <pt x="407" y="632" on="1"/>
        <pt x="422" y="632" on="0"/>
        <pt x="444" y="607" on="0"/>
        <pt x="444" y="589" on="1"/>
      </contour>
    </TTGlyph>
    <TTGlyph name="b" xMin="1" yMin="-3" xMax="384" yMax="806">
      <contour>
        <pt x="1" y="175" on="1"/>
        <pt x="1" y="559" on="1"/>
        <pt x="1" y="689" on="0"/>
        <pt x="51" y="806" on="0"/>
        <pt x="122" y="806" on="1"/>
        <pt x="160" y="806" on="0"/>
        <pt x="202" y="742" on="0"/>
        <pt x="202" y="683" on="1"/>
        <pt x="202" y="576" on="0"/>
        <pt x="91" y="465" on="1"/>
        <pt x="91" y="412" on="1"/>
        <pt x="128" y="452" on="0"/>
        <pt x="185" y="452" on="1"/>
        <pt x="272" y="452" on="0"/>
        <pt x="384" y="334" on="0"/>
        <pt x="384" y="118" on="0"/>
        <pt x="276" y="-3" on="0"/>
        <pt x="105" y="-3" on="0"/>
        <pt x="1" y="95" on="0"/>
      </contour>
      <contour>
        <pt x="289" y="330" on="0"/>
        <pt x="245" y="413" on="0"/>
        <pt x="133" y="413" on="0"/>
        <pt x="91" y="343" on="0"/>
        <pt x="91" y="258" on="1"/>
        <pt x="91" y="206" on="1"/>
        <pt x="91" y="116" on="0"/>
        <pt x="138" y="36" on="0"/>
        <pt x="246" y="36" on="0"/>
        <pt x="289" y="122" on="0"/>
      </contour>
      <contour>
        <pt x="123" y="767" on="1"/>
        <pt x="103" y="767" on="0"/>
        <pt x="91" y="686" on="0"/>
        <pt x="91" y="557" on="1"/>
        <pt x="91" y="513" on="1"/>
        <pt x="159" y="601" on="0"/>
        <pt x="159" y="767" on="0"/>
      </contour>
    </TTGlyph>
    <TTGlyph name="backslash" xMin="-4" yMin="-14" xMax="446" yMax="809">
      <contour>
        <pt x="446" y="10" on="1"/>
        <pt x="442" y="-14" on="0"/>
        <pt x="395" y="-14" on="0"/>
        <pt x="363" y="11" on="0"/>
        <pt x="348" y="43" on="1"/>
        <pt x="-4" y="783" on="1"/>
        <pt x="5" y="809" on="0"/>
        <pt x="25" y="809" on="1"/>
        <pt x="67" y="809" on="0"/>
        <pt x="90" y="760" on="1"/>
      </contour>
    </TTGlyph>
    <TTGlyph name="bar" xMin="29" yMin="-380" xMax="105" yMax="814">
      <contour>
        <pt x="60" y="814" on="1"/>
        <pt x="105" y="814" on="0"/>
        <pt x="105" y="753" on="1"/>
        <pt x="105" y="-366" on="1"/>
        <pt x="102" y="-380" on="0"/>
        <pt x="74" y="-380" on="1"/>
        <pt x="29" y="-380" on="0"/>
        <pt x="29" y="-319" on="1"/>
        <pt x="29" y="800" on="1"/>
        <pt x="32" y="814" on="0"/>
      </contour>
    </TTGlyph>
    <TTGlyph name="braceleft" xMin="-16" yMin="-367" xMax="308" yMax="810">
      <contour>
        <pt x="54" y="370" on="1"/>
        <pt x="54" y="531" on="0"/>
        <pt x="99" y="730" on="0"/>
        <pt x="176" y="809" on="0"/>
        <pt x="233" y="810" on="1"/>
        <pt x="272" y="810" on="1"/>
        <pt x="289" y="810" on="0"/>
        <pt x="308" y="793" on="0"/>
        <pt x="308" y="773" on="0"/>
        <pt x="304" y="762" on="0"/>
        <pt x="299" y="758" on="0"/>
        <pt x="299" y="759" on="1"/>
        <pt x="259" y="759" on="1"/>
        <pt x="213" y="759" on="0"/>
        <pt x="165" y="693" on="0"/>
        <pt x="144" y="526" on="0"/>
        <pt x="144" y="365" on="1"/>
        <pt x="144" y="342" on="1"/>
        <pt x="144" y="323" on="0"/>
        <pt x="140" y="312" on="0"/>
        <pt x="136" y="297" on="0"/>
        <pt x="132" y="294" on="1"/>
        <pt x="120" y="281" on="0"/>
        <pt x="107" y="277" on="0"/>
        <pt x="99" y="277" on="1"/>
        <pt x="117" y="275" on="0"/>
        <pt x="129" y="261" on="0"/>
        <pt x="136" y="251" on="0"/>
        <pt x="140" y="235" on="0"/>
        <pt x="143" y="225" on="0"/>
        <pt x="144" y="205" on="0"/>
        <pt x="144" y="202" on="1"/>
        <pt x="144" y="178" on="1"/>
        <pt x="144" y="-24" on="0"/>
        <pt x="165" y="-233" on="0"/>
        <pt x="212" y="-316" on="0"/>
        <pt x="257" y="-316" on="1"/>
        <pt x="258" y="-316" on="0"/>
        <pt x="299" y="-315" on="1"/>
        <pt x="308" y="-321" on="0"/>
        <pt x="308" y="-350" on="0"/>
        <pt x="289" y="-367" on="0"/>
        <pt x="272" y="-367" on="1"/>
        <pt x="233" y="-367" on="1"/>
        <pt x="176" y="-366" on="0"/>
        <pt x="100" y="-271" on="0"/>
        <pt x="54" y="-27" on="0"/>
        <pt x="54" y="173" on="1"/>
        <pt x="54" y="176" on="0"/>
        <pt x="54" y="201" on="0"/>
        <pt x="52" y="210" on="1"/>
        <pt x="49" y="230" on="0"/>
        <pt x="8" y="230" on="1"/>
        <pt x="-7" y="230" on="0"/>
        <pt x="-16" y="250" on="0"/>
        <pt x="-16" y="301" on="0"/>
        <pt x="-7" y="323" on="0"/>
        <pt x="32" y="323" on="0"/>
        <pt x="52" y="335" on="0"/>
        <pt x="54" y="349" on="0"/>
      </contour>
    </TTGlyph>
    <TTGlyph name="braceright" xMin="-16" yMin="-367" xMax="308" yMax="810">
      <contour>
        <pt x="3" y="-367" on="0"/>
        <pt x="-16" y="-350" on="0"/>
        <pt x="-16" y="-322" on="0"/>
        <pt x="-7" y="-315" on="1"/>
        <pt x="34" y="-316" on="0"/>
        <pt x="35" y="-316" on="1"/>
        <pt x="80" y="-316" on="0"/>
        <pt x="127" y="-233" on="0"/>
        <pt x="148" y="-24" on="0"/>
        <pt x="148" y="178" on="1"/>
        <pt x="148" y="202" on="1"/>
        <pt x="148" y="222" on="0"/>
        <pt x="152" y="235" on="0"/>
        <pt x="156" y="251" on="0"/>
        <pt x="163" y="261" on="0"/>
        <pt x="168" y="266" on="1"/>
        <pt x="175" y="275" on="0"/>
        <pt x="193" y="277" on="1"/>
        <pt x="176" y="277" on="0"/>
        <pt x="170" y="284" on="1"/>
        <pt x="160" y="294" on="1"/>
        <pt x="156" y="297" on="0"/>
        <pt x="152" y="312" on="0"/>
        <pt x="149" y="320" on="0"/>
        <pt x="148" y="338" on="0"/>
        <pt x="148" y="342" on="1"/>
        <pt x="148" y="365" on="1"/>
        <pt x="148" y="526" on="0"/>
        <pt x="127" y="693" on="0"/>
        <pt x="79" y="759" on="0"/>
        <pt x="33" y="759" on="1"/>
        <pt x="-7" y="759" on="1"/>
        <pt x="-7" y="758" on="0"/>
        <pt x="-9" y="760" on="1"/>
        <pt x="-16" y="767" on="0"/>
        <pt x="-16" y="793" on="0"/>
        <pt x="3" y="810" on="0"/>
        <pt x="20" y="810" on="1"/>
        <pt x="59" y="810" on="1"/>
        <pt x="116" y="809" on="0"/>
        <pt x="193" y="730" on="0"/>
        <pt x="238" y="531" on="0"/>
        <pt x="238" y="370" on="1"/>
        <pt x="238" y="345" on="0"/>
        <pt x="247" y="327" on="0"/>
        <pt x="266" y="323" on="0"/>
        <pt x="299" y="323" on="0"/>
        <pt x="308" y="301" on="0"/>
        <pt x="308" y="250" on="0"/>
        <pt x="299" y="230" on="0"/>
        <pt x="262" y="230" on="0"/>
        <pt x="241" y="218" on="0"/>
        <pt x="238" y="202" on="0"/>
        <pt x="238" y="189" on="1"/>
        <pt x="238" y="173" on="1"/>
        <pt x="238" y="-27" on="0"/>
        <pt x="192" y="-271" on="0"/>
        <pt x="116" y="-366" on="0"/>
        <pt x="59" y="-367" on="1"/>
        <pt x="20" y="-367" on="1"/>
      </contour>
    </TTGlyph>
    <TTGlyph name="bracketleft" xMin="54" yMin="-367" xMax="308" yMax="806">
      <contour>
        <pt x="289" y="806" on="0"/>
        <pt x="308" y="789" on="0"/>
        <pt x="308" y="761" on="0"/>
        <pt x="299" y="754" on="1"/>
        <pt x="144" y="754" on="1"/>
        <pt x="144" y="-315" on="1"/>
        <pt x="289" y="-315" on="1"/>
        <pt x="298" y="-321" on="0"/>
        <pt x="298" y="-350" on="0"/>
        <pt x="279" y="-367" on="0"/>
        <pt x="262" y="-367" on="1"/>
        <pt x="103" y="-367" on="1"/>
        <pt x="54" y="-367" on="0"/>
        <pt x="54" y="-295" on="1"/>
        <pt x="54" y="736" on="1"/>
        <pt x="54" y="767" on="0"/>
        <pt x="84" y="806" on="0"/>
        <pt x="103" y="806" on="1"/>
        <pt x="272" y="806" on="1"/>
      </contour>
    </TTGlyph>
    <TTGlyph name="bracketright" xMin="54" yMin="-367" xMax="308" yMax="806">
      <contour>
        <pt x="83" y="-367" on="0"/>
        <pt x="64" y="-350" on="0"/>
        <pt x="64" y="-322" on="0"/>
        <pt x="73" y="-315" on="1"/>
        <pt x="218" y="-315" on="1"/>
        <pt x="218" y="754" on="1"/>
        <pt x="63" y="754" on="1"/>
        <pt x="54" y="760" on="0"/>
        <pt x="54" y="789" on="0"/>
        <pt x="73" y="806" on="0"/>
        <pt x="90" y="806" on="1"/>
        <pt x="259" y="806" on="1"/>
        <pt x="278" y="806" on="0"/>
        <pt x="308" y="767" on="0"/>
        <pt x="308" y="736" on="1"/>
        <pt x="308" y="-295" on="1"/>
        <pt x="308" y="-367" on="0"/>
        <pt x="259" y="-367" on="1"/>
        <pt x="100" y="-367" on="1"/>
      </contour>
    </TTGlyph>
    <TTGlyph name="breve" xMin="14" yMin="552" xMax="349" yMax="752">
      <contour>
        <pt x="311" y="752" on="1"/>
        <pt x="349" y="752" on="0"/>
        <pt x="349" y="642" on="0"/>
        <pt x="257" y="552" on="0"/>
        <pt x="108" y="552" on="0"/>
        <pt x="14" y="642" on="0"/>
        <pt x="14" y="752" on="0"/>
        <pt x="52" y="752" on="1"/>
        <pt x="77" y="746" on="1"/>
        <pt x="77" y="681" on="0"/>
        <pt x="136" y="620" on="0"/>
        <pt x="227" y="620" on="0"/>
        <pt x="286" y="681" on="0"/>
        <pt x="286" y="746" on="1"/>
        <pt x="297" y="752" on="0"/>
      </contour>
    </TTGlyph>
    <TTGlyph name="brokenbar" xMin="37" yMin="-378" xMax="113" yMax="814">
      <contour>
        <pt x="68" y="814" on="1"/>
        <pt x="113" y="814" on="0"/>
        <pt x="113" y="753" on="1"/>
        <pt x="113" y="300" on="1"/>
        <pt x="110" y="286" on="0"/>
        <pt x="82" y="286" on="1"/>
        <pt x="37" y="286" on="0"/>
        <pt x="37" y="347" on="1"/>
        <pt x="37" y="800" on="1"/>
        <pt x="40" y="814" on="0"/>
      </contour>
      <contour>
        <pt x="68" y="180" on="1"/>
        <pt x="113" y="180" on="0"/>
        <pt x="113" y="119" on="1"/>
        <pt x="113" y="-364" on="1"/>
        <pt x="110" y="-378" on="0"/>
        <pt x="82" y="-378" on="1"/>
        <pt x="37" y="-378" on="0"/>
        <pt x="37" y="-317" on="1"/>
        <pt x="37" y="166" on="1"/>
        <pt x="40" y="180" on="0"/>
      </contour>
    </TTGlyph>
    <TTGlyph name="bullet" xMin="48" yMin="185" xMax="291" yMax="428">
      <contour>
        <pt x="48" y="256" on="0"/>
        <pt x="48" y="356" on="0"/>
        <pt x="119" y="428" on="0"/>
        <pt x="219" y="428" on="0"/>
        <pt x="291" y="356" on="0"/>
        <pt x="291" y="256" on="0"/>
        <pt x="219" y="185" on="0"/>
        <pt x="119" y="185" on="0"/>
      </contour>
    </TTGlyph>
    <TTGlyph name="c" xMin="0" yMin="-3" xMax="440" yMax="452">
      <contour>
        <pt x="419" y="205" on="1"/>
        <pt x="440" y="205" on="0"/>
        <pt x="440" y="147" on="0"/>
        <pt x="416" y="89" on="0"/>
        <pt x="371" y="33" on="0"/>
        <pt x="290" y="-3" on="0"/>
        <pt x="239" y="-3" on="1"/>
        <pt x="127" y="-3" on="0"/>
        <pt x="0" y="110" on="0"/>
        <pt x="0" y="329" on="0"/>
        <pt x="112" y="452" on="0"/>
        <pt x="199" y="452" on="1"/>
        <pt x="262" y="452" on="0"/>
        <pt x="320" y="385" on="0"/>
        <pt x="320" y="339" on="1"/>
        <pt x="320" y="314" on="0"/>
        <pt x="290" y="284" on="0"/>
        <pt x="276" y="284" on="1"/>
        <pt x="250" y="284" on="0"/>
        <pt x="242" y="296" on="1"/>
        <pt x="248" y="311" on="0"/>
        <pt x="248" y="367" on="0"/>
        <pt x="210" y="413" on="0"/>
        <pt x="183" y="413" on="1"/>
        <pt x="136" y="413" on="0"/>
        <pt x="95" y="321" on="0"/>
        <pt x="95" y="124" on="0"/>
        <pt x="172" y="36" on="0"/>
        <pt x="310" y="36" on="0"/>
        <pt x="404" y="121" on="0"/>
        <pt x="404" y="199" on="1"/>
        <pt x="405" y="205" on="0"/>
      </contour>
    </TTGlyph>
    <TTGlyph name="caron" xMin="-21" yMin="540" xMax="304" yMax="775">
      <contour>
        <pt x="141" y="540" on="1"/>
        <pt x="129" y="540" on="0"/>
        <pt x="105" y="556" on="0"/>
        <pt x="93" y="573" on="1"/>
        <pt x="-21" y="737" on="1"/>
        <pt x="-17" y="752" on="0"/>
        <pt x="7" y="775" on="0"/>
        <pt x="21" y="775" on="1"/>
        <pt x="46" y="775" on="0"/>
        <pt x="68" y="743" on="1"/>
        <pt x="141" y="638" on="1"/>
        <pt x="215" y="743" on="1"/>
        <pt x="237" y="775" on="0"/>
        <pt x="262" y="775" on="1"/>
        <pt x="276" y="775" on="0"/>
        <pt x="297" y="756" on="0"/>
        <pt x="304" y="737" on="1"/>
        <pt x="190" y="573" on="1"/>
        <pt x="167" y="540" on="0"/>
      </contour>
    </TTGlyph>
    <TTGlyph name="ccedilla" xMin="0" yMin="-218" xMax="440" yMax="452">
      <contour>
        <pt x="181" y="-152" on="1"/>
        <pt x="207" y="-154" on="1"/>
        <pt x="259" y="-154" on="0"/>
        <pt x="259" y="-119" on="1"/>
        <pt x="259" y="-101" on="0"/>
        <pt x="227" y="-71" on="0"/>
        <pt x="192" y="-30" on="0"/>
        <pt x="189" y="0" on="1"/>
        <pt x="99" y="11" on="0"/>
        <pt x="0" y="123" on="0"/>
        <pt x="0" y="329" on="0"/>
        <pt x="112" y="452" on="0"/>
        <pt x="199" y="452" on="1"/>
        <pt x="262" y="452" on="0"/>
        <pt x="320" y="385" on="0"/>
        <pt x="320" y="339" on="1"/>
        <pt x="320" y="314" on="0"/>
        <pt x="290" y="284" on="0"/>
        <pt x="276" y="284" on="1"/>
        <pt x="250" y="284" on="0"/>
        <pt x="242" y="296" on="1"/>
        <pt x="248" y="311" on="0"/>
        <pt x="248" y="367" on="0"/>
        <pt x="210" y="413" on="0"/>
        <pt x="183" y="413" on="1"/>
        <pt x="136" y="413" on="0"/>
        <pt x="95" y="321" on="0"/>
        <pt x="95" y="124" on="0"/>
        <pt x="172" y="36" on="0"/>
        <pt x="310" y="36" on="0"/>
        <pt x="404" y="121" on="0"/>
        <pt x="404" y="199" on="1"/>
        <pt x="405" y="205" on="0"/>
        <pt x="419" y="205" on="1"/>
        <pt x="440" y="205" on="0"/>
        <pt x="440" y="147" on="0"/>
        <pt x="416" y="89" on="0"/>
        <pt x="371" y="33" on="0"/>
        <pt x="290" y="-3" on="0"/>
        <pt x="239" y="-3" on="1"/>
        <pt x="229" y="-3" on="1"/>
        <pt x="237" y="-23" on="0"/>
        <pt x="280" y="-46" on="1"/>
        <pt x="295" y="-54" on="0"/>
        <pt x="320" y="-90" on="0"/>
        <pt x="320" y="-116" on="1"/>
        <pt x="320" y="-162" on="0"/>
        <pt x="254" y="-218" on="0"/>
        <pt x="213" y="-218" on="1"/>
        <pt x="190" y="-218" on="0"/>
        <pt x="166" y="-196" on="0"/>
        <pt x="166" y="-165" on="0"/>
      </contour>
    </TTGlyph>
    <TTGlyph name="cedilla" xMin="32" yMin="-227" xMax="186" yMax="3">
      <contour>
        <pt x="47" y="-161" on="1"/>
        <pt x="73" y="-163" on="1"/>
        <pt x="125" y="-163" on="0"/>
        <pt x="125" y="-128" on="1"/>
        <pt x="125" y="-102" on="0"/>
        <pt x="90" y="-76" on="1"/>
        <pt x="77" y="-67" on="0"/>
        <pt x="55" y="-25" on="0"/>
        <pt x="55" y="3" on="1"/>
        <pt x="93" y="3" on="1"/>
        <pt x="93" y="-30" on="0"/>
        <pt x="140" y="-51" on="1"/>
        <pt x="157" y="-59" on="0"/>
        <pt x="186" y="-97" on="0"/>
        <pt x="186" y="-125" on="1"/>
        <pt x="186" y="-171" on="0"/>
        <pt x="120" y="-227" on="0"/>
        <pt x="79" y="-227" on="1"/>
        <pt x="56" y="-227" on="0"/>
        <pt x="32" y="-205" on="0"/>
        <pt x="32" y="-172" on="0"/>
      </contour>
    </TTGlyph>
    <TTGlyph name="cent" xMin="0" yMin="-118" xMax="340" yMax="559">
      <contour>
        <pt x="185" y="-118" on="1"/>
        <pt x="172" y="-118" on="0"/>
        <pt x="164" y="-104" on="1"/>
        <pt x="164" y="0" on="1"/>
        <pt x="87" y="12" on="0"/>
        <pt x="0" y="123" on="0"/>
        <pt x="0" y="316" on="0"/>
        <pt x="83" y="434" on="0"/>
        <pt x="160" y="448" on="1"/>
        <pt x="160" y="523" on="1"/>
        <pt x="160" y="559" on="0"/>
        <pt x="190" y="559" on="1"/>
        <pt x="204" y="559" on="0"/>
        <pt x="210" y="549" on="1"/>
        <pt x="211" y="452" on="1"/>
        <pt x="273" y="451" on="0"/>
        <pt x="340" y="382" on="0"/>
        <pt x="340" y="339" on="1"/>
        <pt x="340" y="314" on="0"/>
        <pt x="310" y="284" on="0"/>
        <pt x="296" y="284" on="1"/>
        <pt x="270" y="284" on="0"/>
        <pt x="262" y="296" on="1"/>
        <pt x="268" y="311" on="0"/>
        <pt x="268" y="359" on="0"/>
        <pt x="236" y="402" on="0"/>
        <pt x="214" y="410" on="1"/>
        <pt x="214" y="36" on="1"/>
        <pt x="252" y="38" on="0"/>
        <pt x="304" y="95" on="0"/>
        <pt x="304" y="149" on="1"/>
        <pt x="305" y="155" on="0"/>
        <pt x="319" y="155" on="1"/>
        <pt x="340" y="155" on="0"/>
        <pt x="340" y="85" on="0"/>
        <pt x="279" y="-1" on="0"/>
        <pt x="215" y="-3" on="1"/>
        <pt x="215" y="-62" on="1"/>
        <pt x="215" y="-118" on="0"/>
      </contour>
      <contour>
        <pt x="95" y="211" on="1"/>
        <pt x="95" y="82" on="0"/>
        <pt x="161" y="46" on="1"/>
        <pt x="161" y="409" on="1"/>
        <pt x="121" y="399" on="0"/>
        <pt x="95" y="311" on="0"/>
      </contour>
    </TTGlyph>
    <TTGlyph name="circumflex" xMin="-21" yMin="513" xMax="304" yMax="748">
      <contour>
        <pt x="93" y="715" on="1"/>
        <pt x="116" y="748" on="0"/>
        <pt x="167" y="748" on="0"/>
        <pt x="190" y="715" on="1"/>
        <pt x="304" y="551" on="1"/>
        <pt x="301" y="538" on="0"/>
        <pt x="276" y="513" on="0"/>
        <pt x="262" y="513" on="1"/>
        <pt x="237" y="513" on="0"/>
        <pt x="215" y="545" on="1"/>
        <pt x="141" y="649" on="1"/>
        <pt x="68" y="545" on="1"/>
        <pt x="46" y="513" on="0"/>
        <pt x="21" y="513" on="1"/>
        <pt x="7" y="513" on="0"/>
        <pt x="-14" y="532" on="0"/>
        <pt x="-21" y="551" on="1"/>
      </contour>
    </TTGlyph>
    <TTGlyph name="colon" xMin="13" yMin="-2" xMax="108" yMax="452">
      <contour>
        <pt x="40" y="-2" on="0"/>
        <pt x="13" y="26" on="0"/>
        <pt x="13" y="65" on="0"/>
        <pt x="40" y="93" on="0"/>
        <pt x="80" y="93" on="0"/>
        <pt x="108" y="65" on="0"/>
        <pt x="108" y="25" on="0"/>
        <pt x="80" y="-2" on="0"/>
      </contour>
      <contour>
        <pt x="13" y="384" on="0"/>
        <pt x="13" y="424" on="0"/>
        <pt x="40" y="452" on="0"/>
        <pt x="80" y="452" on="0"/>
        <pt x="108" y="424" on="0"/>
        <pt x="108" y="384" on="0"/>
        <pt x="80" y="357" on="0"/>
        <pt x="40" y="357" on="0"/>
      </contour>
    </TTGlyph>
    <TTGlyph name="comma" xMin="35" yMin="-113" xMax="163" yMax="93">
      <contour>
        <pt x="75" y="-113" on="0"/>
        <pt x="56" y="-102" on="0"/>
        <pt x="56" y="-83" on="0"/>
        <pt x="63" y="-78" on="1"/>
        <pt x="91" y="-78" on="0"/>
        <pt x="123" y="-41" on="0"/>
        <pt x="123" y="4" on="0"/>
        <pt x="120" y="16" on="1"/>
        <pt x="107" y="-2" on="0"/>
        <pt x="62" y="-2" on="0"/>
        <pt x="35" y="26" on="0"/>
        <pt x="35" y="65" on="0"/>
        <pt x="62" y="93" on="0"/>
        <pt x="82" y="93" on="1"/>
        <pt x="83" y="93" on="1"/>
        <pt x="119" y="93" on="0"/>
        <pt x="163" y="43" on="0"/>
        <pt x="163" y="-52" on="0"/>
        <pt x="119" y="-113" on="0"/>
        <pt x="88" y="-113" on="1"/>
      </contour>
    </TTGlyph>
    <TTGlyph name="copyright" xMin="19" yMin="78" xMax="595" yMax="644">
      <contour>
        <pt x="398" y="297" on="1"/>
        <pt x="419" y="297" on="0"/>
        <pt x="419" y="236" on="0"/>
        <pt x="365" y="189" on="0"/>
        <pt x="312" y="189" on="1"/>
        <pt x="238" y="189" on="0"/>
        <pt x="152" y="281" on="0"/>
        <pt x="152" y="438" on="0"/>
        <pt x="236" y="526" on="0"/>
        <pt x="316" y="526" on="1"/>
        <pt x="368" y="526" on="0"/>
        <pt x="431" y="465" on="0"/>
        <pt x="431" y="401" on="0"/>
        <pt x="401" y="371" on="0"/>
        <pt x="386" y="371" on="1"/>
        <pt x="361" y="371" on="0"/>
        <pt x="353" y="383" on="1"/>
        <pt x="359" y="398" on="0"/>
        <pt x="359" y="452" on="0"/>
        <pt x="337" y="487" on="0"/>
        <pt x="307" y="487" on="1"/>
        <pt x="247" y="487" on="0"/>
        <pt x="247" y="228" on="0"/>
        <pt x="312" y="228" on="1"/>
        <pt x="383" y="228" on="0"/>
        <pt x="383" y="291" on="1"/>
        <pt x="384" y="297" on="0"/>
      </contour>
      <contour>
        <pt x="19" y="244" on="0"/>
        <pt x="19" y="478" on="0"/>
        <pt x="190" y="644" on="0"/>
        <pt x="424" y="644" on="0"/>
        <pt x="595" y="478" on="0"/>
        <pt x="595" y="244" on="0"/>
        <pt x="424" y="78" on="0"/>
        <pt x="190" y="78" on="0"/>
      </contour>
      <contour>
        <pt x="81" y="455" on="0"/>
        <pt x="81" y="267" on="0"/>
        <pt x="213" y="135" on="0"/>
        <pt x="401" y="135" on="0"/>
        <pt x="533" y="267" on="0"/>
        <pt x="533" y="455" on="0"/>
        <pt x="401" y="587" on="0"/>
        <pt x="213" y="587" on="0"/>
      </contour>
    </TTGlyph>
    <TTGlyph name="currency" xMin="106" yMin="71" xMax="568" yMax="594">
      <contour>
        <pt x="106" y="238" on="0"/>
        <pt x="106" y="426" on="0"/>
        <pt x="171" y="493" on="1"/>
        <pt x="114" y="564" on="1"/>
        <pt x="114" y="576" on="0"/>
        <pt x="131" y="594" on="0"/>
        <pt x="158" y="594" on="0"/>
        <pt x="170" y="582" on="1"/>
        <pt x="213" y="527" on="1"/>
        <pt x="269" y="563" on="0"/>
        <pt x="401" y="563" on="0"/>
        <pt x="456" y="530" on="1"/>
        <pt x="498" y="582" on="1"/>
        <pt x="510" y="594" on="0"/>
        <pt x="537" y="594" on="0"/>
        <pt x="554" y="576" on="0"/>
        <pt x="554" y="564" on="1"/>
        <pt x="499" y="496" on="1"/>
        <pt x="568" y="427" on="0"/>
        <pt x="568" y="236" on="0"/>
        <pt x="500" y="168" on="1"/>
        <pt x="554" y="101" on="1"/>
        <pt x="554" y="89" on="0"/>
        <pt x="537" y="71" on="0"/>
        <pt x="512" y="71" on="0"/>
        <pt x="499" y="84" on="1"/>
        <pt x="458" y="135" on="1"/>
        <pt x="404" y="101" on="0"/>
        <pt x="268" y="101" on="0"/>
        <pt x="212" y="137" on="1"/>
        <pt x="169" y="84" on="1"/>
        <pt x="156" y="71" on="0"/>
        <pt x="131" y="71" on="0"/>
        <pt x="114" y="89" on="0"/>
        <pt x="114" y="101" on="1"/>
        <pt x="170" y="172" on="1"/>
      </contour>
      <contour>
        <pt x="397" y="180" on="0"/>
        <pt x="491" y="268" on="0"/>
        <pt x="491" y="400" on="0"/>
        <pt x="396" y="492" on="0"/>
        <pt x="273" y="492" on="0"/>
        <pt x="179" y="403" on="0"/>
        <pt x="179" y="271" on="0"/>
        <pt x="274" y="180" on="0"/>
      </contour>
    </TTGlyph>
    <TTGlyph name="d" xMin="0" yMin="-3" xMax="575" yMax="806">
      <contour>
        <pt x="0" y="232" on="1"/>
        <pt x="0" y="347" on="0"/>
        <pt x="109" y="452" on="0"/>
        <pt x="199" y="452" on="1"/>
        <pt x="257" y="452" on="0"/>
        <pt x="291" y="429" on="1"/>
        <pt x="291" y="565" on="1"/>
        <pt x="291" y="691" on="0"/>
        <pt x="342" y="806" on="0"/>
        <pt x="412" y="806" on="1"/>
        <pt x="450" y="806" on="0"/>
        <pt x="492" y="742" on="0"/>
        <pt x="492" y="683" on="1"/>
        <pt x="492" y="576" on="0"/>
        <pt x="381" y="465" on="1"/>
        <pt x="381" y="151" on="1"/>
        <pt x="381" y="94" on="0"/>
        <pt x="420" y="36" on="0"/>
        <pt x="484" y="36" on="0"/>
        <pt x="543" y="115" on="0"/>
        <pt x="543" y="201" on="1"/>
        <pt x="543" y="220" on="0"/>
        <pt x="542" y="231" on="1"/>
        <pt x="543" y="237" on="0"/>
        <pt x="557" y="237" on="1"/>
        <pt x="575" y="237" on="0"/>
        <pt x="575" y="184" on="1"/>
        <pt x="575" y="101" on="0"/>
        <pt x="500" y="-3" on="0"/>
        <pt x="441" y="-3" on="1"/>
        <pt x="334" y="-3" on="0"/>
        <pt x="301" y="91" on="1"/>
        <pt x="282" y="49" on="0"/>
        <pt x="216" y="-2" on="0"/>
        <pt x="175" y="-2" on="1"/>
        <pt x="0" y="-2" on="0"/>
      </contour>
      <contour>
        <pt x="222" y="37" on="0"/>
        <pt x="289" y="118" on="0"/>
        <pt x="289" y="181" on="1"/>
        <pt x="289" y="309" on="1"/>
        <pt x="289" y="358" on="0"/>
        <pt x="242" y="413" on="0"/>
        <pt x="179" y="413" on="0"/>
        <pt x="144" y="403" on="0"/>
        <pt x="127" y="386" on="1"/>
        <pt x="95" y="353" on="0"/>
        <pt x="95" y="232" on="1"/>
        <pt x="95" y="110" on="0"/>
        <pt x="123" y="72" on="1"/>
        <pt x="148" y="37" on="0"/>
      </contour>
      <contour>
        <pt x="413" y="767" on="1"/>
        <pt x="392" y="767" on="0"/>
        <pt x="381" y="674" on="0"/>
        <pt x="381" y="513" on="1"/>
        <pt x="449" y="601" on="0"/>
        <pt x="449" y="767" on="0"/>
      </contour>
    </TTGlyph>
    <TTGlyph name="dagger" xMin="-136" yMin="-380" xMax="261" yMax="814">
      <contour>
        <pt x="261" y="422" on="1"/>
        <pt x="261" y="377" on="0"/>
        <pt x="200" y="377" on="1"/>
        <pt x="105" y="377" on="1"/>
        <pt x="105" y="-366" on="1"/>
        <pt x="102" y="-380" on="0"/>
        <pt x="74" y="-380" on="1"/>
        <pt x="29" y="-380" on="0"/>
        <pt x="29" y="-319" on="1"/>
        <pt x="29" y="377" on="1"/>
        <pt x="-122" y="377" on="1"/>
        <pt x="-136" y="380" on="0"/>
        <pt x="-136" y="408" on="1"/>
        <pt x="-136" y="453" on="0"/>
        <pt x="-75" y="453" on="1"/>
        <pt x="29" y="453" on="1"/>
        <pt x="29" y="800" on="1"/>
        <pt x="32" y="814" on="0"/>
        <pt x="60" y="814" on="1"/>
        <pt x="105" y="814" on="0"/>
        <pt x="105" y="753" on="1"/>
        <pt x="105" y="453" on="1"/>
        <pt x="247" y="453" on="1"/>
        <pt x="261" y="450" on="0"/>
      </contour>
    </TTGlyph>
    <TTGlyph name="daggerdbl" xMin="-136" yMin="-380" xMax="261" yMax="814">
      <contour>
        <pt x="261" y="44" on="1"/>
        <pt x="261" y="-1" on="0"/>
        <pt x="200" y="-1" on="1"/>
        <pt x="105" y="-1" on="1"/>
        <pt x="105" y="-366" on="1"/>
        <pt x="102" y="-380" on="0"/>
        <pt x="74" y="-380" on="1"/>
        <pt x="29" y="-380" on="0"/>
        <pt x="29" y="-319" on="1"/>
        <pt x="29" y="-1" on="1"/>
        <pt x="-122" y="-1" on="1"/>
        <pt x="-136" y="2" on="0"/>
        <pt x="-136" y="30" on="1"/>
        <pt x="-136" y="75" on="0"/>
        <pt x="-75" y="75" on="1"/>
        <pt x="29" y="75" on="1"/>
        <pt x="29" y="377" on="1"/>
        <pt x="-122" y="377" on="1"/>
        <pt x="-136" y="380" on="0"/>
        <pt x="-136" y="408" on="1"/>
        <pt x="-136" y="453" on="0"/>
        <pt x="-75" y="453" on="1"/>
        <pt x="29" y="453" on="1"/>
        <pt x="29" y="800" on="1"/>
        <pt x="32" y="814" on="0"/>
        <pt x="60" y="814" on="1"/>
        <pt x="105" y="814" on="0"/>
        <pt x="105" y="753" on="1"/>
        <pt x="105" y="453" on="1"/>
        <pt x="247" y="453" on="1"/>
        <pt x="261" y="450" on="0"/>
        <pt x="261" y="422" on="1"/>
        <pt x="261" y="377" on="0"/>
        <pt x="200" y="377" on="1"/>
        <pt x="105" y="377" on="1"/>
        <pt x="105" y="75" on="1"/>
        <pt x="247" y="75" on="1"/>
        <pt x="261" y="72" on="0"/>
      </contour>
    </TTGlyph>
    <TTGlyph name="degree" xMin="75" yMin="509" xMax="350" yMax="784">
      <contour>
        <pt x="75" y="589" on="0"/>
        <pt x="75" y="703" on="0"/>
        <pt x="155" y="784" on="0"/>
        <pt x="269" y="784" on="0"/>
        <pt x="350" y="703" on="0"/>
        <pt x="350" y="589" on="0"/>
        <pt x="269" y="509" on="0"/>
        <pt x="155" y="509" on="0"/>
      </contour>
      <contour>
        <pt x="142" y="675" on="0"/>
        <pt x="142" y="617" on="0"/>
        <pt x="183" y="576" on="0"/>
        <pt x="241" y="576" on="0"/>
        <pt x="282" y="617" on="0"/>
        <pt x="282" y="675" on="0"/>
        <pt x="241" y="716" on="0"/>
        <pt x="183" y="716" on="0"/>
      </contour>
    </TTGlyph>
    <TTGlyph name="dieresis" xMin="91" yMin="539" xMax="335" yMax="634">
      <contour>
        <pt x="91" y="566" on="0"/>
        <pt x="91" y="606" on="0"/>
        <pt x="118" y="634" on="0"/>
        <pt x="158" y="634" on="0"/>
        <pt x="186" y="606" on="0"/>
        <pt x="186" y="566" on="0"/>
        <pt x="158" y="539" on="0"/>
        <pt x="118" y="539" on="0"/>
      </contour>
      <contour>
        <pt x="240" y="566" on="0"/>
        <pt x="240" y="606" on="0"/>
        <pt x="267" y="634" on="0"/>
        <pt x="307" y="634" on="0"/>
        <pt x="335" y="606" on="0"/>
        <pt x="335" y="566" on="0"/>
        <pt x="307" y="539" on="0"/>
        <pt x="268" y="539" on="0"/>
      </contour>
    </TTGlyph>
    <TTGlyph name="divide" xMin="-131" yMin="-2" xMax="258" yMax="452">
      <contour>
        <pt x="-131" y="221" on="1"/>
        <pt x="-131" y="266" on="0"/>
        <pt x="-70" y="266" on="1"/>
        <pt x="244" y="267" on="1"/>
        <pt x="258" y="264" on="0"/>
        <pt x="258" y="236" on="1"/>
        <pt x="258" y="191" on="0"/>
        <pt x="197" y="191" on="1"/>
        <pt x="-117" y="190" on="1"/>
        <pt x="-131" y="193" on="0"/>
      </contour>
      <contour>
        <pt x="40" y="-2" on="0"/>
        <pt x="13" y="26" on="0"/>
        <pt x="13" y="65" on="0"/>
        <pt x="40" y="93" on="0"/>
        <pt x="80" y="93" on="0"/>
        <pt x="108" y="65" on="0"/>
        <pt x="108" y="25" on="0"/>
        <pt x="80" y="-2" on="0"/>
      </contour>
      <contour>
        <pt x="13" y="384" on="0"/>
        <pt x="13" y="424" on="0"/>
        <pt x="40" y="452" on="0"/>
        <pt x="80" y="452" on="0"/>
        <pt x="108" y="424" on="0"/>
        <pt x="108" y="384" on="0"/>
        <pt x="80" y="357" on="0"/>
        <pt x="40" y="357" on="0"/>
      </contour>
    </TTGlyph>
    <TTGlyph name="dollar" xMin="2" yMin="-209" xMax="552" yMax="917">
      <contour>
        <pt x="460" y="153" on="1"/>
        <pt x="460" y="201" on="0"/>
        <pt x="415" y="269" on="0"/>
        <pt x="344" y="307" on="0"/>
        <pt x="258" y="337" on="0"/>
        <pt x="172" y="368" on="0"/>
        <pt x="101" y="411" on="0"/>
        <pt x="56" y="487" on="0"/>
        <pt x="56" y="541" on="1"/>
        <pt x="56" y="624" on="0"/>
        <pt x="167" y="727" on="0"/>
        <pt x="258" y="737" on="1"/>
        <pt x="258" y="903" on="1"/>
        <pt x="261" y="917" on="0"/>
        <pt x="289" y="917" on="1"/>
        <pt x="334" y="917" on="0"/>
        <pt x="334" y="856" on="1"/>
        <pt x="334" y="738" on="1"/>
        <pt x="426" y="730" on="0"/>
        <pt x="536" y="637" on="0"/>
        <pt x="536" y="584" on="1"/>
        <pt x="536" y="544" on="0"/>
        <pt x="505" y="505" on="0"/>
        <pt x="484" y="505" on="1"/>
        <pt x="445" y="505" on="0"/>
        <pt x="434" y="520" on="1"/>
        <pt x="431" y="525" on="1"/>
        <pt x="441" y="538" on="0"/>
        <pt x="441" y="575" on="1"/>
        <pt x="441" y="632" on="0"/>
        <pt x="345" y="697" on="0"/>
        <pt x="218" y="697" on="0"/>
        <pt x="144" y="629" on="0"/>
        <pt x="144" y="531" on="0"/>
        <pt x="189" y="466" on="0"/>
        <pt x="261" y="430" on="0"/>
        <pt x="348" y="402" on="0"/>
        <pt x="435" y="369" on="0"/>
        <pt x="507" y="322" on="0"/>
        <pt x="552" y="236" on="0"/>
        <pt x="552" y="175" on="1"/>
        <pt x="552" y="79" on="0"/>
        <pt x="427" y="-32" on="0"/>
        <pt x="334" y="-43" on="1"/>
        <pt x="334" y="-195" on="1"/>
        <pt x="331" y="-209" on="0"/>
        <pt x="303" y="-209" on="1"/>
        <pt x="258" y="-209" on="0"/>
        <pt x="258" y="-148" on="1"/>
        <pt x="258" y="-44" on="1"/>
        <pt x="147" y="-36" on="0"/>
        <pt x="2" y="77" on="0"/>
        <pt x="2" y="159" on="1"/>
        <pt x="2" y="200" on="0"/>
        <pt x="34" y="247" on="0"/>
        <pt x="56" y="247" on="1"/>
        <pt x="95" y="247" on="0"/>
        <pt x="106" y="234" on="1"/>
        <pt x="109" y="229" on="1"/>
        <pt x="100" y="204" on="0"/>
        <pt x="100" y="168" on="1"/>
        <pt x="100" y="100" on="0"/>
        <pt x="211" y="-2" on="0"/>
        <pt x="301" y="-2" on="1"/>
        <pt x="366" y="-2" on="0"/>
        <pt x="460" y="89" on="0"/>
      </contour>
    </TTGlyph>
    <TTGlyph name="dotaccent" xMin="94" yMin="539" xMax="189" yMax="634">
      <contour>
        <pt x="94" y="566" on="0"/>
        <pt x="94" y="606" on="0"/>
        <pt x="122" y="634" on="0"/>
        <pt x="160" y="634" on="0"/>
        <pt x="189" y="606" on="0"/>
        <pt x="189" y="567" on="0"/>
        <pt x="161" y="539" on="0"/>
        <pt x="122" y="539" on="0"/>
      </contour>
    </TTGlyph>
    <TTGlyph name="e" xMin="1" yMin="-3" xMax="441" yMax="452">
      <contour>
        <pt x="420" y="225" on="1"/>
        <pt x="441" y="225" on="0"/>
        <pt x="441" y="193" on="1"/>
        <pt x="441" y="119" on="0"/>
        <pt x="338" y="-3" on="0"/>
        <pt x="128" y="-3" on="0"/>
        <pt x="1" y="110" on="0"/>
        <pt x="1" y="329" on="0"/>
        <pt x="113" y="452" on="0"/>
        <pt x="200" y="452" on="1"/>
        <pt x="263" y="452" on="0"/>
        <pt x="321" y="385" on="0"/>
        <pt x="321" y="339" on="1"/>
        <pt x="321" y="264" on="0"/>
        <pt x="196" y="165" on="0"/>
        <pt x="99" y="165" on="1"/>
        <pt x="108" y="101" on="0"/>
        <pt x="183" y="36" on="0"/>
        <pt x="306" y="36" on="0"/>
        <pt x="405" y="129" on="0"/>
        <pt x="405" y="219" on="1"/>
        <pt x="406" y="225" on="0"/>
      </contour>
      <contour>
        <pt x="96" y="211" on="1"/>
        <pt x="96" y="202" on="1"/>
        <pt x="158" y="210" on="0"/>
        <pt x="249" y="272" on="0"/>
        <pt x="249" y="333" on="1"/>
        <pt x="249" y="372" on="0"/>
        <pt x="215" y="413" on="0"/>
        <pt x="184" y="413" on="1"/>
        <pt x="137" y="413" on="0"/>
        <pt x="96" y="321" on="0"/>
      </contour>
    </TTGlyph>
    <TTGlyph name="eacute" xMin="1" yMin="-3" xMax="441" yMax="790">
      <contour>
        <pt x="420" y="225" on="1"/>
        <pt x="441" y="225" on="0"/>
        <pt x="441" y="193" on="1"/>
        <pt x="441" y="119" on="0"/>
        <pt x="338" y="-3" on="0"/>
        <pt x="128" y="-3" on="0"/>
        <pt x="1" y="110" on="0"/>
        <pt x="1" y="329" on="0"/>
        <pt x="113" y="452" on="0"/>
        <pt x="200" y="452" on="1"/>
        <pt x="263" y="452" on="0"/>
        <pt x="321" y="385" on="0"/>
        <pt x="321" y="339" on="1"/>
        <pt x="321" y="264" on="0"/>
        <pt x="196" y="165" on="0"/>
        <pt x="99" y="165" on="1"/>
        <pt x="108" y="101" on="0"/>
        <pt x="183" y="36" on="0"/>
        <pt x="306" y="36" on="0"/>
        <pt x="405" y="129" on="0"/>
        <pt x="405" y="219" on="1"/>
        <pt x="406" y="225" on="0"/>
      </contour>
      <contour>
        <pt x="96" y="211" on="1"/>
        <pt x="96" y="202" on="1"/>
        <pt x="158" y="210" on="0"/>
        <pt x="249" y="272" on="0"/>
        <pt x="249" y="333" on="1"/>
        <pt x="249" y="372" on="0"/>
        <pt x="215" y="413" on="0"/>
        <pt x="184" y="413" on="1"/>
        <pt x="137" y="413" on="0"/>
        <pt x="96" y="321" on="0"/>
      </contour>
      <contour>
        <pt x="194" y="525" on="1"/>
        <pt x="180" y="525" on="0"/>
        <pt x="159" y="544" on="0"/>
        <pt x="152" y="563" on="1"/>
        <pt x="261" y="757" on="1"/>
        <pt x="280" y="790" on="0"/>
        <pt x="309" y="790" on="1"/>
        <pt x="323" y="790" on="0"/>
        <pt x="344" y="771" on="0"/>
        <pt x="352" y="752" on="1"/>
        <pt x="241" y="557" on="1"/>
        <pt x="222" y="525" on="0"/>
      </contour>
    </TTGlyph>
    <TTGlyph name="ecircumflex" xMin="1" yMin="-3" xMax="441" yMax="748">
      <component glyphName="e" x="0" y="0" flags="0x1004"/>
      <component glyphName="circumflex" x="62" y="0" flags="0x1004"/>
    </TTGlyph>
    <TTGlyph name="edieresis" xMin="1" yMin="-3" xMax="441" yMax="634">
      <contour>
        <pt x="420" y="225" on="1"/>
        <pt x="441" y="225" on="0"/>
        <pt x="441" y="193" on="1"/>
        <pt x="441" y="119" on="0"/>
        <pt x="338" y="-3" on="0"/>
        <pt x="128" y="-3" on="0"/>
        <pt x="1" y="110" on="0"/>
        <pt x="1" y="329" on="0"/>
        <pt x="113" y="452" on="0"/>
        <pt x="200" y="452" on="1"/>
        <pt x="263" y="452" on="0"/>
        <pt x="321" y="385" on="0"/>
        <pt x="321" y="339" on="1"/>
        <pt x="321" y="264" on="0"/>
        <pt x="196" y="165" on="0"/>
        <pt x="99" y="165" on="1"/>
        <pt x="108" y="101" on="0"/>
        <pt x="183" y="36" on="0"/>
        <pt x="306" y="36" on="0"/>
        <pt x="405" y="129" on="0"/>
        <pt x="405" y="219" on="1"/>
        <pt x="406" y="225" on="0"/>
      </contour>
      <contour>
        <pt x="96" y="211" on="1"/>
        <pt x="96" y="202" on="1"/>
        <pt x="158" y="210" on="0"/>
        <pt x="249" y="272" on="0"/>
        <pt x="249" y="333" on="1"/>
        <pt x="249" y="372" on="0"/>
        <pt x="215" y="413" on="0"/>
        <pt x="184" y="413" on="1"/>
        <pt x="137" y="413" on="0"/>
        <pt x="96" y="321" on="0"/>
      </contour>
      <contour>
        <pt x="82" y="566" on="0"/>
        <pt x="82" y="606" on="0"/>
        <pt x="109" y="634" on="0"/>
        <pt x="149" y="634" on="0"/>
        <pt x="177" y="606" on="0"/>
        <pt x="177" y="566" on="0"/>
        <pt x="149" y="539" on="0"/>
        <pt x="110" y="539" on="0"/>
      </contour>
      <contour>
        <pt x="231" y="566" on="0"/>
        <pt x="231" y="606" on="0"/>
        <pt x="258" y="634" on="0"/>
        <pt x="298" y="634" on="0"/>
        <pt x="326" y="606" on="0"/>
        <pt x="326" y="566" on="0"/>
        <pt x="298" y="539" on="0"/>
        <pt x="258" y="539" on="0"/>
      </contour>
    </TTGlyph>
    <TTGlyph name="egrave" xMin="1" yMin="-3" xMax="441" yMax="790">
      <component glyphName="e" x="0" y="0" flags="0x1004"/>
      <component glyphName="grave" x="42" y="0" flags="0x1004"/>
    </TTGlyph>
    <TTGlyph name="eight" xMin="4" yMin="-23" xMax="584" yMax="763">
      <contour>
        <pt x="420" y="-23" on="0"/>
        <pt x="168" y="-23" on="0"/>
        <pt x="4" y="100" on="0"/>
        <pt x="4" y="209" on="1"/>
        <pt x="4" y="255" on="0"/>
        <pt x="34" y="331" on="0"/>
        <pt x="69" y="371" on="0"/>
        <pt x="94" y="387" on="1"/>
        <pt x="124" y="405" on="0"/>
        <pt x="149" y="413" on="1"/>
        <pt x="124" y="419" on="0"/>
        <pt x="93" y="439" on="1"/>
        <pt x="31" y="482" on="0"/>
        <pt x="31" y="664" on="0"/>
        <pt x="173" y="763" on="0"/>
        <pt x="417" y="763" on="0"/>
        <pt x="557" y="664" on="0"/>
        <pt x="557" y="570" on="1"/>
        <pt x="557" y="534" on="0"/>
        <pt x="533" y="475" on="0"/>
        <pt x="502" y="443" on="0"/>
        <pt x="483" y="432" on="1"/>
        <pt x="459" y="417" on="0"/>
        <pt x="439" y="413" on="1"/>
        <pt x="464" y="405" on="0"/>
        <pt x="519" y="371" on="0"/>
        <pt x="554" y="331" on="0"/>
        <pt x="584" y="255" on="0"/>
        <pt x="584" y="209" on="1"/>
        <pt x="584" y="100" on="0"/>
      </contour>
      <contour>
        <pt x="96" y="117" on="0"/>
        <pt x="210" y="17" on="0"/>
        <pt x="381" y="17" on="0"/>
        <pt x="492" y="116" on="0"/>
        <pt x="492" y="297" on="0"/>
        <pt x="379" y="395" on="0"/>
        <pt x="209" y="395" on="0"/>
        <pt x="96" y="297" on="0"/>
      </contour>
      <contour>
        <pt x="465" y="570" on="1"/>
        <pt x="465" y="645" on="0"/>
        <pt x="371" y="723" on="0"/>
        <pt x="218" y="723" on="0"/>
        <pt x="123" y="646" on="0"/>
        <pt x="123" y="570" on="1"/>
        <pt x="123" y="512" on="0"/>
        <pt x="210" y="435" on="0"/>
        <pt x="377" y="435" on="0"/>
        <pt x="465" y="512" on="0"/>
      </contour>
    </TTGlyph>
    <TTGlyph name="ellipsis" xMin="13" yMin="-2" xMax="387" yMax="93">
      <contour>
        <pt x="40" y="-2" on="0"/>
        <pt x="13" y="26" on="0"/>
        <pt x="13" y="65" on="0"/>
        <pt x="40" y="93" on="0"/>
        <pt x="80" y="93" on="0"/>
        <pt x="108" y="65" on="0"/>
        <pt x="108" y="25" on="0"/>
        <pt x="80" y="-2" on="0"/>
      </contour>
      <contour>
        <pt x="182" y="-2" on="0"/>
        <pt x="154" y="26" on="0"/>
        <pt x="154" y="65" on="0"/>
        <pt x="181" y="93" on="0"/>
        <pt x="221" y="93" on="0"/>
        <pt x="249" y="65" on="0"/>
        <pt x="249" y="25" on="0"/>
        <pt x="221" y="-2" on="0"/>
      </contour>
      <contour>
        <pt x="320" y="-2" on="0"/>
        <pt x="292" y="26" on="0"/>
        <pt x="292" y="65" on="0"/>
        <pt x="319" y="93" on="0"/>
        <pt x="359" y="93" on="0"/>
        <pt x="387" y="65" on="0"/>
        <pt x="387" y="25" on="0"/>
        <pt x="359" y="-2" on="0"/>
      </contour>
    </TTGlyph>
    <TTGlyph name="emdash" xMin="22" yMin="228" xMax="591" yMax="305">
      <contour>
        <pt x="22" y="259" on="1"/>
        <pt x="22" y="305" on="0"/>
        <pt x="83" y="305" on="1"/>
        <pt x="577" y="305" on="1"/>
        <pt x="591" y="302" on="0"/>
        <pt x="591" y="274" on="1"/>
        <pt x="591" y="229" on="0"/>
        <pt x="530" y="228" on="1"/>
        <pt x="36" y="228" on="1"/>
        <pt x="22" y="231" on="0"/>
      </contour>
    </TTGlyph>
    <TTGlyph name="endash" xMin="46" yMin="228" xMax="505" yMax="305">
      <contour>
        <pt x="46" y="259" on="1"/>
        <pt x="46" y="305" on="0"/>
        <pt x="107" y="305" on="1"/>
        <pt x="491" y="305" on="1"/>
        <pt x="505" y="302" on="0"/>
        <pt x="505" y="274" on="1"/>
        <pt x="505" y="228" on="0"/>
        <pt x="444" y="228" on="1"/>
        <pt x="60" y="228" on="1"/>
        <pt x="46" y="231" on="0"/>
      </contour>
    </TTGlyph>
    <TTGlyph name="equal" xMin="111" yMin="226" xMax="568" yMax="458">
      <contour>
        <pt x="111" y="257" on="1"/>
        <pt x="111" y="302" on="0"/>
        <pt x="172" y="302" on="1"/>
        <pt x="554" y="302" on="1"/>
        <pt x="568" y="299" on="0"/>
        <pt x="568" y="271" on="1"/>
        <pt x="568" y="226" on="0"/>
        <pt x="507" y="226" on="1"/>
        <pt x="125" y="226" on="1"/>
        <pt x="111" y="229" on="0"/>
      </contour>
      <contour>
        <pt x="111" y="413" on="1"/>
        <pt x="111" y="458" on="0"/>
        <pt x="172" y="458" on="1"/>
        <pt x="554" y="458" on="1"/>
        <pt x="568" y="455" on="0"/>
        <pt x="568" y="427" on="1"/>
        <pt x="568" y="382" on="0"/>
        <pt x="507" y="382" on="1"/>
        <pt x="125" y="382" on="1"/>
        <pt x="111" y="385" on="0"/>
      </contour>
    </TTGlyph>
    <TTGlyph name="eth" xMin="46" yMin="-73" xMax="569" yMax="769">
      <contour>
        <pt x="83" y="719" on="1"/>
        <pt x="56" y="718" on="1"/>
        <pt x="46" y="725" on="0"/>
        <pt x="46" y="745" on="0"/>
        <pt x="63" y="759" on="0"/>
        <pt x="78" y="759" on="1"/>
        <pt x="209" y="759" on="0"/>
        <pt x="331" y="675" on="1"/>
        <pt x="413" y="757" on="1"/>
        <pt x="425" y="769" on="0"/>
        <pt x="452" y="769" on="0"/>
        <pt x="469" y="751" on="0"/>
        <pt x="469" y="739" on="1"/>
        <pt x="373" y="643" on="1"/>
        <pt x="462" y="568" on="0"/>
        <pt x="569" y="352" on="0"/>
        <pt x="569" y="232" on="1"/>
        <pt x="569" y="79" on="0"/>
        <pt x="418" y="-73" on="0"/>
        <pt x="182" y="-73" on="0"/>
        <pt x="47" y="54" on="0"/>
        <pt x="47" y="153" on="1"/>
        <pt x="47" y="276" on="0"/>
        <pt x="120" y="342" on="1"/>
        <pt x="146" y="365" on="0"/>
        <pt x="231" y="395" on="0"/>
        <pt x="284" y="395" on="1"/>
        <pt x="397" y="395" on="0"/>
        <pt x="463" y="319" on="1"/>
        <pt x="428" y="480" on="0"/>
        <pt x="324" y="594" on="1"/>
        <pt x="187" y="457" on="1"/>
        <pt x="174" y="444" on="0"/>
        <pt x="149" y="444" on="0"/>
        <pt x="132" y="462" on="0"/>
        <pt x="132" y="474" on="1"/>
        <pt x="287" y="630" on="1"/>
        <pt x="186" y="719" on="0"/>
      </contour>
      <contour>
        <pt x="129" y="73" on="0"/>
        <pt x="222" y="-33" on="0"/>
        <pt x="369" y="-33" on="0"/>
        <pt x="469" y="75" on="0"/>
        <pt x="469" y="241" on="0"/>
        <pt x="375" y="346" on="0"/>
        <pt x="281" y="346" on="1"/>
        <pt x="208" y="346" on="0"/>
        <pt x="129" y="243" on="0"/>
      </contour>
    </TTGlyph>
    <TTGlyph name="exclam" xMin="43" yMin="-3" xMax="162" yMax="726">
      <contour>
        <pt x="47" y="694" on="0"/>
        <pt x="87" y="726" on="0"/>
        <pt x="134" y="726" on="0"/>
        <pt x="159" y="707" on="1"/>
        <pt x="140" y="236" on="1"/>
        <pt x="140" y="219" on="0"/>
        <pt x="114" y="200" on="0"/>
        <pt x="104" y="200" on="1"/>
        <pt x="84" y="200" on="0"/>
        <pt x="68" y="209" on="1"/>
        <pt x="48" y="667" on="1"/>
      </contour>
      <contour>
        <pt x="43" y="31" on="0"/>
        <pt x="43" y="81" on="0"/>
        <pt x="77" y="116" on="0"/>
        <pt x="127" y="116" on="0"/>
        <pt x="162" y="81" on="0"/>
        <pt x="162" y="31" on="0"/>
        <pt x="127" y="-3" on="0"/>
        <pt x="77" y="-3" on="0"/>
      </contour>
    </TTGlyph>
    <TTGlyph name="exclamdown" xMin="43" yMin="-274" xMax="162" yMax="455">
      <contour>
        <pt x="149" y="-255" on="1"/>
        <pt x="138" y="-274" on="0"/>
        <pt x="89" y="-274" on="0"/>
        <pt x="57" y="-242" on="0"/>
        <pt x="58" y="-215" on="1"/>
        <pt x="78" y="243" on="1"/>
        <pt x="84" y="252" on="0"/>
        <pt x="113" y="252" on="0"/>
        <pt x="130" y="233" on="0"/>
        <pt x="130" y="216" on="1"/>
      </contour>
      <contour>
        <pt x="43" y="371" on="0"/>
        <pt x="43" y="421" on="0"/>
        <pt x="77" y="455" on="0"/>
        <pt x="127" y="455" on="0"/>
        <pt x="162" y="421" on="0"/>
        <pt x="162" y="371" on="0"/>
        <pt x="127" y="336" on="0"/>
        <pt x="77" y="336" on="0"/>
      </contour>
    </TTGlyph>
    <TTGlyph name="f" xMin="0" yMin="-380" xMax="241" yMax="806">
      <contour>
        <pt x="241" y="403" on="1"/>
        <pt x="90" y="403" on="1"/>
        <pt x="90" y="-366" on="1"/>
        <pt x="80" y="-380" on="0"/>
        <pt x="30" y="-380" on="0"/>
        <pt x="0" y="-349" on="0"/>
        <pt x="0" y="-319" on="1"/>
        <pt x="0" y="559" on="1"/>
        <pt x="0" y="686" on="0"/>
        <pt x="54" y="806" on="0"/>
        <pt x="123" y="806" on="1"/>
        <pt x="222" y="806" on="0"/>
        <pt x="222" y="672" on="1"/>
        <pt x="222" y="518" on="0"/>
        <pt x="118" y="438" on="1"/>
        <pt x="207" y="438" on="1"/>
        <pt x="228" y="438" on="0"/>
        <pt x="241" y="422" on="0"/>
      </contour>
      <contour>
        <pt x="179" y="671" on="1"/>
        <pt x="179" y="767" on="0"/>
        <pt x="131" y="767" on="1"/>
        <pt x="118" y="767" on="0"/>
        <pt x="104" y="750" on="0"/>
        <pt x="100" y="715" on="1"/>
        <pt x="92" y="655" on="0"/>
        <pt x="90" y="459" on="1"/>
        <pt x="179" y="524" on="0"/>
      </contour>
    </TTGlyph>
    <TTGlyph name="fi" xMin="0" yMin="-380" xMax="592" yMax="806">
      <contour>
        <pt x="299" y="438" on="1"/>
        <pt x="315" y="452" on="0"/>
        <pt x="359" y="452" on="0"/>
        <pt x="373" y="438" on="1"/>
        <pt x="373" y="151" on="1"/>
        <pt x="373" y="94" on="0"/>
        <pt x="417" y="36" on="0"/>
        <pt x="493" y="36" on="0"/>
        <pt x="559" y="128" on="0"/>
        <pt x="559" y="231" on="1"/>
        <pt x="561" y="237" on="0"/>
        <pt x="574" y="237" on="1"/>
        <pt x="592" y="237" on="0"/>
        <pt x="592" y="184" on="1"/>
        <pt x="592" y="107" on="0"/>
        <pt x="508" y="-3" on="0"/>
        <pt x="443" y="-3" on="1"/>
        <pt x="362" y="-3" on="0"/>
        <pt x="283" y="93" on="0"/>
        <pt x="283" y="181" on="1"/>
        <pt x="283" y="399" on="0"/>
        <pt x="284" y="403" on="1"/>
        <pt x="90" y="403" on="1"/>
        <pt x="90" y="-366" on="1"/>
        <pt x="80" y="-380" on="0"/>
        <pt x="30" y="-380" on="0"/>
        <pt x="0" y="-349" on="0"/>
        <pt x="0" y="-319" on="1"/>
        <pt x="0" y="559" on="1"/>
        <pt x="0" y="686" on="0"/>
        <pt x="54" y="806" on="0"/>
        <pt x="123" y="806" on="1"/>
        <pt x="222" y="806" on="0"/>
        <pt x="222" y="672" on="1"/>
        <pt x="222" y="518" on="0"/>
        <pt x="118" y="438" on="1"/>
      </contour>
      <contour>
        <pt x="179" y="671" on="1"/>
        <pt x="179" y="767" on="0"/>
        <pt x="131" y="767" on="1"/>
        <pt x="118" y="767" on="0"/>
        <pt x="104" y="750" on="0"/>
        <pt x="100" y="715" on="1"/>
        <pt x="92" y="655" on="0"/>
        <pt x="90" y="459" on="1"/>
        <pt x="179" y="524" on="0"/>
      </contour>
      <contour>
        <pt x="270" y="567" on="0"/>
        <pt x="270" y="617" on="0"/>
        <pt x="304" y="652" on="0"/>
        <pt x="354" y="652" on="0"/>
        <pt x="389" y="617" on="0"/>
        <pt x="389" y="567" on="0"/>
        <pt x="354" y="533" on="0"/>
        <pt x="304" y="533" on="0"/>
      </contour>
    </TTGlyph>
    <TTGlyph name="five" xMin="18" yMin="-58" xMax="521" yMax="735">
      <contour>
        <pt x="106" y="350" on="1"/>
        <pt x="112" y="536" on="1"/>
        <pt x="112" y="596" on="0"/>
        <pt x="92" y="644" on="1"/>
        <pt x="54" y="657" on="0"/>
        <pt x="35" y="689" on="1"/>
        <pt x="28" y="701" on="0"/>
        <pt x="28" y="729" on="0"/>
        <pt x="34" y="735" on="1"/>
        <pt x="35" y="735" on="0"/>
        <pt x="43" y="733" on="1"/>
        <pt x="97" y="725" on="0"/>
        <pt x="121" y="702" on="1"/>
        <pt x="192" y="681" on="0"/>
        <pt x="348" y="681" on="0"/>
        <pt x="437" y="698" on="0"/>
        <pt x="473" y="717" on="0"/>
        <pt x="502" y="734" on="0"/>
        <pt x="510" y="734" on="1"/>
        <pt x="516" y="725" on="0"/>
        <pt x="516" y="713" on="1"/>
        <pt x="516" y="670" on="0"/>
        <pt x="388" y="606" on="0"/>
        <pt x="279" y="606" on="1"/>
        <pt x="219" y="606" on="0"/>
        <pt x="164" y="619" on="1"/>
        <pt x="174" y="569" on="0"/>
        <pt x="174" y="496" on="0"/>
        <pt x="169" y="381" on="0"/>
        <pt x="169" y="379" on="1"/>
        <pt x="221" y="407" on="0"/>
        <pt x="320" y="407" on="0"/>
        <pt x="403" y="381" on="0"/>
        <pt x="476" y="329" on="0"/>
        <pt x="521" y="235" on="0"/>
        <pt x="521" y="174" on="1"/>
        <pt x="521" y="65" on="0"/>
        <pt x="357" y="-58" on="0"/>
        <pt x="231" y="-58" on="1"/>
        <pt x="144" y="-58" on="0"/>
        <pt x="18" y="32" on="0"/>
        <pt x="18" y="86" on="1"/>
        <pt x="18" y="118" on="0"/>
        <pt x="34" y="118" on="1"/>
        <pt x="54" y="112" on="1"/>
        <pt x="54" y="59" on="0"/>
        <pt x="161" y="-8" on="0"/>
        <pt x="317" y="-8" on="0"/>
        <pt x="429" y="86" on="0"/>
        <pt x="429" y="263" on="0"/>
        <pt x="336" y="355" on="0"/>
        <pt x="276" y="355" on="1"/>
        <pt x="212" y="355" on="0"/>
        <pt x="146" y="329" on="1"/>
        <pt x="123" y="320" on="0"/>
        <pt x="119" y="320" on="1"/>
        <pt x="106" y="320" on="0"/>
      </contour>
    </TTGlyph>
    <TTGlyph name="fl" xMin="0" yMin="-380" xMax="592" yMax="806">
      <contour>
        <pt x="574" y="237" on="1"/>
        <pt x="592" y="237" on="0"/>
        <pt x="592" y="184" on="1"/>
        <pt x="592" y="107" on="0"/>
        <pt x="508" y="-3" on="0"/>
        <pt x="443" y="-3" on="1"/>
        <pt x="362" y="-3" on="0"/>
        <pt x="281" y="93" on="0"/>
        <pt x="281" y="181" on="1"/>
        <pt x="281" y="403" on="1"/>
        <pt x="90" y="403" on="1"/>
        <pt x="90" y="-366" on="1"/>
        <pt x="80" y="-380" on="0"/>
        <pt x="30" y="-380" on="0"/>
        <pt x="0" y="-349" on="0"/>
        <pt x="0" y="-319" on="1"/>
        <pt x="0" y="559" on="1"/>
        <pt x="0" y="686" on="0"/>
        <pt x="54" y="806" on="0"/>
        <pt x="123" y="806" on="1"/>
        <pt x="222" y="806" on="0"/>
        <pt x="222" y="672" on="1"/>
        <pt x="222" y="518" on="0"/>
        <pt x="118" y="438" on="1"/>
        <pt x="282" y="438" on="1"/>
        <pt x="282" y="557" on="1"/>
        <pt x="283" y="686" on="0"/>
        <pt x="336" y="806" on="0"/>
        <pt x="404" y="806" on="1"/>
        <pt x="503" y="806" on="0"/>
        <pt x="503" y="672" on="1"/>
        <pt x="503" y="571" on="0"/>
        <pt x="424" y="449" on="0"/>
        <pt x="373" y="419" on="1"/>
        <pt x="373" y="151" on="1"/>
        <pt x="373" y="94" on="0"/>
        <pt x="417" y="36" on="0"/>
        <pt x="493" y="36" on="0"/>
        <pt x="559" y="128" on="0"/>
        <pt x="559" y="231" on="1"/>
        <pt x="561" y="237" on="0"/>
      </contour>
      <contour>
        <pt x="179" y="671" on="1"/>
        <pt x="179" y="767" on="0"/>
        <pt x="131" y="767" on="1"/>
        <pt x="107" y="767" on="0"/>
        <pt x="100" y="728" on="1"/>
        <pt x="92" y="686" on="0"/>
        <pt x="90" y="459" on="1"/>
        <pt x="179" y="524" on="0"/>
      </contour>
      <contour>
        <pt x="373" y="605" on="1"/>
        <pt x="373" y="461" on="1"/>
        <pt x="460" y="524" on="0"/>
        <pt x="460" y="671" on="1"/>
        <pt x="460" y="767" on="0"/>
        <pt x="412" y="767" on="1"/>
        <pt x="389" y="767" on="0"/>
        <pt x="373" y="703" on="0"/>
      </contour>
    </TTGlyph>
    <TTGlyph name="florin" xMin="-222" yMin="-438" xMax="241" yMax="806">
      <contour>
        <pt x="-204" y="-198" on="1"/>
        <pt x="-193" y="-198" on="0"/>
        <pt x="-189" y="-204" on="1"/>
        <pt x="-189" y="-307" on="0"/>
        <pt x="-123" y="-399" on="0"/>
        <pt x="-49" y="-399" on="0"/>
        <pt x="-3" y="-325" on="0"/>
        <pt x="0" y="-266" on="1"/>
        <pt x="0" y="559" on="1"/>
        <pt x="0" y="686" on="0"/>
        <pt x="54" y="806" on="0"/>
        <pt x="123" y="806" on="1"/>
        <pt x="222" y="806" on="0"/>
        <pt x="222" y="672" on="1"/>
        <pt x="222" y="518" on="0"/>
        <pt x="118" y="438" on="1"/>
        <pt x="207" y="438" on="1"/>
        <pt x="228" y="438" on="0"/>
        <pt x="241" y="422" on="0"/>
        <pt x="241" y="403" on="1"/>
        <pt x="89" y="403" on="1"/>
        <pt x="89" y="-236" on="1"/>
        <pt x="89" y="-326" on="0"/>
        <pt x="6" y="-438" on="0"/>
        <pt x="-138" y="-438" on="0"/>
        <pt x="-222" y="-328" on="0"/>
        <pt x="-222" y="-251" on="1"/>
        <pt x="-222" y="-198" on="0"/>
      </contour>
      <contour>
        <pt x="179" y="671" on="1"/>
        <pt x="179" y="767" on="0"/>
        <pt x="131" y="767" on="1"/>
        <pt x="118" y="767" on="0"/>
        <pt x="104" y="750" on="0"/>
        <pt x="100" y="715" on="1"/>
        <pt x="92" y="655" on="0"/>
        <pt x="90" y="459" on="1"/>
        <pt x="179" y="524" on="0"/>
      </contour>
    </TTGlyph>
    <TTGlyph name="four" xMin="83" yMin="0" xMax="721" yMax="714">
      <contour>
        <pt x="383" y="29" on="1"/>
        <pt x="383" y="42" on="0"/>
        <pt x="392" y="51" on="1"/>
        <pt x="499" y="51" on="1"/>
        <pt x="499" y="163" on="1"/>
        <pt x="471" y="170" on="0"/>
        <pt x="303" y="236" on="0"/>
        <pt x="252" y="236" on="1"/>
        <pt x="239" y="236" on="0"/>
        <pt x="221" y="234" on="1"/>
        <pt x="177" y="179" on="0"/>
        <pt x="89" y="168" on="1"/>
        <pt x="83" y="177" on="0"/>
        <pt x="83" y="189" on="1"/>
        <pt x="83" y="240" on="0"/>
        <pt x="167" y="264" on="1"/>
        <pt x="211" y="316" on="0"/>
        <pt x="248" y="542" on="0"/>
        <pt x="248" y="637" on="1"/>
        <pt x="248" y="672" on="0"/>
        <pt x="311" y="672" on="0"/>
        <pt x="311" y="636" on="1"/>
        <pt x="311" y="398" on="0"/>
        <pt x="247" y="276" on="1"/>
        <pt x="260" y="276" on="1"/>
        <pt x="331" y="276" on="0"/>
        <pt x="428" y="242" on="1"/>
        <pt x="470" y="228" on="0"/>
        <pt x="496" y="222" on="1"/>
        <pt x="496" y="616" on="1"/>
        <pt x="496" y="664" on="0"/>
        <pt x="532" y="714" on="0"/>
        <pt x="553" y="714" on="1"/>
        <pt x="572" y="714" on="0"/>
        <pt x="588" y="704" on="0"/>
        <pt x="589" y="704" on="1"/>
        <pt x="589" y="214" on="1"/>
        <pt x="661" y="219" on="0"/>
        <pt x="661" y="286" on="1"/>
        <pt x="661" y="308" on="0"/>
        <pt x="654" y="317" on="1"/>
        <pt x="660" y="332" on="0"/>
        <pt x="685" y="332" on="1"/>
        <pt x="721" y="332" on="0"/>
        <pt x="721" y="217" on="0"/>
        <pt x="651" y="157" on="0"/>
        <pt x="590" y="154" on="1"/>
        <pt x="590" y="52" on="1"/>
        <pt x="661" y="52" on="1"/>
        <pt x="678" y="52" on="0"/>
        <pt x="697" y="35" on="0"/>
        <pt x="697" y="9" on="0"/>
        <pt x="688" y="0" on="1"/>
        <pt x="419" y="0" on="1"/>
        <pt x="383" y="0" on="0"/>
      </contour>
    </TTGlyph>
    <TTGlyph name="fraction" xMin="-4" yMin="-14" xMax="406" yMax="726">
      <contour>
        <pt x="377" y="726" on="1"/>
        <pt x="388" y="726" on="0"/>
        <pt x="402" y="713" on="0"/>
        <pt x="406" y="700" on="1"/>
        <pt x="94" y="43" on="1"/>
        <pt x="79" y="11" on="0"/>
        <pt x="47" y="-14" on="0"/>
        <pt x="30" y="-14" on="1"/>
        <pt x="2" y="-14" on="0"/>
        <pt x="-2" y="4" on="1"/>
        <pt x="-4" y="10" on="1"/>
        <pt x="312" y="677" on="1"/>
        <pt x="335" y="726" on="0"/>
      </contour>
    </TTGlyph>
    <TTGlyph name="g" xMin="1" yMin="-379" xMax="446" yMax="452">
      <contour>
        <pt x="298" y="423" on="1"/>
        <pt x="311" y="452" on="0"/>
        <pt x="368" y="452" on="0"/>
        <pt x="382" y="438" on="1"/>
        <pt x="382" y="-70" on="1"/>
        <pt x="394" y="-69" on="0"/>
        <pt x="446" y="-69" on="0"/>
        <pt x="446" y="-91" on="1"/>
        <pt x="440" y="-106" on="1"/>
        <pt x="402" y="-106" on="0"/>
        <pt x="382" y="-107" on="1"/>
        <pt x="382" y="-159" on="1"/>
        <pt x="381" y="-262" on="0"/>
        <pt x="288" y="-379" on="0"/>
        <pt x="211" y="-379" on="1"/>
        <pt x="165" y="-379" on="0"/>
        <pt x="94" y="-324" on="0"/>
        <pt x="94" y="-265" on="1"/>
        <pt x="94" y="-189" on="0"/>
        <pt x="202" y="-99" on="0"/>
        <pt x="292" y="-81" on="1"/>
        <pt x="292" y="66" on="1"/>
        <pt x="250" y="-3" on="0"/>
        <pt x="176" y="-3" on="1"/>
        <pt x="1" y="-3" on="0"/>
        <pt x="1" y="226" on="1"/>
        <pt x="1" y="342" on="0"/>
        <pt x="110" y="452" on="0"/>
        <pt x="200" y="452" on="1"/>
        <pt x="269" y="452" on="0"/>
      </contour>
      <contour>
        <pt x="292" y="209" on="1"/>
        <pt x="292" y="280" on="1"/>
        <pt x="292" y="351" on="0"/>
        <pt x="244" y="413" on="0"/>
        <pt x="181" y="413" on="0"/>
        <pt x="145" y="401" on="0"/>
        <pt x="128" y="382" on="1"/>
        <pt x="96" y="346" on="0"/>
        <pt x="96" y="226" on="1"/>
        <pt x="96" y="147" on="0"/>
        <pt x="124" y="59" on="0"/>
        <pt x="160" y="36" on="0"/>
        <pt x="225" y="36" on="0"/>
        <pt x="292" y="119" on="0"/>
      </contour>
      <contour>
        <pt x="292" y="-157" on="1"/>
        <pt x="292" y="-119" on="1"/>
        <pt x="145" y="-152" on="0"/>
        <pt x="145" y="-268" on="1"/>
        <pt x="145" y="-303" on="0"/>
        <pt x="183" y="-340" on="0"/>
        <pt x="209" y="-340" on="1"/>
        <pt x="251" y="-340" on="0"/>
        <pt x="292" y="-262" on="0"/>
      </contour>
    </TTGlyph>
    <TTGlyph name="germandbls" xMin="139" yMin="-74" xMax="637" yMax="746">
      <contour>
        <pt x="229" y="-43" on="0"/>
        <pt x="199" y="-74" on="0"/>
        <pt x="155" y="-74" on="0"/>
        <pt x="139" y="-60" on="1"/>
        <pt x="139" y="511" on="1"/>
        <pt x="139" y="623" on="0"/>
        <pt x="233" y="746" on="0"/>
        <pt x="474" y="746" on="0"/>
        <pt x="590" y="641" on="0"/>
        <pt x="590" y="551" on="1"/>
        <pt x="590" y="481" on="0"/>
        <pt x="555" y="439" on="1"/>
        <pt x="525" y="402" on="0"/>
        <pt x="501" y="390" on="1"/>
        <pt x="491" y="384" on="1"/>
        <pt x="549" y="365" on="0"/>
        <pt x="586" y="322" on="1"/>
        <pt x="605" y="300" on="0"/>
        <pt x="637" y="220" on="0"/>
        <pt x="637" y="170" on="1"/>
        <pt x="637" y="81" on="0"/>
        <pt x="534" y="-37" on="0"/>
        <pt x="367" y="-37" on="0"/>
        <pt x="284" y="25" on="0"/>
        <pt x="284" y="78" on="1"/>
        <pt x="284" y="100" on="0"/>
        <pt x="304" y="122" on="0"/>
        <pt x="314" y="122" on="1"/>
        <pt x="324" y="123" on="1"/>
        <pt x="324" y="83" on="0"/>
        <pt x="380" y="12" on="0"/>
        <pt x="484" y="12" on="0"/>
        <pt x="545" y="104" on="0"/>
        <pt x="545" y="170" on="1"/>
        <pt x="545" y="266" on="0"/>
        <pt x="426" y="360" on="0"/>
        <pt x="317" y="360" on="1"/>
        <pt x="307" y="360" on="0"/>
        <pt x="293" y="378" on="0"/>
        <pt x="293" y="393" on="1"/>
        <pt x="293" y="412" on="0"/>
        <pt x="317" y="412" on="1"/>
        <pt x="429" y="412" on="0"/>
        <pt x="467" y="458" on="1"/>
        <pt x="498" y="495" on="0"/>
        <pt x="498" y="621" on="0"/>
        <pt x="417" y="698" on="0"/>
        <pt x="291" y="698" on="0"/>
        <pt x="229" y="623" on="0"/>
        <pt x="229" y="530" on="1"/>
        <pt x="229" y="-13" on="1"/>
      </contour>
    </TTGlyph>
    <TTGlyph name="grave" xMin="-4" yMin="525" xMax="196" yMax="790">
      <contour>
        <pt x="39" y="790" on="1"/>
        <pt x="68" y="790" on="0"/>
        <pt x="87" y="757" on="1"/>
        <pt x="196" y="563" on="1"/>
        <pt x="192" y="548" on="0"/>
        <pt x="168" y="525" on="0"/>
        <pt x="154" y="525" on="1"/>
        <pt x="126" y="525" on="0"/>
        <pt x="107" y="557" on="1"/>
        <pt x="-4" y="752" on="1"/>
        <pt x="-1" y="766" on="0"/>
        <pt x="25" y="790" on="0"/>
      </contour>
    </TTGlyph>
    <TTGlyph name="greater" xMin="37" yMin="87" xMax="347" yMax="583">
      <contour>
        <pt x="75" y="87" on="1"/>
        <pt x="37" y="106" on="0"/>
        <pt x="37" y="136" on="1"/>
        <pt x="37" y="150" on="0"/>
        <pt x="69" y="176" on="1"/>
        <pt x="258" y="333" on="1"/>
        <pt x="69" y="494" on="1"/>
        <pt x="38" y="520" on="0"/>
        <pt x="38" y="548" on="0"/>
        <pt x="56" y="573" on="0"/>
        <pt x="75" y="583" on="1"/>
        <pt x="313" y="382" on="1"/>
        <pt x="347" y="353" on="0"/>
        <pt x="347" y="312" on="0"/>
        <pt x="313" y="284" on="1"/>
      </contour>
    </TTGlyph>
    <TTGlyph name="guillemotleft" xMin="96" yMin="-30" xMax="654" yMax="466">
      <contour>
        <pt x="374" y="59" on="1"/>
        <pt x="406" y="33" on="0"/>
        <pt x="406" y="4" on="0"/>
        <pt x="387" y="-20" on="0"/>
        <pt x="368" y="-30" on="1"/>
        <pt x="130" y="167" on="1"/>
        <pt x="96" y="195" on="0"/>
        <pt x="96" y="236" on="0"/>
        <pt x="130" y="265" on="1"/>
        <pt x="368" y="466" on="1"/>
        <pt x="383" y="459" on="0"/>
        <pt x="405" y="431" on="0"/>
        <pt x="405" y="403" on="0"/>
        <pt x="374" y="377" on="1"/>
        <pt x="185" y="216" on="1"/>
      </contour>
      <contour>
        <pt x="622" y="59" on="1"/>
        <pt x="654" y="33" on="0"/>
        <pt x="654" y="4" on="0"/>
        <pt x="635" y="-20" on="0"/>
        <pt x="616" y="-30" on="1"/>
        <pt x="378" y="167" on="1"/>
        <pt x="344" y="195" on="0"/>
        <pt x="344" y="236" on="0"/>
        <pt x="378" y="265" on="1"/>
        <pt x="616" y="466" on="1"/>
        <pt x="631" y="459" on="0"/>
        <pt x="653" y="431" on="0"/>
        <pt x="653" y="403" on="0"/>
        <pt x="622" y="377" on="1"/>
        <pt x="433" y="216" on="1"/>
      </contour>
    </TTGlyph>
    <TTGlyph name="guillemotright" xMin="90" yMin="-30" xMax="647" yMax="466">
      <contour>
        <pt x="376" y="-30" on="1"/>
        <pt x="338" y="-11" on="0"/>
        <pt x="338" y="19" on="1"/>
        <pt x="338" y="33" on="0"/>
        <pt x="370" y="59" on="1"/>
        <pt x="559" y="216" on="1"/>
        <pt x="370" y="377" on="1"/>
        <pt x="339" y="403" on="0"/>
        <pt x="339" y="431" on="0"/>
        <pt x="358" y="456" on="0"/>
        <pt x="376" y="466" on="1"/>
        <pt x="614" y="265" on="1"/>
        <pt x="647" y="237" on="0"/>
        <pt x="647" y="194" on="0"/>
        <pt x="614" y="167" on="1"/>
      </contour>
      <contour>
        <pt x="128" y="-30" on="1"/>
        <pt x="90" y="-11" on="0"/>
        <pt x="90" y="19" on="1"/>
        <pt x="90" y="33" on="0"/>
        <pt x="122" y="59" on="1"/>
        <pt x="311" y="216" on="1"/>
        <pt x="122" y="377" on="1"/>
        <pt x="91" y="403" on="0"/>
        <pt x="91" y="431" on="0"/>
        <pt x="110" y="456" on="0"/>
        <pt x="128" y="466" on="1"/>
        <pt x="366" y="265" on="1"/>
        <pt x="399" y="237" on="0"/>
        <pt x="399" y="194" on="0"/>
        <pt x="366" y="167" on="1"/>
      </contour>
    </TTGlyph>
    <TTGlyph name="guilsinglleft" xMin="96" yMin="-30" xMax="406" yMax="466">
      <contour>
        <pt x="374" y="59" on="1"/>
        <pt x="406" y="33" on="0"/>
        <pt x="406" y="4" on="0"/>
        <pt x="387" y="-20" on="0"/>
        <pt x="368" y="-30" on="1"/>
        <pt x="130" y="167" on="1"/>
        <pt x="96" y="195" on="0"/>
        <pt x="96" y="236" on="0"/>
        <pt x="130" y="265" on="1"/>
        <pt x="368" y="466" on="1"/>
        <pt x="383" y="459" on="0"/>
        <pt x="405" y="431" on="0"/>
        <pt x="405" y="403" on="0"/>
        <pt x="374" y="377" on="1"/>
        <pt x="185" y="216" on="1"/>
      </contour>
    </TTGlyph>
    <TTGlyph name="guilsinglright" xMin="90" yMin="-30" xMax="399" yMax="466">
      <contour>
        <pt x="128" y="-30" on="1"/>
        <pt x="90" y="-11" on="0"/>
        <pt x="90" y="19" on="1"/>
        <pt x="90" y="33" on="0"/>
        <pt x="122" y="59" on="1"/>
        <pt x="311" y="216" on="1"/>
        <pt x="122" y="377" on="1"/>
        <pt x="91" y="403" on="0"/>
        <pt x="91" y="431" on="0"/>
        <pt x="110" y="456" on="0"/>
        <pt x="128" y="466" on="1"/>
        <pt x="366" y="265" on="1"/>
        <pt x="399" y="237" on="0"/>
        <pt x="399" y="194" on="0"/>
        <pt x="366" y="167" on="1"/>
      </contour>
    </TTGlyph>
    <TTGlyph name="h" xMin="1" yMin="-3" xMax="560" yMax="806">
      <contour>
        <pt x="542" y="237" on="1"/>
        <pt x="560" y="237" on="0"/>
        <pt x="560" y="184" on="1"/>
        <pt x="560" y="107" on="0"/>
        <pt x="481" y="-3" on="0"/>
        <pt x="355" y="-3" on="0"/>
        <pt x="272" y="86" on="0"/>
        <pt x="272" y="156" on="1"/>
        <pt x="272" y="298" on="1"/>
        <pt x="272" y="417" on="0"/>
        <pt x="212" y="417" on="1"/>
        <pt x="159" y="417" on="0"/>
        <pt x="91" y="309" on="0"/>
        <pt x="91" y="182" on="1"/>
        <pt x="91" y="11" on="1"/>
        <pt x="81" y="-3" on="0"/>
        <pt x="31" y="-3" on="0"/>
        <pt x="1" y="28" on="0"/>
        <pt x="1" y="58" on="1"/>
        <pt x="1" y="559" on="1"/>
        <pt x="1" y="689" on="0"/>
        <pt x="51" y="806" on="0"/>
        <pt x="122" y="806" on="1"/>
        <pt x="160" y="806" on="0"/>
        <pt x="202" y="742" on="0"/>
        <pt x="202" y="683" on="1"/>
        <pt x="202" y="576" on="0"/>
        <pt x="91" y="465" on="1"/>
        <pt x="91" y="377" on="1"/>
        <pt x="133" y="452" on="0"/>
        <pt x="224" y="452" on="1"/>
        <pt x="289" y="452" on="0"/>
        <pt x="366" y="370" on="0"/>
        <pt x="366" y="293" on="1"/>
        <pt x="366" y="151" on="1"/>
        <pt x="366" y="94" on="0"/>
        <pt x="402" y="36" on="0"/>
        <pt x="472" y="36" on="0"/>
        <pt x="527" y="131" on="0"/>
        <pt x="527" y="231" on="1"/>
        <pt x="528" y="237" on="0"/>
      </contour>
      <contour>
        <pt x="91" y="513" on="1"/>
        <pt x="159" y="601" on="0"/>
        <pt x="159" y="767" on="0"/>
        <pt x="123" y="767" on="1"/>
        <pt x="103" y="767" on="0"/>
        <pt x="91" y="675" on="0"/>
      </contour>
    </TTGlyph>
    <TTGlyph name="hungarumlaut" xMin="-4" yMin="513" xMax="380" yMax="778">
      <contour>
        <pt x="38" y="513" on="1"/>
        <pt x="24" y="513" on="0"/>
        <pt x="3" y="532" on="0"/>
        <pt x="-4" y="551" on="1"/>
        <pt x="105" y="745" on="1"/>
        <pt x="124" y="778" on="0"/>
        <pt x="153" y="778" on="1"/>
        <pt x="167" y="778" on="0"/>
        <pt x="188" y="759" on="0"/>
        <pt x="196" y="740" on="1"/>
        <pt x="85" y="545" on="1"/>
        <pt x="66" y="513" on="0"/>
      </contour>
      <contour>
        <pt x="222" y="513" on="1"/>
        <pt x="208" y="513" on="0"/>
        <pt x="187" y="532" on="0"/>
        <pt x="180" y="551" on="1"/>
        <pt x="289" y="745" on="1"/>
        <pt x="308" y="778" on="0"/>
        <pt x="337" y="778" on="1"/>
        <pt x="351" y="778" on="0"/>
        <pt x="372" y="759" on="0"/>
        <pt x="380" y="740" on="1"/>
        <pt x="269" y="545" on="1"/>
        <pt x="250" y="513" on="0"/>
      </contour>
    </TTGlyph>
    <TTGlyph name="hyphen" xMin="26" yMin="232" xMax="415" yMax="309">
      <contour>
        <pt x="26" y="263" on="1"/>
        <pt x="26" y="308" on="0"/>
        <pt x="87" y="308" on="1"/>
        <pt x="401" y="309" on="1"/>
        <pt x="415" y="306" on="0"/>
        <pt x="415" y="278" on="1"/>
        <pt x="415" y="233" on="0"/>
        <pt x="354" y="233" on="1"/>
        <pt x="40" y="232" on="1"/>
        <pt x="26" y="235" on="0"/>
      </contour>
    </TTGlyph>
    <TTGlyph name="i" xMin="-10" yMin="-3" xMax="312" yMax="652">
      <contour>
        <pt x="-10" y="567" on="0"/>
        <pt x="-10" y="617" on="0"/>
        <pt x="24" y="652" on="0"/>
        <pt x="74" y="652" on="0"/>
        <pt x="109" y="617" on="0"/>
        <pt x="109" y="567" on="0"/>
        <pt x="74" y="533" on="0"/>
        <pt x="24" y="533" on="0"/>
      </contour>
      <contour>
        <pt x="3" y="421" on="0"/>
        <pt x="33" y="452" on="0"/>
        <pt x="79" y="452" on="0"/>
        <pt x="93" y="438" on="1"/>
        <pt x="93" y="151" on="1"/>
        <pt x="93" y="94" on="0"/>
        <pt x="137" y="36" on="0"/>
        <pt x="213" y="36" on="0"/>
        <pt x="279" y="128" on="0"/>
        <pt x="279" y="231" on="1"/>
        <pt x="281" y="237" on="0"/>
        <pt x="294" y="237" on="1"/>
        <pt x="312" y="237" on="0"/>
        <pt x="312" y="184" on="1"/>
        <pt x="312" y="107" on="0"/>
        <pt x="228" y="-3" on="0"/>
        <pt x="163" y="-3" on="1"/>
        <pt x="82" y="-3" on="0"/>
        <pt x="3" y="93" on="0"/>
        <pt x="3" y="181" on="1"/>
        <pt x="3" y="391" on="1"/>
      </contour>
    </TTGlyph>
    <TTGlyph name="iacute" xMin="3" yMin="-3" xMax="312" yMax="790">
      <contour>
        <pt x="3" y="421" on="0"/>
        <pt x="33" y="452" on="0"/>
        <pt x="79" y="452" on="0"/>
        <pt x="93" y="438" on="1"/>
        <pt x="93" y="151" on="1"/>
        <pt x="93" y="94" on="0"/>
        <pt x="137" y="36" on="0"/>
        <pt x="213" y="36" on="0"/>
        <pt x="279" y="128" on="0"/>
        <pt x="279" y="231" on="1"/>
        <pt x="281" y="237" on="0"/>
        <pt x="294" y="237" on="1"/>
        <pt x="312" y="237" on="0"/>
        <pt x="312" y="184" on="1"/>
        <pt x="312" y="107" on="0"/>
        <pt x="228" y="-3" on="0"/>
        <pt x="163" y="-3" on="1"/>
        <pt x="82" y="-3" on="0"/>
        <pt x="3" y="93" on="0"/>
        <pt x="3" y="181" on="1"/>
        <pt x="3" y="391" on="1"/>
      </contour>
      <contour>
        <pt x="51" y="525" on="1"/>
        <pt x="37" y="525" on="0"/>
        <pt x="16" y="544" on="0"/>
        <pt x="9" y="563" on="1"/>
        <pt x="118" y="757" on="1"/>
        <pt x="137" y="790" on="0"/>
        <pt x="166" y="790" on="1"/>
        <pt x="180" y="790" on="0"/>
        <pt x="201" y="771" on="0"/>
        <pt x="209" y="752" on="1"/>
        <pt x="98" y="557" on="1"/>
        <pt x="79" y="525" on="0"/>
      </contour>
    </TTGlyph>
</ttFont>
